<svg width="20" height="21" viewBox="0 0 20 21" fill="none" xmlns="http://www.w3.org/2000/svg">
<path fill-rule="evenodd" clip-rule="evenodd" d="M15.4239 8.50839C14.5557 8.50839 13.7228 8.16344 13.1088 7.54943C12.4947 6.93541 12.1498 6.10253 12.15 5.23416C12.15 4.36594 12.4949 3.53316 13.1089 2.91918C13.7229 2.30516 14.5558 1.96022 15.424 1.96022C16.2924 1.96022 17.1251 2.30531 17.7392 2.91933C18.3532 3.53334 18.6981 4.36622 18.698 5.2346C18.6971 6.10253 18.3519 6.93473 17.738 7.5486C17.1242 8.16233 16.292 8.50756 15.4239 8.50839ZM15.4239 0.735229C14.2307 0.735229 13.0862 1.20921 12.2424 2.05298C11.3986 2.8969 10.9246 4.04125 10.9246 5.23463C10.9246 6.42786 11.3986 7.57237 12.2424 8.41614C13.0862 9.25991 14.2307 9.73389 15.4239 9.73389C16.6173 9.73389 17.7616 9.25991 18.6055 8.41614C19.4493 7.57237 19.9233 6.42786 19.9233 5.23463C19.9219 4.04165 19.4475 2.89802 18.604 2.05454C17.7605 1.21105 16.6168 0.73664 15.4239 0.735229ZM12.1552 19.1011V12.6024C12.1559 12.5918 12.1645 12.5832 12.1751 12.5825H18.6727C18.6834 12.5834 18.6918 12.5918 18.6926 12.6024V19.1011C18.6918 19.1117 18.6834 19.1202 18.6727 19.1212H12.1751C12.1645 19.1203 12.1559 19.1119 12.1552 19.1011ZM18.6727 20.3465H18.6725C19.0028 20.3461 19.3192 20.2148 19.5526 19.9812C19.7861 19.7478 19.9174 19.4312 19.9178 19.1011V12.6024C19.9175 12.2723 19.7862 11.9558 19.5528 11.7223C19.3193 11.4888 19.0028 11.3575 18.6725 11.3572H12.175C11.8448 11.3575 11.5282 11.4887 11.2947 11.7222C11.0613 11.9558 10.9298 12.2723 10.9294 12.6024V19.1011C10.9298 19.4314 11.0613 19.7479 11.2947 19.9813C11.5283 20.2148 11.8448 20.3461 12.175 20.3465H18.6727ZM1.53823 12.6023C1.53908 12.5917 1.54756 12.5831 1.5583 12.5824H8.05589C8.06649 12.5831 8.07511 12.5917 8.07581 12.6023V19.101C8.07511 19.1117 8.06649 19.1202 8.05589 19.121H1.5583C1.54756 19.1202 1.53908 19.1117 1.53823 19.101V12.6023ZM1.5583 20.3454H8.05589C8.38586 20.3451 8.70225 20.214 8.93569 19.9807C9.16914 19.7475 9.30071 19.4313 9.3014 19.1012V12.6025C9.30097 12.2724 9.16955 11.9559 8.93609 11.7223C8.70264 11.4888 8.38596 11.3575 8.05585 11.3573H1.55826C1.22802 11.3575 0.911472 11.4888 0.678028 11.7224C0.444439 11.9559 0.313156 12.2724 0.312866 12.6025V19.1012C0.31329 19.4314 0.444569 19.7478 0.678028 19.9814C0.911476 20.2149 1.22801 20.3461 1.55826 20.3466L1.5583 20.3454ZM1.53823 1.98533C1.53908 1.97459 1.54756 1.96611 1.5583 1.96526H8.05589C8.06649 1.96611 8.07511 1.97459 8.07581 1.98533V8.48328C8.07511 8.49388 8.06649 8.5025 8.05589 8.50321H1.5583C1.54756 8.5025 1.53908 8.49388 1.53823 8.48328V1.98533ZM1.5583 9.72846H8.05589C8.386 9.72818 8.70268 9.5969 8.93613 9.36345C9.16957 9.12986 9.301 8.81332 9.30143 8.48321V1.98526C9.30101 1.65501 9.16959 1.33847 8.93613 1.10502C8.70266 0.871577 8.386 0.740294 8.05589 0.73986H1.5583C1.22805 0.740284 0.911508 0.871563 0.678064 1.10517C0.444616 1.33861 0.313336 1.65515 0.312902 1.98526V8.48321C0.313326 8.81332 0.444605 9.12986 0.678064 9.3633C0.911512 9.59675 1.22805 9.72803 1.5583 9.72846Z" fill="white"/>
</svg>
