<svg width="16" height="21" viewBox="0 0 16 21" fill="none" xmlns="http://www.w3.org/2000/svg">
<path d="M15.3499 1.11881L13.5617 0.131514C13.4962 0.0952852 13.4225 0.0762818 13.3476 0.0762818C13.2727 0.0762818 13.199 0.0952852 13.1335 0.131514L11.5608 1.00046L9.9855 0.126831C9.92 0.0904085 9.84629 0.0712936 9.77135 0.0712936C9.69641 0.0712936 9.6227 0.0904085 9.5572 0.126831L7.9845 0.995774L6.41138 0.126831C6.34596 0.0904069 6.27232 0.0712891 6.19744 0.0712891C6.12256 0.0712891 6.04893 0.0904069 5.9835 0.126831L4.41038 0.995774L2.83513 0.126831C2.76963 0.0904085 2.69592 0.0712936 2.62098 0.0712936C2.54603 0.0712936 2.47233 0.0904085 2.40683 0.126831L0.621684 1.11839C0.552273 1.1565 0.494316 1.21248 0.453818 1.28052C0.413321 1.34857 0.391756 1.42621 0.391357 1.50539V19.9916C0.391985 20.0683 0.412375 20.1436 0.450557 20.2101C0.48874 20.2766 0.543427 20.3322 0.609338 20.3714C0.672058 20.408 0.742759 20.4288 0.815314 20.4319C0.887869 20.435 0.960088 20.4204 1.02571 20.3893H1.02955L2.62225 19.5093L4.19495 20.3782L4.21454 20.3888C4.27829 20.42 4.34862 20.4353 4.41956 20.4335C4.4905 20.4316 4.55994 20.4126 4.62197 20.3782L6.19467 19.5093L7.7678 20.3782L7.78696 20.3888C7.85078 20.42 7.92119 20.4353 7.99219 20.4335C8.0632 20.4316 8.13271 20.4127 8.19482 20.3782L9.76752 19.5093L11.3402 20.3782L11.3598 20.3888C11.4202 20.4175 11.4863 20.432 11.5531 20.4314C11.6276 20.4312 11.7008 20.4122 11.766 20.3761L13.3387 19.5071L14.9114 20.3761L14.9309 20.3867C14.9966 20.4181 15.069 20.4329 15.1417 20.4299C15.2145 20.4268 15.2853 20.406 15.3482 20.3693C15.4141 20.33 15.4689 20.2744 15.5071 20.2078C15.5452 20.1412 15.5656 20.0658 15.5662 19.9891V1.50028C15.566 1.42346 15.546 1.34797 15.5081 1.28114C15.4702 1.21431 15.4157 1.1584 15.3499 1.11881ZM14.6917 19.2427L13.5617 18.6186C13.4963 18.5822 13.4225 18.5631 13.3476 18.5631C13.2727 18.5631 13.1989 18.5822 13.1335 18.6186L11.5608 19.4875L9.9855 18.6186C9.92 18.5822 9.84629 18.5631 9.77135 18.5631C9.69641 18.5631 9.6227 18.5822 9.5572 18.6186L7.9845 19.4875L6.41138 18.6186C6.34596 18.5822 6.27232 18.5631 6.19744 18.5631C6.12256 18.5631 6.04893 18.5822 5.9835 18.6186L4.41038 19.4875L2.83513 18.6186C2.76998 18.5825 2.69675 18.5634 2.62225 18.5633C2.54776 18.5634 2.47452 18.5825 2.40938 18.6186L1.27903 19.2427L1.28159 1.75871L2.62694 1.01664L4.19964 1.88558L4.25583 1.91666L4.25967 1.91283C4.31936 1.93523 4.38321 1.94439 4.4468 1.93968C4.51038 1.93498 4.57219 1.91652 4.62794 1.88558L6.20063 1.01664L7.77333 1.88558L7.79292 1.89622C7.85667 1.92739 7.927 1.94269 7.99794 1.94084C8.06888 1.93899 8.13832 1.92003 8.20035 1.88558L9.77348 1.01664L11.3462 1.88558L11.3653 1.89622C11.4292 1.92739 11.4996 1.94269 11.5706 1.94084C11.6416 1.93899 11.7111 1.92003 11.7732 1.88558L13.3459 1.01664L14.6912 1.75871L14.6917 19.2427Z" fill="white"/>
<path d="M13.1624 4.21184C13.1623 4.28633 13.1326 4.35773 13.08 4.4104C13.0273 4.46308 12.9559 4.49272 12.8814 4.49283H3.08928C3.01479 4.49272 2.94339 4.46308 2.89071 4.4104C2.83804 4.35773 2.8084 4.28633 2.80829 4.21184C2.8084 4.13735 2.83804 4.06594 2.89071 4.01327C2.94339 3.9606 3.01479 3.93096 3.08928 3.93085H12.8814C12.9559 3.93096 13.0273 3.9606 13.08 4.01327C13.1326 4.06594 13.1623 4.13735 13.1624 4.21184Z" fill="white"/>
<path d="M10.6875 6.59815C10.6874 6.67263 10.6578 6.74404 10.6051 6.79671C10.5524 6.84938 10.481 6.87902 10.4065 6.87914H3.08971C3.01522 6.87902 2.94381 6.84938 2.89114 6.79671C2.83847 6.74404 2.80883 6.67263 2.80872 6.59815C2.80883 6.52366 2.83847 6.45225 2.89114 6.39958C2.94381 6.34691 3.01522 6.31727 3.08971 6.31715H10.4065C10.481 6.31727 10.5524 6.34691 10.6051 6.39958C10.6578 6.45225 10.6874 6.52366 10.6875 6.59815Z" fill="white"/>
<path d="M12.4305 8.98486C12.4304 9.05935 12.4008 9.13076 12.3481 9.18343C12.2954 9.2361 12.224 9.26574 12.1495 9.26586H3.08971C3.01522 9.26574 2.94381 9.2361 2.89114 9.18343C2.83847 9.13076 2.80883 9.05935 2.80872 8.98486C2.80883 8.91038 2.83847 8.83897 2.89114 8.7863C2.94381 8.73363 3.01522 8.70399 3.08971 8.70387H12.1495C12.224 8.70399 12.2954 8.73363 12.3481 8.7863C12.4008 8.83897 12.4304 8.91038 12.4305 8.98486Z" fill="white"/>
<path d="M11.4364 11.3712C11.4363 11.4456 11.4067 11.517 11.354 11.5697C11.3013 11.6224 11.2299 11.652 11.1554 11.6521H3.08971C3.01522 11.652 2.94381 11.6224 2.89114 11.5697C2.83847 11.517 2.80883 11.4456 2.80872 11.3712C2.80883 11.2967 2.83847 11.2253 2.89114 11.1726C2.94381 11.1199 3.01522 11.0903 3.08971 11.0902H11.1554C11.2299 11.0903 11.3013 11.1199 11.354 11.1726C11.4067 11.2253 11.4363 11.2967 11.4364 11.3712Z" fill="white"/>
<path d="M8.4775 13.7579C8.47739 13.8324 8.44775 13.9038 8.39507 13.9564C8.3424 14.0091 8.271 14.0388 8.19651 14.0389H3.08971C3.01522 14.0388 2.94381 14.0091 2.89114 13.9564C2.83847 13.9038 2.80883 13.8324 2.80872 13.7579C2.80883 13.6834 2.83847 13.612 2.89114 13.5593C2.94381 13.5066 3.01522 13.477 3.08971 13.4769H8.19864C8.27276 13.4776 8.34362 13.5074 8.39583 13.5601C8.44804 13.6127 8.47739 13.6838 8.4775 13.7579Z" fill="white"/>
<path d="M10.2116 16.142C10.2114 16.2165 10.1818 16.2879 10.1291 16.3406C10.0765 16.3933 10.0051 16.4229 9.93056 16.423H3.08971C3.01522 16.4229 2.94381 16.3933 2.89114 16.3406C2.83847 16.2879 2.80883 16.2165 2.80872 16.142C2.80883 16.0676 2.83847 15.9961 2.89114 15.9435C2.94381 15.8908 3.01522 15.8612 3.08971 15.8611H9.92971C9.96667 15.861 10.0033 15.8682 10.0374 15.8823C10.0716 15.8964 10.1027 15.9171 10.1288 15.9432C10.155 15.9693 10.1758 16.0003 10.19 16.0344C10.2042 16.0685 10.2115 16.1051 10.2116 16.142Z" fill="white"/>
</svg>
