<svg width="18" height="22" viewBox="0 0 18 22" fill="none" xmlns="http://www.w3.org/2000/svg">
<path d="M7.18185 14.6431C7.25753 14.6832 7.34635 14.6914 7.42818 14.6655C7.51 14.6397 7.57797 14.582 7.61681 14.5056C7.65708 14.4298 7.66508 14.341 7.63923 14.2591C7.61339 14.1775 7.55569 14.1095 7.4793 14.0705C5.94523 13.2496 4.79588 11.8579 4.27938 10.1963C3.76289 8.53489 3.92082 6.73693 4.71904 5.19073C5.51727 3.64467 6.8917 2.47489 8.54534 1.93382C10.1989 1.39276 11.9991 1.524 13.5568 2.29924C15.118 3.10661 16.2947 4.50074 16.8287 6.17525C17.3625 7.84984 17.2095 9.66791 16.4036 11.2298C16.0399 11.9374 15.5486 12.5718 14.9546 13.1011C14.978 13.0188 14.9676 12.9304 14.9255 12.8559C14.8835 12.7813 14.8132 12.7268 14.7307 12.7044C14.6479 12.6799 14.5588 12.6898 14.4835 12.7321C14.4083 12.7742 14.3531 12.845 14.3309 12.9283L14.0686 13.8718C14.0696 13.8793 14.0696 13.8868 14.0686 13.8943C14.046 13.9809 14.0587 14.0729 14.1037 14.1502C14.1511 14.2274 14.2289 14.2808 14.318 14.2974L15.3127 14.4957V14.4956C15.334 14.4987 15.3556 14.4987 15.3767 14.4956C15.5535 14.5133 15.711 14.3845 15.7286 14.2077C15.7463 14.0311 15.6175 13.8736 15.4407 13.8559L15.1208 13.7919C15.8941 13.175 16.5302 12.4037 16.9889 11.5273C17.8757 9.81417 18.0457 7.81869 17.4614 5.9803C16.8771 4.14195 15.5865 2.61088 13.8734 1.72411C12.1603 0.837188 10.1648 0.667276 8.32641 1.25144C6.4879 1.83575 4.95684 3.12635 4.06984 4.83947C3.18293 6.55244 3.01287 8.54769 3.59703 10.3861C4.18119 12.2246 5.4718 13.7558 7.18491 14.6426L7.18185 14.6431Z" fill="white"/>
<path d="M1.31538 20.2983H3.05551V14.4545H0.822754L1.31538 20.2983Z" fill="white"/>
<path d="M16.8384 16.7253C16.7949 16.7221 16.7509 16.7221 16.7074 16.7253L12.3221 17.6722L12.2837 17.7713H12.2838C12.1662 18.0616 11.9434 18.2969 11.6601 18.4302C11.4999 18.5054 11.3253 18.5447 11.1483 18.5454H8.9093C8.76079 18.5454 8.64056 18.425 8.64056 18.2766C8.6397 18.2051 8.66769 18.1363 8.71824 18.0857C8.76893 18.0352 8.83776 18.0072 8.9093 18.008H11.1483C11.2447 18.0079 11.3398 17.9861 11.4265 17.9441C11.6404 17.8497 11.7921 17.6535 11.8296 17.4226C11.8328 17.4067 11.8328 17.3904 11.8296 17.3746C11.8409 17.3252 11.8409 17.2738 11.8296 17.2244C11.8189 17.052 11.7451 16.8897 11.6224 16.7681C11.4998 16.6466 11.3367 16.5745 11.1643 16.5654L8.80692 16.4886V16.4887C8.59173 16.483 8.38024 16.4319 8.18632 16.3383L5.9824 15.0813H5.98254C5.87587 15.0217 5.75593 14.9899 5.63383 14.9885H3.59314V19.6874H4.0858H4.08566C4.22731 19.6872 4.36783 19.7111 4.50148 19.7576L9.23875 21.3569H9.2389C9.323 21.3618 9.4074 21.3618 9.49151 21.3569C9.75097 21.3579 10.0076 21.3022 10.2432 21.1939L17.1522 17.9952C17.3056 17.9227 17.4215 17.7893 17.4721 17.6274C17.5371 17.4116 17.5055 17.1785 17.3858 16.9877C17.2592 16.8139 17.0537 16.7154 16.8388 16.7253L16.8384 16.7253Z" fill="white"/>
<path d="M14.8176 5.17085H6.24991C6.09655 5.17085 5.98157 5.29546 5.98157 5.43919V10.806C5.98157 10.9594 6.10617 11.0743 6.24991 11.0743H14.808C14.9614 11.0743 15.0764 10.9497 15.0764 10.806L15.0765 5.44878C15.086 5.29542 14.9614 5.17089 14.8177 5.17089L14.8176 5.17085ZM14.5397 10.5472H6.5278V5.71712H14.5397V10.5472Z" fill="white"/>
<path d="M14.003 10.0105V6.25378H11.5784C11.9713 6.69466 12.2205 7.3655 12.2205 8.13217C12.2205 8.89884 11.9713 9.5697 11.5784 10.0105H14.003Z" fill="white"/>
<path d="M8.847 8.13217C8.847 7.36546 9.09616 6.69463 9.4891 6.25378H7.06445V10.0105H9.49868C9.09617 9.56974 8.84703 8.89891 8.84703 8.13217H8.847Z" fill="white"/>
<path d="M10.5241 9.56012C10.5337 9.56968 10.5529 9.57931 10.5721 9.57931H10.9458C10.9746 9.57931 10.9938 9.56012 11.0033 9.541C11.0129 9.52182 11.0129 9.49307 10.9938 9.47388L10.16 8.63051H10.2175C10.6104 8.63051 10.9554 8.35262 11.0417 7.97886H11.3388C11.3771 7.97886 11.4059 7.95012 11.4059 7.91174V7.66259C11.4059 7.62428 11.3771 7.59547 11.3388 7.59547H11.0417C11.0225 7.49005 10.9746 7.40382 10.9171 7.31758H11.3388C11.3771 7.31758 11.4059 7.28883 11.4059 7.25046V7.00131C11.4059 6.963 11.3771 6.93419 11.3388 6.93419H9.73826C9.69995 6.93419 9.67114 6.96293 9.67114 7.00131V7.26965C9.67114 7.30795 9.69989 7.33676 9.73826 7.33676H10.2174C10.3899 7.33676 10.5529 7.43263 10.6199 7.59554H9.73826C9.69995 7.59554 9.67114 7.62428 9.67114 7.66266V7.91181C9.67114 7.95012 9.69989 7.97893 9.73826 7.97893H10.6199C10.5433 8.13228 10.3899 8.2377 10.2174 8.2377H9.73826C9.69995 8.2377 9.67114 8.26645 9.67114 8.30482V8.68813C9.67114 8.70732 9.6807 8.71688 9.69033 8.73606L10.5241 9.56012Z" fill="white"/>
</svg>
