<svg width="19" height="21" viewBox="0 0 19 21" fill="none" xmlns="http://www.w3.org/2000/svg">
<path d="M6.10308 0.73517C5.96536 0.734897 5.83146 0.781167 5.72336 0.866475L2.74469 3.13691L1.99588 2.18502C1.89788 2.05166 1.7502 1.96376 1.58625 1.94124C1.42233 1.91872 1.25622 1.96362 1.126 2.06558C0.995645 2.16754 0.912385 2.31796 0.894778 2.48244C0.877307 2.64705 0.927263 2.81166 1.03318 2.93875L2.15814 4.3647H2.15828C2.25751 4.49137 2.40274 4.57381 2.56228 4.59415C2.72197 4.61449 2.88317 4.57108 3.01094 4.47335L6.46377 1.83753C6.60177 1.73489 6.69022 1.57888 6.70741 1.40757C6.72448 1.23641 6.66879 1.06593 6.55373 0.937911C6.43866 0.810016 6.27514 0.736312 6.10304 0.735219L6.10308 0.73517ZM8.86078 2.05368C8.64581 2.06883 8.45458 2.19576 8.35741 2.38808C8.26009 2.5804 8.271 2.80969 8.38621 2.99178C8.50141 3.17386 8.70382 3.2821 8.91935 3.27663H18.2279H18.2278C18.443 3.27186 18.6399 3.1542 18.7462 2.96707C18.8524 2.7798 18.8524 2.55049 18.7462 2.36323C18.6399 2.17597 18.443 2.05844 18.2278 2.05367H8.91957C8.90005 2.05271 8.88053 2.05271 8.86101 2.05367L8.86078 2.05368ZM6.10308 8.59484C5.9655 8.59415 5.8316 8.64002 5.72336 8.72492L2.74469 10.9953L1.99588 10.0435C1.89788 9.9101 1.7502 9.8222 1.58625 9.79968C1.42233 9.77716 1.25622 9.82206 1.126 9.92402C0.995645 10.026 0.912385 10.1764 0.894778 10.3409C0.877307 10.5055 0.927263 10.6701 1.03318 10.7972L2.15814 12.2231H2.15828C2.25751 12.3498 2.40274 12.4323 2.56228 12.4526C2.72197 12.4729 2.88317 12.4295 3.01094 12.3318L6.46377 9.69597C6.60122 9.59319 6.68899 9.43732 6.70591 9.26643C6.72284 9.09568 6.66701 8.92561 6.55236 8.79785C6.43771 8.6701 6.27473 8.59639 6.10304 8.59489L6.10308 8.59484ZM8.91934 9.91212C8.70409 9.9169 8.50713 10.0344 8.40094 10.2217C8.29461 10.409 8.29461 10.6383 8.40094 10.8255C8.50714 11.0127 8.70409 11.1303 8.91934 11.1351H18.2279H18.2278C18.3924 11.1388 18.5514 11.076 18.6691 10.9608C18.7867 10.8457 18.8531 10.6882 18.8531 10.5236C18.8531 10.359 18.7867 10.2013 18.6691 10.0863C18.5514 9.97119 18.3924 9.90841 18.2278 9.91209L8.91934 9.91212ZM6.10308 16.4533C5.9655 16.4526 5.8316 16.4985 5.72336 16.5834L2.74469 18.8538L1.99588 17.9019C1.89788 17.7685 1.7502 17.6806 1.58625 17.6581C1.42233 17.6356 1.25622 17.6805 1.126 17.7825C0.995645 17.8844 0.912385 18.0348 0.894778 18.1993C0.877307 18.3639 0.927263 18.5286 1.03318 18.6556L2.15814 20.0816H2.15828C2.25751 20.2083 2.40274 20.2907 2.56228 20.311C2.72197 20.3314 2.88317 20.288 3.01094 20.1902L6.46377 17.5544C6.60122 17.4516 6.68899 17.2958 6.70591 17.1249C6.72284 16.9541 6.66701 16.7841 6.55236 16.6563C6.43771 16.5285 6.27473 16.4548 6.10304 16.4533L6.10308 16.4533ZM8.91934 17.7706C8.70055 17.7706 8.49854 17.8873 8.3892 18.0766C8.27987 18.266 8.27987 18.4993 8.3892 18.6886C8.49853 18.8781 8.70054 18.9948 8.91934 18.9948H18.2279H18.2278C18.4464 18.9948 18.6486 18.8781 18.7579 18.6886C18.8673 18.4993 18.8673 18.266 18.7579 18.0766C18.6486 17.8873 18.4465 17.7706 18.2278 17.7706H8.91934Z" fill="white"/>
</svg>
