<svg width="42" height="38" viewBox="0 0 42 38" fill="none" xmlns="http://www.w3.org/2000/svg">
<path d="M4.78494 13.7566C4.07748 13.7566 3.50366 14.3304 3.50366 15.0379V35.9978C3.50366 36.7053 4.0775 37.2791 4.78494 37.2791C5.49238 37.2791 6.06622 36.7052 6.06622 35.9978V15.0379C6.06622 14.33 5.49238 13.7566 4.78494 13.7566Z" fill="#F59F23"/>
<path d="M37.2659 13.7566C36.5584 13.7566 35.9846 14.3304 35.9846 15.0379V35.9978C35.9846 36.7053 36.5585 37.2791 37.2659 37.2791C37.9733 37.2791 38.5472 36.7052 38.5472 35.9978L38.5476 15.0379C38.5476 14.33 37.9738 13.7566 37.2659 13.7566H37.2659Z" fill="#F59F23"/>
<path d="M40.7658 8.79466L21.5461 0.270192C21.2154 0.123152 20.8377 0.123152 20.507 0.270192L1.28613 8.7942C0.639451 9.08112 0.347614 9.83819 0.634531 10.4848C0.921449 11.1324 1.67852 11.4247 2.32517 11.1364L21.0266 2.84354L39.7281 11.1374C39.8971 11.2124 40.0727 11.2477 40.2465 11.2477C40.7377 11.2477 41.2065 10.9635 41.4183 10.4857C41.7061 9.83862 41.4138 9.08159 40.7667 8.79465L40.7658 8.79466Z" fill="#F59F23"/>
<path d="M15.926 27.8048C17.7062 27.8048 19.1537 26.3568 19.1537 24.5772C19.1537 22.7971 17.7057 21.3486 15.926 21.3486C14.1459 21.3486 12.6975 22.7971 12.6975 24.5772C12.698 26.3573 14.1459 27.8048 15.926 27.8048ZM15.926 23.9113C16.293 23.9113 16.5911 24.2098 16.5911 24.5772C16.5911 24.9441 16.2925 25.2422 15.926 25.2422C15.5591 25.2422 15.2601 24.9437 15.2601 24.5772C15.2606 24.2098 15.5591 23.9113 15.926 23.9113Z" fill="#F59F23"/>
<path d="M30.2962 21.3478H21.5818C20.8743 21.3478 20.3005 21.9216 20.3005 22.629V28.9493L11.553 28.9497V20.0633C11.553 19.3558 10.9792 18.782 10.2718 18.782C9.56431 18.782 8.99048 19.3558 8.99048 20.0633V33.5522C8.99048 34.2597 9.56431 34.8335 10.2718 34.8335C10.9792 34.8335 11.553 34.2597 11.553 33.5522V31.5121H30.4982V33.5522C30.4982 34.2597 31.072 34.8335 31.7795 34.8335C32.4869 34.8335 33.0608 34.2597 33.0608 33.5522V24.1125C33.0612 22.5876 31.821 21.3474 30.2962 21.3474V21.3478ZM22.8635 23.9108H30.2966C30.4079 23.9108 30.4986 24.0015 30.4986 24.1128V28.9501H22.8636L22.8635 23.9108Z" fill="#F59F23"/>
</svg>
