<svg width="43" height="33" viewBox="0 0 43 33" fill="none" xmlns="http://www.w3.org/2000/svg">
<rect x="5.3916" y="28.0176" width="35.1146" height="4.1928" fill="#F59F23"/>
<path d="M38.2498 2.82388H21.4962V1.98291H13.1202V2.82388H6.41924C5.30881 2.82509 4.2442 3.26669 3.45894 4.05181C2.67368 4.83693 2.23189 5.90146 2.23047 7.01188V20.4146C2.23128 21.0808 2.49629 21.7195 2.96739 22.1906C3.43849 22.6617 4.0772 22.9267 4.74342 22.9275H8.17915C8.37208 23.8735 8.88591 24.7237 9.63368 25.3344C10.3815 25.945 11.3172 26.2786 12.2827 26.2786C13.2481 26.2786 14.1839 25.945 14.9317 25.3344C15.6794 24.7237 16.1933 23.8735 16.3862 22.9275H26.6077C26.8007 23.8735 27.3145 24.7237 28.0623 25.3344C28.8101 25.945 29.7458 26.2786 30.7113 26.2786C31.6767 26.2786 32.6125 25.945 33.3603 25.3344C34.108 24.7237 34.6219 23.8735 34.8148 22.9275H36.5732C37.6837 22.9263 38.7485 22.4846 39.5337 21.6993C40.319 20.914 40.7607 19.8493 40.762 18.7388V5.33913C40.7615 4.67269 40.4968 4.03363 40.0259 3.5621C39.5549 3.09058 38.9162 2.82509 38.2498 2.82388ZM35.7353 7.84826V12.037H29.8715V7.84826H35.7353ZM28.1972 7.84826V12.037H22.3372V7.84826H28.1972ZM20.6583 7.84826V12.037H14.7945V7.84826H20.6583ZM3.90628 7.84826H9.76934V12.0363H3.90628V7.84826ZM12.2823 24.6049C11.7853 24.6049 11.2994 24.4575 10.8862 24.1814C10.4729 23.9052 10.1508 23.5128 9.96062 23.0536C9.77042 22.5944 9.72066 22.0891 9.81762 21.6017C9.91459 21.1142 10.1539 20.6664 10.5054 20.315C10.8568 19.9635 11.3046 19.7242 11.792 19.6272C12.2795 19.5303 12.7848 19.58 13.244 19.7702C13.7031 19.9604 14.0956 20.2825 14.3717 20.6958C14.6479 21.109 14.7952 21.5949 14.7952 22.0919C14.7944 22.7581 14.5294 23.3968 14.0583 23.8679C13.5872 24.339 12.9485 24.6041 12.2823 24.6049V24.6049ZM30.7109 24.6049C30.214 24.6049 29.7282 24.4575 29.315 24.1815C28.9018 23.9055 28.5797 23.5132 28.3894 23.0541C28.1992 22.5951 28.1493 22.0899 28.2461 21.6025C28.3428 21.1151 28.5819 20.6673 28.9332 20.3158C29.2844 19.9643 29.7319 19.7247 30.2192 19.6275C30.7065 19.5303 31.2117 19.5797 31.671 19.7696C32.1302 19.9594 32.5228 20.2812 32.7992 20.6941C33.0756 21.1071 33.2234 21.5927 33.2238 22.0896C33.2236 22.7562 32.9589 23.3955 32.4877 23.8671C32.0166 24.3387 31.3775 24.6041 30.7109 24.6049V24.6049Z" fill="#F59F23"/>
<path d="M9.76931 7.84863H3.90625V12.0366H9.76931V7.84863Z" fill="white"/>
<path d="M33.2237 22.0891C33.2237 22.5861 33.0763 23.072 32.8002 23.4853C32.524 23.8985 32.1316 24.2206 31.6724 24.4108C31.2132 24.601 30.7079 24.6508 30.2205 24.5538C29.733 24.4568 29.2852 24.2175 28.9338 23.8661C28.5823 23.5146 28.343 23.0668 28.246 22.5794C28.1491 22.0919 28.1988 21.5866 28.389 21.1275C28.5792 20.6683 28.9013 20.2758 29.3146 19.9997C29.7278 19.7236 30.2137 19.5762 30.7107 19.5762C31.3769 19.5772 32.0155 19.8423 32.4865 20.3133C32.9576 20.7844 33.2227 21.423 33.2237 22.0891V22.0891Z" fill="white"/>
<path d="M12.282 24.6021C13.6699 24.6021 14.795 23.477 14.795 22.0891C14.795 20.7013 13.6699 19.5762 12.282 19.5762C10.8941 19.5762 9.76904 20.7013 9.76904 22.0891C9.76904 23.477 10.8941 24.6021 12.282 24.6021Z" fill="white"/>
<path d="M20.6583 7.84766H14.7944V12.0364H20.6583V7.84766Z" fill="white"/>
<path d="M28.1968 7.84766H22.333V12.0364H28.1968V7.84766Z" fill="white"/>
<path d="M35.7349 7.84766H29.8711V12.0364H35.7349V7.84766Z" fill="white"/>
</svg>
