<svg width="60" height="39" viewBox="0 0 60 39" fill="none" xmlns="http://www.w3.org/2000/svg">
<path d="M53.0027 7.05208H18.1625C17.8189 7.05208 17.4894 7.18857 17.2464 7.43153C17.0034 7.67448 16.8669 8.00401 16.8669 8.3476V17.381C16.8669 17.7246 17.0034 18.0541 17.2464 18.297C17.4894 18.54 17.8189 18.6765 18.1625 18.6765H53.0039C53.3475 18.6765 53.677 18.54 53.92 18.297C54.1629 18.0541 54.2994 17.7246 54.2994 17.381V8.34289C54.2994 7.9993 54.1629 7.66977 53.92 7.42682C53.677 7.18386 53.3475 7.04736 53.0039 7.04736L53.0027 7.05208ZM19.4521 9.63253H28.4808V16.0854H19.4474L19.4521 9.63253ZM31.0659 9.63253H40.0993V16.0854H31.0718L31.0659 9.63253ZM51.7119 16.0854H42.6786V9.63253H51.7119V16.0854Z" fill="#F59F23"/>
<path d="M55.5844 1.89099H29.7763V0.595459H16.8728V1.89099H6.54983C4.83899 1.89286 3.19875 2.57332 1.989 3.78307C0.779253 4.99281 0.0987943 6.63305 0.0969238 8.34389V28.9911C0.0981705 30.0174 0.506436 31.0014 1.23217 31.7271C1.9579 32.4528 2.94185 32.8611 3.96819 32.8623H9.26101C9.55823 34.3196 10.3498 35.6294 11.5018 36.5702C12.6537 37.5109 14.0953 38.0247 15.5826 38.0247C17.0699 38.0247 18.5115 37.5109 19.6634 36.5702C20.8154 35.6294 21.607 34.3196 21.9042 32.8623H37.6507C37.9479 34.3196 38.7395 35.6294 39.8915 36.5702C41.0434 37.5109 42.485 38.0247 43.9723 38.0247C45.4596 38.0247 46.9012 37.5109 48.0532 36.5702C49.2051 35.6294 49.9967 34.3196 50.2939 32.8623H53.0027C54.7136 32.8605 56.3538 32.18 57.5636 30.9703C58.7733 29.7605 59.4538 28.1203 59.4556 26.4094V5.76697C59.4541 4.74052 59.0455 3.75657 58.3196 3.03087C57.5937 2.30517 56.6096 1.89694 55.5832 1.8957L55.5844 1.89099ZM11.7107 9.63353V16.0853H2.67856V9.63353H11.7107ZM15.582 35.4463C14.8163 35.4463 14.0679 35.2193 13.4312 34.7939C12.7946 34.3685 12.2984 33.7639 12.0054 33.0565C11.7124 32.3491 11.6358 31.5708 11.7851 30.8198C11.9345 30.0689 12.3032 29.3791 12.8446 28.8377C13.386 28.2962 14.0758 27.9275 14.8268 27.7782C15.5777 27.6288 16.3561 27.7055 17.0635 27.9985C17.7709 28.2915 18.3755 28.7877 18.8009 29.4243C19.2262 30.0609 19.4533 30.8094 19.4533 31.5751C19.452 32.6014 19.0438 33.5853 18.318 34.3111C17.5923 35.0368 16.6084 35.4451 15.582 35.4463V35.4463ZM43.9717 35.4463C43.2062 35.4463 42.4579 35.2194 41.8213 34.7941C41.1848 34.3689 40.6886 33.7645 40.3955 33.0573C40.1024 32.3502 40.0255 31.572 40.1746 30.8211C40.3237 30.0702 40.692 29.3805 41.2331 28.8389C41.7741 28.2974 42.4636 27.9284 43.2143 27.7786C43.965 27.6288 44.7433 27.705 45.4508 27.9975C46.1582 28.2899 46.7631 28.7856 47.1889 29.4217C47.6147 30.0579 47.8423 30.806 47.843 31.5715C47.8427 32.5985 47.4348 33.5833 46.709 34.3098C45.9832 35.0363 44.9987 35.4451 43.9717 35.4463V35.4463ZM56.8752 26.413C56.8739 27.4393 56.4657 28.4233 55.7399 29.149C55.0142 29.8747 54.0302 30.283 53.0039 30.2842H50.2951C49.9979 28.827 49.2063 27.5171 48.0543 26.5764C46.9024 25.6357 45.4608 25.1218 43.9735 25.1218C42.4862 25.1218 41.0446 25.6357 39.8927 26.5764C38.7407 27.5171 37.9491 28.827 37.6519 30.2842H21.903C21.6058 28.827 20.8142 27.5171 19.6623 26.5764C18.5103 25.6357 17.0687 25.1218 15.5814 25.1218C14.0941 25.1218 12.6525 25.6357 11.5006 26.5764C10.3486 27.5171 9.55705 28.827 9.25984 30.2842H3.96819C3.6246 30.2842 3.29508 30.1477 3.05212 29.9048C2.80916 29.6618 2.67267 29.3323 2.67267 28.9887V25.1186H6.54394V22.537H2.67738V18.6657H13.0004C13.344 18.6657 13.6735 18.5292 13.9165 18.2863C14.1594 18.0433 14.2959 17.7138 14.2959 17.3702V8.34389C14.2959 8.0003 14.1594 7.67077 13.9165 7.42782C13.6735 7.18486 13.344 7.04836 13.0004 7.04836H2.91528C3.18125 6.29659 3.67316 5.64544 4.3236 5.18412C4.97405 4.7228 5.75122 4.47387 6.54865 4.47144H55.5832C55.9268 4.47144 56.2563 4.60794 56.4993 4.85089C56.7422 5.09385 56.8787 5.42337 56.8787 5.76697L56.8752 26.413Z" fill="#F59F23"/>
</svg>
