<svg width="43" height="32" viewBox="0 0 43 32" fill="none" xmlns="http://www.w3.org/2000/svg">
<rect x="5.40869" y="27.0176" width="35.1146" height="4.1928" fill="#F59F23"/>
<path d="M41.9566 13.7868C41.9132 12.8287 41.1291 12.045 40.1709 11.9577L32.4189 11.3046L26.6701 5.46885C25.8863 4.68478 24.7976 4.20573 23.7088 4.20573L22.9685 1.67979C22.8379 1.24416 22.446 0.98291 22.0104 0.98291L16.2181 0.983214C15.7825 0.983214 15.3906 1.28822 15.26 1.68009L14.5197 4.20603H14.3019C12.9519 4.20603 11.6887 4.85917 10.9049 5.99169L7.15957 11.2174L2.67385 11.4786C1.67227 11.5221 0.844727 12.3933 0.844727 13.3949V18.0112C0.844727 19.1 1.71566 19.9709 2.80443 19.9709H6.63696C6.81103 22.2356 8.72732 24.0648 11.0355 24.0648C13.3437 24.0648 15.2599 22.2791 15.434 19.9709L27.6282 19.9712C27.8023 22.2359 29.7186 24.0651 32.0268 24.0651C34.3349 24.0651 36.2512 22.2794 36.4253 19.9712H40.2581C41.3904 19.9712 42.2616 19.0131 42.1744 17.9244L41.9566 13.7868ZM11.0356 21.713C9.8597 21.713 8.90158 20.7549 8.90158 19.579C8.90158 18.403 9.8597 17.4449 11.0356 17.4449C12.2116 17.4449 13.1697 18.403 13.1697 19.579C13.1697 20.7984 12.2116 21.713 11.0356 21.713ZM17.307 11.0431H11.0794L13.3876 7.77683C13.6054 7.51558 13.9101 7.3412 14.2585 7.3412H17.307V11.0431ZM20.3993 11.0431V7.34117H23.709C24.014 7.34117 24.2753 7.4718 24.4494 7.64617L27.8028 11.0431L20.3993 11.0431ZM32.0273 21.713C30.8513 21.713 29.8932 20.7549 29.8932 19.579C29.8932 18.403 30.8513 17.4449 32.0273 17.4449C33.2032 17.4449 34.1613 18.403 34.1613 19.579C34.161 20.7984 33.2029 21.713 32.0273 21.713V21.713Z" fill="#F59F23"/>
</svg>
