<svg width="78" height="46" viewBox="0 0 78 46" fill="none" xmlns="http://www.w3.org/2000/svg">
<path d="M55.1724 35.7683C55.1724 37.3029 56.425 38.5555 57.9597 38.5555C59.5069 38.5555 60.7464 37.367 60.7469 35.7683H55.1724ZM55.1724 35.7683C55.1724 34.2336 56.425 32.981 57.9597 32.981M55.1724 35.7683L57.9597 32.981M57.9597 32.981C59.4942 32.981 60.7468 34.2335 60.7469 35.768L57.9597 32.981ZM72.5027 21.2471L72.4959 21.2465L59.1074 20.1185L49.1648 10.0256L49.1596 10.0205C47.7745 8.63473 45.9057 7.7159 43.9571 7.52346L42.8429 3.72183L42.8411 3.71586C42.4718 2.48442 41.3596 1.76636 40.1829 1.76636L29.9036 1.7669C29.9036 1.7669 29.9036 1.7669 29.9035 1.7669C28.6774 1.76692 27.6151 2.60549 27.2545 3.68751L27.2488 3.70484L27.2436 3.72237L26.1381 7.49425C23.5561 7.60633 21.1647 8.90514 19.6569 11.0793L13.2929 19.9586L5.81578 20.3941C3.50258 20.4987 1.62085 22.4877 1.62085 24.7936V32.986C1.62085 35.4705 3.61419 37.4639 6.09868 37.4639H12.0238C12.7824 41.5564 16.395 44.7291 20.7061 44.7291C25.0152 44.7291 28.6371 41.6225 29.391 37.4639L49.2764 37.4644C50.035 41.5569 53.6476 44.7296 57.9587 44.7296C62.2678 44.7296 65.8897 41.623 66.6436 37.4644H72.5667C75.1501 37.4644 77.1583 35.2793 76.9655 32.7666L76.5799 25.4438C76.5798 25.4426 76.5798 25.4414 76.5797 25.4402C76.4771 23.2169 74.674 21.4449 72.5027 21.2471ZM20.7064 38.5555C19.1717 38.5555 17.9191 37.3029 17.9191 35.7683C17.9191 34.2336 19.1717 32.981 20.7064 32.981C22.241 32.981 23.4936 34.2336 23.4936 35.7683C23.4936 37.3668 22.2544 38.5555 20.7064 38.5555ZM30.836 19.6199H22.7152L25.6712 15.4371C25.9026 15.1718 26.1701 15.0502 26.426 15.0502H30.836V19.6199ZM38.3237 19.6199V15.0502H43.1975C43.4481 15.0502 43.6628 15.1577 43.802 15.2963C43.8025 15.2969 43.8031 15.2974 43.8036 15.298L48.0702 19.6199L38.3237 19.6199Z" stroke="#F59F23" stroke-width="2"/>
</svg>
