<svg width="33" height="36" viewBox="0 0 33 36" fill="none" xmlns="http://www.w3.org/2000/svg">
<path fill-rule="evenodd" clip-rule="evenodd" d="M1.92832 2.57169C1.92809 2.2339 1.99444 1.89938 2.12359 1.58726C2.25275 1.27514 2.44217 0.991547 2.68102 0.752696C2.91987 0.513845 3.20347 0.324425 3.51559 0.19527C3.8277 0.0661155 4.16223 -0.000238328 4.50001 6.43192e-07H6.86269C7.20048 -0.000238328 7.535 0.0661155 7.84712 0.19527C8.15924 0.324425 8.44283 0.513845 8.68168 0.752696C8.92053 0.991547 9.10995 1.27514 9.23911 1.58726C9.36826 1.89938 9.43462 2.2339 9.43438 2.57169V6.75182L14.9594 3.44043C15.3594 3.20047 15.817 3.07371 16.2834 3.07371C16.7498 3.07371 17.2075 3.20047 17.6074 3.44043L31.3201 11.6771C31.7008 11.9055 32.0159 12.2286 32.2347 12.615C32.4535 13.0013 32.5686 13.4377 32.5687 13.8817V33.4283C32.5677 34.1082 32.2976 34.76 31.8174 35.2412C31.3372 35.7225 30.6859 35.994 30.0061 35.9964H23.7831C23.1017 35.9964 22.4481 35.7259 21.9659 35.2444C21.4838 34.7629 21.2124 34.1097 21.2114 33.4283V22.4182C21.2114 22.1912 21.1213 21.9735 20.9607 21.8129C20.8002 21.6524 20.5825 21.5622 20.3554 21.5622H12.2133C12.1007 21.562 11.9892 21.5839 11.8851 21.6268C11.7811 21.6697 11.6865 21.7328 11.6068 21.8123C11.5271 21.8918 11.4639 21.9862 11.4208 22.0902C11.3776 22.1942 11.3554 22.3057 11.3554 22.4182V33.4283C11.3557 33.7661 11.2893 34.1006 11.1602 34.4127C11.031 34.7249 10.8416 35.0085 10.6027 35.2473C10.3639 35.4862 10.0803 35.6756 9.76816 35.8047C9.45604 35.9339 9.12152 36.0002 8.78374 36H2.56261C1.88199 35.9981 1.22992 35.7262 0.749496 35.2441C0.269071 34.762 -0.000473983 34.1089 1.00898e-05 33.4283V13.8453C-0.00120779 13.4103 0.107845 12.9822 0.316976 12.6008C0.526107 12.2194 0.828495 11.8972 1.19589 11.6644L1.92287 11.2027L1.92832 2.57169ZM3.64218 10.1832V2.57169C3.64218 2.34418 3.73255 2.12598 3.89343 1.96511C4.0543 1.80423 4.2725 1.71385 4.50001 1.71385H6.86269C7.09021 1.71385 7.3084 1.80423 7.46928 1.96511C7.63015 2.12598 7.72053 2.34418 7.72053 2.57169V7.78049L3.64218 10.1832ZM3.23143 12.415L2.11188 13.122C1.98976 13.1999 1.88927 13.3074 1.8197 13.4344C1.75013 13.5615 1.71373 13.7041 1.71386 13.8489V33.4283C1.71433 33.6538 1.80374 33.8699 1.96265 34.0299C2.12157 34.1898 2.33716 34.2806 2.56261 34.2825H8.77647C8.89025 34.2849 9.00337 34.2646 9.10921 34.2228C9.21506 34.181 9.3115 34.1185 9.39289 34.0389C9.47429 33.9594 9.53902 33.8644 9.58327 33.7596C9.62753 33.6547 9.65044 33.5421 9.65066 33.4283V22.42C9.65042 22.0822 9.71678 21.7477 9.84593 21.4356C9.97509 21.1235 10.1645 20.8399 10.4034 20.601C10.6422 20.3622 10.9258 20.1728 11.2379 20.0436C11.55 19.9145 11.8846 19.8481 12.2223 19.8483H20.3645C21.0436 19.8527 21.6933 20.1256 22.1718 20.6074C22.6502 21.0893 22.9185 21.741 22.918 22.42V33.4283C22.9185 33.6555 23.0091 33.8732 23.1699 34.0337C23.3307 34.1942 23.5487 34.2843 23.7759 34.2843H30.0061C30.2333 34.2843 30.4512 34.1942 30.612 34.0337C30.7728 33.8732 30.8634 33.6555 30.8639 33.4283V13.8726C30.8625 13.7259 30.8234 13.5821 30.7506 13.4548C30.6777 13.3276 30.5734 13.2211 30.4477 13.1456L16.726 4.89439C16.5923 4.81504 16.4398 4.77316 16.2843 4.77316C16.1289 4.77316 15.9764 4.81504 15.8427 4.89439L9.00547 9.00182L3.23143 12.415Z" fill="#F59F23"/>
</svg>
