<svg width="69" height="36" viewBox="0 0 69 36" fill="none" xmlns="http://www.w3.org/2000/svg">
<path d="M62.4302 12.7085L62.2227 12.6504L62.2088 12.652C60.936 12.3361 59.634 12.1486 58.3225 12.0937C57.0174 11.9548 55.7019 11.9367 54.3932 12.0404H54.3801L54.3243 12.0462C50.2789 12.4656 43.825 14.5034 43.4319 14.6285L43.4279 14.6298C39.0921 11.4981 34.7518 8.37266 30.4071 5.25374L30.4069 5.25362C30.0177 4.97433 29.6272 4.69242 29.2354 4.40957C28.2156 3.67333 27.1869 2.93069 26.1487 2.2111L26.1164 2.18874L26.0826 2.16878C25.2841 1.69692 24.3569 1.4901 23.4338 1.57765L23.4332 1.57771C22.5102 1.66583 21.6387 2.04365 20.9435 2.65778L20.9266 2.67263L20.9105 2.68816C20.2532 3.319 19.8393 4.16196 19.7428 5.06854C19.6788 5.666 19.7554 6.26558 19.961 6.82131L19.9227 6.85965L20.1482 7.24657C20.2103 7.36757 20.2791 7.48565 20.3543 7.60026C20.7266 8.23928 21.0988 8.87832 21.4709 9.5173C23.3221 12.696 25.1723 15.8732 27.045 19.039C22.2018 20.321 17.363 21.6185 12.5278 22.9318L12.5128 22.9359C11.3357 22.0577 10.1447 21.1826 8.95707 20.31C8.10628 19.6849 7.25728 19.0611 6.41655 18.4384L6.41659 18.4384L6.40687 18.4313C5.7858 17.9819 5.03065 17.7558 4.26347 17.7917L4.26343 17.7917C3.49763 17.8274 2.76657 18.1216 2.18927 18.6274L2.16943 18.6447L2.15046 18.6631C1.83969 18.9632 1.60805 19.3365 1.47701 19.7485L1.46018 19.8015L1.44884 19.8558C1.25367 20.7918 1.47403 21.765 2.05085 22.5248C3.19585 24.3834 4.43182 26.2185 5.65362 28.0325C6.31375 29.0126 6.96973 29.9865 7.605 30.9547L7.60494 30.9548L7.61167 30.9648C7.67831 31.0639 7.74521 31.1653 7.81309 31.2682C8.45669 32.2436 9.18695 33.3503 10.5936 33.9056L10.6127 33.9131L10.632 33.92C11.7175 34.3017 12.8941 34.3393 14.0012 34.0287C18.4278 32.9205 30.7021 29.5919 37.6681 27.7028C39.597 27.1797 41.1189 26.767 41.9545 26.5423C42.8629 26.2988 44.1462 25.9859 45.6422 25.6212C48.2134 24.9943 51.4131 24.2142 54.4183 23.3694C56.8314 22.691 59.2049 21.9494 61.18 21.17C63.1025 20.4113 64.8239 19.5521 65.7712 18.5735L65.8061 18.5374L65.8376 18.4983C65.8437 18.4906 65.8573 18.475 65.8767 18.4525C65.986 18.3265 66.2809 17.9862 66.4964 17.6376C66.7577 17.2147 67.0814 16.5206 66.926 15.7115L66.9249 15.7058C66.6982 14.5588 65.678 13.9207 64.9287 13.5647C64.1276 13.184 63.1826 12.9193 62.4717 12.7201L62.4302 12.7085Z" stroke="#F59F23" stroke-width="2.16911"/>
</svg>
