<svg width="44" height="40" viewBox="0 0 44 40" fill="none" xmlns="http://www.w3.org/2000/svg">
<path d="M3.60129 39.4731H40.9986C42.4717 39.4731 43.6699 38.2749 43.6699 36.8018V36.1339C43.6699 35.7645 43.3715 35.4661 43.0021 35.4661H42.3343V32.1335C42.3337 21.8389 34.5278 13.3371 24.5248 12.2274C24.8053 11.8046 24.9702 11.299 24.9702 10.7548C24.9702 9.28171 23.772 8.0835 22.2989 8.0835C20.8257 8.0835 19.6275 9.28171 19.6275 10.7548C19.6275 11.2992 19.7924 11.8046 20.0735 12.2274C10.0713 13.3391 2.26712 21.8396 2.26636 32.1327V35.4653H1.59704C1.22764 35.4653 0.929199 35.7638 0.929199 36.1332V36.801C0.929199 38.2747 2.12741 39.4729 3.60054 39.4729L3.60129 39.4731ZM22.2992 9.41894C23.0359 9.41894 23.6349 10.0179 23.6349 10.7546C23.6349 11.4913 23.0359 12.0903 22.2992 12.0903C21.5625 12.0903 20.9635 11.4913 20.9635 10.7546C20.9635 10.0182 21.5625 9.41894 22.2992 9.41894ZM3.60282 32.1345C3.60282 21.8247 11.9908 13.4366 22.3007 13.4366C32.6106 13.4366 40.9986 21.8247 40.9986 32.1345V35.4657H3.60206L3.60282 32.1345ZM42.3343 36.8019C42.3343 37.5386 41.7353 38.1376 40.9986 38.1376H3.60129C2.86459 38.1376 2.26562 37.5386 2.26562 36.8019H42.3343Z" fill="#F59F23"/>
<path d="M22.2916 14.7615C21.9222 14.7615 21.6238 15.0599 21.6238 15.4293C21.6238 15.7987 21.9222 16.0971 22.2916 16.0971C31.1338 16.0971 38.3281 23.2904 38.3281 32.1336C38.3281 32.503 38.6265 32.8015 38.9959 32.8015C39.3653 32.8015 39.6638 32.503 39.6638 32.1336C39.6638 22.5549 31.8703 14.7615 22.2916 14.7615V14.7615Z" fill="#F59F23"/>
<path d="M12.4727 10.5652C12.6036 10.7008 12.7786 10.7694 12.9536 10.7694C13.1206 10.7694 13.2881 10.7074 13.4172 10.5825C14.2547 9.77359 15.3486 7.57064 13.4933 5.02004C11.9017 2.83229 13.2547 1.36633 13.4199 1.20147C13.6832 0.94447 13.6891 0.523496 13.4339 0.259934C13.1781 -0.00451422 12.7542 -0.0131618 12.4897 0.243238C11.6522 1.05212 10.5583 3.25506 12.4137 5.80567C14.0085 7.99823 12.6468 9.46472 12.4897 9.62157C12.2244 9.87678 12.2169 10.2995 12.4727 10.5652L12.4727 10.5652Z" fill="#F59F23"/>
<path d="M31.149 10.5652C31.2799 10.7008 31.4549 10.7694 31.6299 10.7694C31.7969 10.7694 31.9644 10.7074 32.0935 10.5825C32.931 9.77359 34.0249 7.57064 32.1695 5.02004C30.578 2.83229 31.931 1.36633 32.0962 1.20147C32.3594 0.94447 32.3654 0.523496 32.1102 0.259934C31.8544 -0.00451422 31.4304 -0.0131618 31.166 0.243238C30.3285 1.05212 29.2346 3.25506 31.09 5.80567C32.6848 7.99823 31.3231 9.46472 31.166 9.62157C30.9006 9.87678 30.8932 10.2995 31.149 10.5652L31.149 10.5652Z" fill="#F59F23"/>
<path d="M22.7818 0.259201C22.526 -0.00524665 22.1021 -0.0138942 21.8376 0.242505C21.0001 1.05139 19.9062 3.25433 21.7616 5.80493C21.8919 5.98531 22.0955 6.08012 22.3024 6.08012C22.4387 6.08012 22.5755 6.03808 22.6945 5.95251C22.9929 5.73607 23.0591 5.31807 22.8421 5.02021C21.25 2.83093 22.6056 1.36444 22.7693 1.20072C23.0302 0.943726 23.037 0.522752 22.7818 0.25919L22.7818 0.259201Z" fill="#F59F23"/>
</svg>
