<svg width="37" height="36" viewBox="0 0 37 36" fill="none" xmlns="http://www.w3.org/2000/svg">
<path d="M18.4727 0C8.54569 0 0.472656 8.07708 0.472656 18C0.472656 27.9229 8.54569 36 18.4727 36C28.3996 36 36.4727 27.9229 36.4727 18C36.4727 8.07708 28.3996 0 18.4727 0ZM8.74052 18C8.73872 16.3858 8.87404 14.7744 9.14502 13.1831H17.9091V23.4674H9.26906C8.91646 21.6663 8.73945 19.8353 8.74052 18V18ZM19.0369 1.1582C22.9511 1.55056 26.2538 5.97034 27.5812 12.0587H19.0369V1.1582ZM17.9084 12.0593H9.36412C10.6915 5.96697 13.9936 1.55056 17.9084 1.1582V12.0593ZM17.9084 24.5933V34.8404C14.1331 34.4663 10.9302 30.3458 9.51513 24.5933H17.9084ZM19.0369 24.5933H27.4302C26.0145 30.3472 22.8122 34.4683 19.0369 34.8404V24.5933ZM19.0369 23.4688V13.1838H27.801C28.0719 14.7749 28.2073 16.386 28.2055 18C28.2086 19.8358 28.0316 21.6675 27.6769 23.4688H19.0369ZM28.9282 13.1838H34.643C35.6479 16.5501 35.5741 20.1465 34.432 23.4688H28.8129C29.158 21.6664 29.3301 19.8351 29.3266 18C29.3297 16.3863 29.1967 14.7752 28.9288 13.1838H28.9282ZM34.2655 12.0593H28.7198C27.7706 7.56067 25.7718 3.87303 23.2127 1.80607C25.7218 2.54598 28.0257 3.85665 29.9438 5.63547C31.8619 7.41429 33.3422 9.61296 34.2688 12.0593H34.2655ZM13.736 1.80607C11.1742 3.87236 9.17737 7.56 8.22816 12.0593H2.68052C3.60724 9.61301 5.0876 7.41439 7.0057 5.63559C8.9238 3.85678 11.2276 2.54607 13.7367 1.80607H13.736ZM2.30299 13.1838H8.01715C7.45146 16.5923 7.49048 20.0738 8.13243 23.4688H2.51333C1.90886 21.7088 1.59997 19.8609 1.59917 18C1.59656 16.3688 1.8337 14.7461 2.30299 13.1838V13.1838ZM2.93872 24.5933H8.37513C9.37625 28.7939 11.3037 32.2274 13.736 34.1906C11.3401 33.4856 9.12975 32.2597 7.26311 30.6005C5.39647 28.9413 3.91977 26.8899 2.93872 24.5933ZM23.21 34.1946C25.6457 32.2274 27.5691 28.798 28.5709 24.5973H34.0073C33.0251 26.8932 31.548 28.944 29.6815 30.603C27.815 32.262 25.6052 33.4884 23.21 34.1946Z" fill="#F59F23"/>
</svg>
