<svg width="45" height="32" viewBox="0 0 45 32" fill="none" xmlns="http://www.w3.org/2000/svg">
<path d="M41.8526 8.66606C42.8703 8.95124 44.2653 9.34167 44.4274 10.162C44.537 10.7324 43.9887 11.2761 43.8265 11.4781C41.7033 13.6713 31.2849 15.8251 27.7013 16.7859C25.0255 17.5053 12.2654 20.9882 8.37469 21.9619H8.37439C7.75355 22.1387 7.09297 22.1188 6.48403 21.9047C5.6726 21.5843 5.29958 20.9396 4.76897 20.1502C3.4881 18.198 2.13689 16.2857 0.917595 14.303H0.917289C0.635477 13.9468 0.526245 13.4842 0.618957 13.0396C0.671892 12.8731 0.765523 12.7223 0.890977 12.6011C1.16238 12.3633 1.506 12.225 1.86612 12.2082C2.22657 12.1914 2.5815 12.2976 2.87369 12.509C4.27754 13.5487 5.68992 14.575 7.08915 15.619C7.27243 15.7677 7.51905 15.8123 7.74273 15.7374C11.2315 14.7897 14.723 13.8541 18.2179 12.93C18.582 12.8336 18.7179 12.7632 18.4768 12.3554C16.8361 9.58746 15.2221 6.8064 13.5989 4.02095L13.5992 4.02064C13.3455 3.64459 13.2329 3.19112 13.2813 2.74009C13.3293 2.28907 13.5352 1.8696 13.8623 1.55565C14.2243 1.2359 14.6781 1.03915 15.1588 0.993252C15.6395 0.947661 16.1223 1.05537 16.5381 1.30107C17.5252 1.98524 18.4946 2.69606 19.4728 3.39799C22.479 5.55608 25.4823 7.71872 28.4824 9.88567C28.5647 9.94656 28.6587 9.99001 28.7587 10.0127C28.8872 10.0393 29.0209 10.0304 29.1445 9.98634C29.434 9.89424 33.8205 8.51246 36.5269 8.23188H36.5272C37.4036 8.16059 38.2848 8.17252 39.159 8.26707C40.0686 8.30348 40.9717 8.4375 41.8526 8.66607L41.8526 8.66606Z" fill="#F59F23"/>
<rect x="6.40869" y="27.0176" width="35.1146" height="4.1928" fill="#F59F23"/>
</svg>
