<svg id="Layer_1" data-name="Layer 1" xmlns="http://www.w3.org/2000/svg" viewBox="0 0 700 700"><defs><style>.cls-1{fill:#f59f23;}</style></defs><path class="cls-1" d="M618.13,662.46,551.6,563.87a24.07,24.07,0,0,0-39.9,26.93l11.35,16.81H177l11.35-16.81a24.07,24.07,0,0,0-39.91-26.93L81.88,662.46a24.07,24.07,0,0,0,39.92,26.92l22.7-33.62H555.55l22.67,33.62a24.07,24.07,0,1,0,39.91-26.92Z"/><path class="cls-1" d="M126.06,358.84v61.29a85.13,85.13,0,0,0,85,85H488.94a85.13,85.13,0,0,0,85-85V358.84Zm143.79,78.57a24.07,24.07,0,0,1-20.84,12H191.63a24.07,24.07,0,0,1,0-48.14H249a24.07,24.07,0,0,1,20.84,36.11Zm259.36,0a24.07,24.07,0,0,1-20.84,12H451a24.07,24.07,0,0,1,0-48.14h57.39a24.07,24.07,0,0,1,20.84,36.11Z"/><path class="cls-1" d="M574,85v225.7H126.06V85a85.1,85.1,0,0,1,85-85H488.92a85.12,85.12,0,0,1,85,85Z"/></svg>