<svg width="25" height="33" viewBox="0 0 25 33" fill="none" xmlns="http://www.w3.org/2000/svg">
<path d="M24.7884 30.4917L21.7421 25.9774C21.5773 25.7383 21.3247 25.5739 21.0393 25.52C20.754 25.4661 20.4588 25.527 20.2181 25.6894C19.9774 25.8519 19.8105 26.1028 19.7538 26.3877C19.6971 26.6725 19.755 26.9682 19.9151 27.2105L20.4348 27.9802H4.5897L5.1094 27.2105C5.27292 26.9682 5.33347 26.6708 5.27775 26.3838C5.22202 26.0969 5.05457 25.8438 4.81224 25.6803C4.5699 25.5167 4.27254 25.4562 3.98556 25.5119C3.69858 25.5676 3.4455 25.7351 3.28198 25.9774L0.234292 30.4917C0.0708354 30.7341 0.0103633 31.0315 0.066179 31.3185C0.121995 31.6055 0.289526 31.8585 0.531918 32.022C0.77431 32.1854 1.07171 32.2459 1.35869 32.1901C1.64566 32.1343 1.89872 31.9667 2.06217 31.7244L3.10157 30.1849H21.923L22.961 31.7244C23.1245 31.9667 23.3775 32.1342 23.6644 32.1899C23.9514 32.2457 24.2487 32.1852 24.491 32.0218C24.7334 31.8583 24.9008 31.6053 24.9566 31.3183C25.0124 31.0314 24.9519 30.7341 24.7884 30.4917Z" fill="#F59F23"/>
<path d="M2.25732 16.5891V19.3955C2.2589 20.4272 2.66946 21.4163 3.39901 22.1458C4.12857 22.8754 5.11761 23.2859 6.14935 23.2875H18.8731C19.9048 23.2859 20.8939 22.8754 21.6234 22.1458C22.353 21.4163 22.7635 20.4272 22.7651 19.3955V16.5891H2.25732ZM8.84127 20.1867C8.74435 20.3539 8.60517 20.4927 8.43769 20.5892C8.2702 20.6856 8.0803 20.7363 7.88703 20.7362H5.25968C4.96738 20.7362 4.68705 20.6201 4.48036 20.4134C4.27367 20.2067 4.15755 19.9264 4.15755 19.6341C4.15755 19.3417 4.27367 19.0614 4.48036 18.8547C4.68705 18.648 4.96738 18.5319 5.25968 18.5319H7.88657C8.08005 18.5319 8.27012 18.5829 8.43766 18.6797C8.6052 18.7764 8.74432 18.9156 8.84103 19.0831C8.93774 19.2507 8.98864 19.4408 8.9886 19.6343C8.98856 19.8278 8.93759 20.0178 8.84081 20.1853L8.84127 20.1867ZM20.717 20.1867C20.6201 20.3539 20.4809 20.4927 20.3134 20.5892C20.1459 20.6856 19.956 20.7363 19.7628 20.7362H17.1359C16.8436 20.7362 16.5632 20.6201 16.3565 20.4134C16.1499 20.2067 16.0337 19.9264 16.0337 19.6341C16.0337 19.3417 16.1499 19.0614 16.3565 18.8547C16.5632 18.648 16.8436 18.5319 17.1359 18.5319H19.7637C19.9572 18.5319 20.1472 18.5829 20.3148 18.6797C20.4823 18.7764 20.6214 18.9156 20.7181 19.0831C20.8148 19.2507 20.8657 19.4408 20.8657 19.6343C20.8657 19.8278 20.8147 20.0178 20.7179 20.1853L20.717 20.1867Z" fill="#F59F23"/>
<path d="M22.7679 4.05072V14.3852H2.25732V4.05072C2.25854 3.01886 2.66898 2.02961 3.39861 1.29998C4.12825 0.570344 5.1175 0.159903 6.14935 0.158691L18.8722 0.158691C19.904 0.160145 20.8931 0.570664 21.6226 1.30025C22.3522 2.02983 22.7627 3.01894 22.7642 4.05072H22.7679Z" fill="#F59F23"/>
</svg>
