<svg width="33" height="47" viewBox="0 0 33 47" fill="none" xmlns="http://www.w3.org/2000/svg">
<path d="M32.3265 46.7156C32.0063 46.932 31.6138 47.0122 31.2345 46.9387C30.8552 46.8648 30.5206 46.6436 30.305 46.3234L28.9342 44.2897H4.07496L2.70225 46.3234C2.41124 46.7544 1.91232 46.9978 1.39344 46.9616C0.87456 46.9254 0.414483 46.6152 0.186548 46.1477C-0.0416802 45.6801 -0.00289977 45.1265 0.288103 44.6952L4.31228 38.733C4.60328 38.3024 5.10183 38.0598 5.62032 38.0963C6.13882 38.1325 6.59862 38.4427 6.82684 38.9099C7.0547 39.3767 7.01666 39.9299 6.72639 40.3613L6.03987 41.378L26.9691 41.3783L26.2825 40.3616V40.3613C25.9919 39.9303 25.9528 39.3771 26.1806 38.9099C26.4085 38.4424 26.8682 38.1322 27.3867 38.0956C27.9052 38.059 28.4038 38.302 28.6948 38.733L32.719 44.6952C32.935 45.0151 33.0151 45.408 32.9417 45.7869C32.8678 46.1658 32.6466 46.5 32.3264 46.7157L32.3265 46.7156ZM0.0506948 29.0859V8.81848C0.0529105 6.68359 0.901551 4.637 2.41088 3.12767C3.9202 1.61797 5.9668 0.769005 8.10131 0.766357H24.9057C27.0406 0.768943 29.0876 1.61795 30.5969 3.12729C32.1066 4.637 32.956 6.68359 32.9585 8.81848V29.0859C32.9559 31.2208 32.1069 33.2674 30.5972 34.7771C29.0875 36.2868 27.0405 37.1357 24.9056 37.138H8.10122C5.9667 37.1358 3.92001 36.2864 2.41078 34.7767C0.901457 33.2674 0.0528685 31.2208 0.0505995 29.0859H0.0506948ZM2.96034 22.4677H30.0469V8.81811C30.0454 7.45503 29.5033 6.14812 28.5395 5.18457C27.5756 4.22074 26.2686 3.67856 24.9055 3.67752H8.10112C6.73843 3.67899 5.43151 4.22112 4.46796 5.18495C3.50413 6.1484 2.96195 7.45503 2.96015 8.81811L2.96034 22.4677ZM2.96034 29.0859C2.96219 30.449 3.50431 31.7555 4.46815 32.719C5.43161 33.6829 6.73862 34.2251 8.10131 34.2265H24.9057C26.2688 34.2254 27.5757 33.6832 28.5396 32.7194C29.5035 31.756 30.0457 30.449 30.0471 29.0859V25.3793H2.96053L2.96034 29.0859ZM6.9258 30.8581H10.3957C10.916 30.8581 11.3965 30.5808 11.6565 30.1302C11.9165 29.6801 11.9165 29.125 11.6565 28.6748C11.3965 28.2243 10.916 27.9469 10.3957 27.9469H6.9258C6.40584 27.9469 5.92501 28.2243 5.66502 28.6748C5.40504 29.125 5.40504 29.68 5.66502 30.1302C5.92501 30.5808 6.40583 30.8581 6.9258 30.8581V30.8581ZM22.6109 30.8581H26.0811C26.6011 30.8581 27.0816 30.5808 27.3415 30.1302C27.6015 29.6801 27.6015 29.125 27.3415 28.6748C27.0816 28.2243 26.6011 27.9469 26.0811 27.9469H22.6109C22.0909 27.9469 21.6105 28.2243 21.3505 28.6748C21.0901 29.125 21.0901 29.68 21.3505 30.1302C21.6105 30.5808 22.0909 30.8581 22.6109 30.8581Z" fill="#F59F23"/>
</svg>
