<svg width="54" height="54" viewBox="0 0 54 54" fill="none" xmlns="http://www.w3.org/2000/svg">
<path d="M37.0254 35.7766C36.0454 35.4656 34.9847 35.5298 34.0492 35.9568C33.1141 36.3838 32.3708 37.1436 31.9638 38.0879C31.7921 38.4948 31.6448 38.9118 31.5228 39.3364C27.957 37.9317 24.697 35.8496 21.9234 33.2053L21.9182 33.2C21.5285 32.8332 21.1629 32.4672 20.8001 32.0819L20.7993 32.0815L20.7961 32.0775H20.7957C18.1509 29.3039 16.0684 26.0439 14.6641 22.4777C15.0887 22.3553 15.5057 22.2084 15.9126 22.0371C16.857 21.6301 17.6163 20.8865 18.0433 19.9509C18.4699 19.0154 18.5341 17.9547 18.223 16.9747C12.7819 0 12.5025 0 11.4647 0C8.42507 0.00361192 5.51106 1.21243 3.36195 3.36195C1.21243 5.51106 0.00359589 8.42507 0 11.4647C0.0128425 22.7425 4.49805 33.5538 12.4726 41.5274C20.4465 49.5017 31.2586 53.9866 42.5353 54C45.5749 53.9964 48.4889 52.7876 50.638 50.6381C52.7876 48.4889 53.9964 45.5749 54 42.5353C54 41.4974 54 41.219 37.0253 35.7765L37.0254 35.7766ZM42.5357 51.7804C31.8466 51.7684 21.5994 47.5167 14.0408 39.9592C6.48306 32.401 2.23087 22.1534 2.21956 11.4643C2.22237 9.11979 3.11452 6.86352 4.71624 5.15106C6.31795 3.439 8.51001 2.39835 10.8493 2.239C11.4585 3.63924 13.0963 8.25051 16.1103 17.652C16.2552 18.1035 16.2275 18.5927 16.0324 19.0249C15.837 19.4572 15.4882 19.8015 15.0536 19.9909C14.3958 20.267 13.7079 20.4649 13.004 20.5809C12.6814 20.6342 12.3984 20.8273 12.2311 21.1086C12.0637 21.3899 12.0292 21.7307 12.1364 22.0401C13.6301 26.3556 16.0348 30.2999 19.1865 33.6045C19.579 34.0219 19.9747 34.4176 20.3957 34.8137C23.7011 37.9654 27.6449 40.3697 31.9601 41.8638C32.2695 41.971 32.6103 41.9365 32.8916 41.7691C33.1729 41.6018 33.366 41.3188 33.4193 40.9958C33.5349 40.2918 33.7328 39.6039 34.0093 38.9462C34.1987 38.5116 34.543 38.1628 34.9749 37.9678C35.4071 37.7723 35.8963 37.7446 36.3478 37.8899C45.7585 40.9067 50.3563 42.5341 51.7608 43.1493V43.1497C51.6019 45.4891 50.5612 47.681 48.8492 49.2831C47.1367 50.8848 44.8804 51.7773 42.5355 51.7802L42.5357 51.7804Z" fill="#F59F23"/>
<path d="M27.4563 5.30622C32.7775 5.31224 37.8792 7.42882 41.6416 11.1913C45.4044 14.9541 47.5211 20.0557 47.527 25.3765C47.531 25.9865 48.0267 26.4782 48.6367 26.4782C49.2463 26.4782 49.742 25.9866 49.7464 25.3765C49.7396 19.4669 47.389 13.8008 43.21 9.62242C39.0314 5.44379 33.3655 3.09321 27.4559 3.08643C26.8431 3.08643 26.3462 3.58327 26.3462 4.19612C26.3462 4.80894 26.843 5.30581 27.4559 5.30581L27.4563 5.30622Z" fill="#F59F23"/>
<path d="M27.4562 12.5594C30.8542 12.5634 34.1122 13.9151 36.5149 16.3179C38.9181 18.7206 40.2694 21.9786 40.2734 25.3766C40.2734 25.9894 40.7702 26.4863 41.3831 26.4863C41.9959 26.4863 42.4927 25.9895 42.4927 25.3766C42.4883 21.3902 40.9026 17.5684 38.0838 14.7492C35.2649 11.93 31.443 10.3443 27.4564 10.3398C26.8435 10.3398 26.3467 10.8367 26.3467 11.4495C26.3467 12.0624 26.8435 12.5592 27.4564 12.5592L27.4562 12.5594Z" fill="#F59F23"/>
</svg>
