<svg width="53" height="54" viewBox="0 0 53 54" fill="none" xmlns="http://www.w3.org/2000/svg">
<path d="M6.17531 0C2.78942 0 0 2.78142 0 6.15626V33.5185C0 36.894 2.79003 39.6748 6.17531 39.6748H10.0782L8.8988 51.0898L8.89832 51.0903C8.84088 51.6543 9.0199 52.2174 9.39324 52.6449C9.76658 53.073 10.3007 53.3278 10.8689 53.3488C11.437 53.3702 11.9889 53.1565 12.3938 52.758L25.5597 39.6755H45.9733C49.3592 39.6755 52.1486 36.894 52.1486 33.5192V6.15696C52.1486 2.78151 49.3586 0.0006971 45.9733 0.0006971H6.17533L6.17531 0ZM6.17531 4.10458H45.9733C47.1493 4.10458 48.032 4.98446 48.032 6.15687V33.5191C48.032 34.6915 47.1494 35.5714 45.9733 35.5714H24.702C24.1554 35.57 23.6308 35.7852 23.2436 36.1698L13.5727 45.7678L14.3874 37.8154H14.3879C14.4419 37.2423 14.2524 36.6731 13.8647 36.2465C13.4775 35.8194 12.928 35.5746 12.3508 35.5708H6.17553C4.99952 35.5708 4.11689 34.6909 4.11689 33.5185V6.15628C4.11689 4.9839 4.99949 4.10399 6.17553 4.10399L6.17531 4.10458ZM12.3506 16.4176C10.4557 16.4176 8.91975 17.9488 8.91975 19.8379C8.91975 21.727 10.4557 23.2581 12.3506 23.2581C14.2456 23.2581 15.7815 21.727 15.7815 19.8379C15.7815 17.9488 14.2456 16.4176 12.3506 16.4176ZM26.0961 16.4176C24.2012 16.4176 22.6653 17.9488 22.6653 19.8379C22.6653 21.727 24.2012 23.2581 26.0961 23.2581C27.9911 23.2581 29.527 21.727 29.527 19.8379C29.527 17.9488 27.9911 16.4176 26.0961 16.4176ZM39.7975 16.4176C37.9026 16.4176 36.3667 17.9488 36.3667 19.8379C36.3667 21.727 37.9026 23.2581 39.7975 23.2581C41.6925 23.2581 43.2284 21.727 43.2284 19.8379C43.2284 17.9488 41.6925 16.4176 39.7975 16.4176Z" fill="#F59F23"/>
</svg>
