<svg width="67" height="50" viewBox="0 0 67 50" fill="none" xmlns="http://www.w3.org/2000/svg">
<path d="M60.3633 49.6842H7.30138C3.64604 49.6842 0.672359 46.7109 0.672359 43.0551L0.671875 6.63051C0.671875 2.97479 3.64518 0 7.3009 0H60.364C64.0194 0 66.993 2.9743 66.993 6.63051V43.0551C66.9935 46.7105 64.0192 49.6842 60.364 49.6842H60.3633ZM7.30138 3.46737C5.55816 3.46737 4.13948 4.88605 4.13948 6.63076V43.0554C4.13948 44.7986 5.55816 46.2173 7.30138 46.2173H60.3633C62.108 46.2173 63.5266 44.7986 63.5266 43.0554V6.62952C63.5266 4.88481 62.108 3.46614 60.3647 3.46614H7.30039L7.30138 3.46737ZM55.4077 39.5119C54.9826 39.5119 54.5564 39.3556 54.2222 39.0422L41.4335 27.0393L35.4584 32.8667C34.7962 33.5144 33.7393 33.5241 33.0617 32.8895L26.2779 26.5226L13.4879 38.9968C12.804 39.6648 11.706 39.6513 11.0366 38.9654C10.3681 38.2805 10.3821 37.1834 11.068 36.514L23.7465 24.1474L11.0692 12.2514C10.3708 11.596 10.3364 10.499 10.9914 9.80103C11.6468 9.10258 12.7438 9.06871 13.4418 9.72316L34.2235 29.2257L54.1743 9.76649C54.8582 9.09852 55.9563 9.11205 56.6257 9.79794C57.2941 10.4828 57.2801 11.5799 56.5942 12.2493L43.9157 24.6145L56.5942 36.5129C57.2927 37.1683 57.327 38.2653 56.6721 38.9633C56.3306 39.3275 55.8692 39.5108 55.4067 39.5108L55.4077 39.5119Z" fill="#F59F23"/>
</svg>
