<svg width="64" height="47" viewBox="0 0 64 47" fill="none" xmlns="http://www.w3.org/2000/svg">
<path d="M5.28058 46.4664H43.2987C44.6984 46.4651 46.0403 45.9082 47.0303 44.9181C48.0204 43.928 48.5773 42.5862 48.5787 41.1864V33.6377L58.4001 42.5257V42.5252C58.9429 43.022 59.6518 43.2978 60.3877 43.2983C60.8098 43.2974 61.2275 43.2072 61.6124 43.0344C62.1344 42.809 62.5786 42.4355 62.8898 41.9599C63.2009 41.4843 63.3658 40.9279 63.3636 40.3594V6.10693C63.3667 5.53809 63.2022 4.98074 62.8906 4.50474C62.5795 4.02872 62.1348 3.65435 61.6124 3.42894C61.086 3.18894 60.5004 3.10938 59.9284 3.20043C59.3569 3.29192 58.8252 3.54916 58.3991 3.94121L48.5785 12.8287V5.27999C48.5772 3.88022 48.0203 2.53839 47.0302 1.54833C46.0401 0.558277 44.6983 0.00135779 43.2985 0H5.28044C3.88022 0.00132599 2.53839 0.558232 1.54833 1.54833C0.558719 2.53839 0.00181039 3.88022 0 5.27999V41.1867C0.00176795 42.5865 0.558673 43.9283 1.54833 44.9184C2.53839 45.9084 3.88022 46.4653 5.28044 46.4667L5.28058 46.4664ZM59.8162 5.50758C60.0708 5.27332 60.4411 5.21499 60.755 5.35995C61.0582 5.48371 61.2549 5.78028 61.2513 6.10736V40.3599C61.2548 40.6869 61.0582 40.9835 60.755 41.1073C60.4412 41.2522 60.0708 41.1939 59.8162 40.9596L48.5787 30.7899V15.6777L59.8162 5.50758ZM2.1124 5.2804C2.1124 4.44017 2.4461 3.63442 3.04013 3.04038C3.63417 2.44635 4.44035 2.11221 5.2806 2.11221H43.2987C44.1389 2.11221 44.9447 2.44635 45.5387 3.04038C46.1327 3.63442 46.4669 4.44015 46.4669 5.2804V41.1871C46.4669 42.0274 46.1327 42.8331 45.5387 43.4271C44.9447 44.0212 44.1389 44.3553 43.2987 44.3553H5.2806C4.44038 44.3553 3.63417 44.0212 3.04013 43.4271C2.4461 42.8331 2.1124 42.0274 2.1124 41.1871V5.2804Z" fill="#F59F23"/>
<path d="M31.0803 38.0121C32.0748 38.0165 33.0667 37.9105 34.0372 37.6957C35.0313 37.4738 35.94 36.969 36.6534 36.2424L38.1415 34.764H38.1411C38.736 34.1695 39.0701 33.3633 39.0701 32.5223C39.0701 31.6816 38.736 30.8754 38.1411 30.2809L33.6549 25.8062C33.0591 25.2152 32.2538 24.8837 31.4145 24.8837C30.5756 24.8837 29.7703 25.2152 29.174 25.8062L28.0355 26.9434L28.0359 26.9439C26.1884 26.6 24.4974 25.6807 23.2041 24.3171C21.8331 23.0301 20.9106 21.3372 20.5725 19.487L21.7195 18.34C22.3087 17.7442 22.6388 16.9403 22.6388 16.1027C22.6388 15.2652 22.3087 14.4612 21.7195 13.8654L17.2431 9.37703V9.37747C16.6389 8.80023 15.8357 8.47803 15.0005 8.47803C14.1651 8.47803 13.3621 8.80024 12.7579 9.37747L11.2887 10.8559H11.2892C10.559 11.5706 10.0512 12.4819 9.82752 13.4791C9.22243 16.1456 8.66593 23.1949 16.4883 31.0365C22.2571 36.796 27.5985 38.0123 31.08 38.0123L31.0803 38.0121ZM11.8891 13.9408C12.0266 13.3375 12.336 12.7872 12.7802 12.3567L14.2586 10.8707C14.6709 10.4583 15.3397 10.4583 15.752 10.8707L20.2298 15.3591C20.4278 15.5571 20.5392 15.8258 20.5392 16.1061C20.5392 16.3863 20.4278 16.655 20.2298 16.8535L18.7407 18.3425C18.5427 18.5405 18.4313 18.8088 18.4313 19.089C18.6448 21.6627 19.8183 24.0627 21.7189 25.8117C23.4678 27.7113 25.8669 28.8844 28.4406 29.0983C28.7204 29.0983 28.9891 28.9869 29.1871 28.7889L30.6718 27.3052C30.8702 27.1054 31.1403 26.9927 31.4218 26.9927C31.7034 26.9927 31.9734 27.1054 32.1714 27.3052L36.6576 31.7799V31.7795C37.0699 32.1923 37.0699 32.8606 36.6576 33.2729L35.1623 34.7589C34.7314 35.2009 34.1806 35.5072 33.5782 35.6407C31.2498 36.1689 25.0756 36.6312 17.9818 29.5483C10.8883 22.4654 11.3603 16.2725 11.8884 13.9405L11.8891 13.9408Z" fill="#F59F23"/>
</svg>
