<svg width="55" height="52" viewBox="0 0 55 52" fill="none" xmlns="http://www.w3.org/2000/svg">
<path d="M25.218 45.9856H23.5384V44.4859C23.2086 44.1494 22.8913 43.8005 22.5915 43.4382V45.9856H12.7418V38.508H19.7572C19.6435 38.1985 19.5402 37.8843 19.4471 37.5652H12.7418V30.0783H18.9603C19.014 29.7448 19.0778 29.4148 19.1515 29.0882H12.7429V21.6106H22.5926V22.0954C23.0074 21.5945 23.4512 21.1182 23.9218 20.6688H23.5394V13.1809H33.3881V16.1329C33.7009 16.0917 34.0169 16.0594 34.3359 16.0361V13.182H44.1846V18.3283C44.5071 18.519 44.8224 18.7201 45.1304 18.9314V8.8642C45.1304 7.25649 44.4626 5.81449 43.4042 4.70495C42.2935 3.60655 40.7925 2.98887 39.2272 2.98608H33.6661V2.05254C33.6616 1.52111 33.464 1.00927 33.11 0.611573C32.7203 0.278092 32.218 0.0012207 31.6629 0.0012207C31.1078 0.0012207 30.6055 0.278092 30.2158 0.611573C29.8809 0.999605 29.6028 1.48953 29.6028 2.05254V2.98608H16.4702V2.05254C16.4653 1.52099 16.2674 1.00917 15.9131 0.611573C15.5234 0.278092 15.0221 0.0012207 14.466 0.0012207C13.9099 0.0012207 13.4075 0.278092 13.0188 0.611573C12.685 0.999605 12.4059 1.48953 12.4059 2.05254V2.98608H6.89443C5.33072 2.98944 3.83152 3.60714 2.7226 4.70495V4.70495C1.66414 5.81449 0.995361 7.25649 0.995361 8.8642V41.1131C0.996916 41.8755 1.15039 42.6301 1.44687 43.3331C1.74336 44.0361 2.17697 44.6735 2.7226 45.2085C3.83038 46.3055 5.32798 46.9231 6.8903 46.9274H26.5504C26.0922 46.635 25.648 46.3211 25.218 45.9856ZM22.5915 20.6657H12.7418V13.1809H22.5915V20.6657ZM30.6024 2.04945C30.6098 1.76507 30.7071 1.49027 30.8804 1.26412C31.1028 1.09008 31.3774 0.995473 31.6603 0.995473C31.9432 0.995473 32.2178 1.09008 32.4402 1.26412C32.6142 1.48997 32.7119 1.76489 32.7193 2.04945V4.92418C32.7283 5.06813 32.7077 5.2124 32.6585 5.34809C32.6094 5.48378 32.5329 5.60801 32.4338 5.71313C32.3346 5.81825 32.2149 5.90203 32.0819 5.9593C31.949 6.01657 31.8057 6.04611 31.6608 6.04611C31.516 6.04611 31.3727 6.01657 31.2397 5.9593C31.1068 5.90203 30.987 5.81825 30.8879 5.71313C30.7887 5.60801 30.7122 5.48378 30.6631 5.34809C30.614 5.2124 30.5933 5.06813 30.6024 4.92418V2.04945ZM13.4106 2.04945C13.4184 1.76514 13.5156 1.49043 13.6887 1.26412C13.911 1.09008 14.1857 0.995473 14.4685 0.995473C14.7514 0.995473 15.0261 1.09008 15.2484 1.26412C15.4219 1.4902 15.5192 1.76505 15.5265 2.04945V4.92418C15.5343 5.06732 15.5127 5.21054 15.463 5.34509C15.4134 5.47964 15.3367 5.60271 15.2377 5.70678C15.1387 5.81085 15.0194 5.89373 14.8872 5.95038C14.755 6.00702 14.6125 6.03623 14.4685 6.03623C14.3246 6.03623 14.1821 6.00702 14.0499 5.95038C13.9176 5.89373 13.7984 5.81085 13.6994 5.70678C13.6004 5.60271 13.5237 5.47964 13.4741 5.34509C13.4244 5.21054 13.4028 5.06732 13.4106 4.92418V2.04945ZM1.94529 8.86523C1.94776 8.22548 2.07685 7.59248 2.32515 7.00244C2.57346 6.41239 2.93612 5.87686 3.39241 5.42646V5.42646C3.85082 4.96793 4.39601 4.60448 4.99642 4.35714C5.59683 4.10979 6.24054 3.98348 6.8903 3.98549H12.4049V4.9283C12.4049 5.48204 12.6839 5.98124 13.0178 6.36927C13.4075 6.70275 13.9088 6.97962 14.4649 6.97962C15.021 6.97962 15.5234 6.70275 15.912 6.36927C16.2648 5.97079 16.4621 5.45945 16.4682 4.9283V3.98549H29.5956V4.9283C29.5956 5.48204 29.8747 5.98124 30.2085 6.36927C30.5993 6.70275 31.1006 6.97962 31.6557 6.97962C32.2107 6.97962 32.7152 6.70275 33.1028 6.36927C33.4551 5.97055 33.6524 5.45936 33.6589 4.9283V3.98549H39.2199C40.5259 3.98245 41.7801 4.49397 42.7087 5.40839C43.6373 6.32281 44.1649 7.56588 44.1763 8.86626V12.2402H1.94529V8.86523ZM11.795 45.9856H6.89443C5.59165 45.9859 4.34131 45.4746 3.41489 44.5625C2.48847 43.6504 1.96075 42.4112 1.94633 41.1141V38.508H11.795V45.9856ZM11.795 37.5652H1.94633V30.0783H11.795V37.5652ZM11.795 29.0882H1.94633V21.6106H11.795V29.0882ZM11.795 20.6688H1.94633V13.1809H11.795V20.6688Z" fill="#F59F23"/>
<path d="M35.7473 40.2113C35.5557 40.3166 35.3895 40.4624 35.2605 40.6385C35.1985 40.7414 35.1571 40.8526 35.1003 40.9565C35.0415 41.0562 34.9632 41.143 34.87 41.2118C34.7767 41.2806 34.6705 41.33 34.5576 41.3569C34.3881 41.397 34.2082 41.3847 34.0408 41.4187C33.7544 41.4763 33.5126 41.6626 33.2883 41.8489C32.8503 42.2106 32.4328 42.5962 32.0375 43.0037H40.6582C40.6283 42.9327 40.5941 42.8627 40.5549 42.7927C40.5281 42.7232 40.4833 42.662 40.425 42.6153C40.3667 42.5687 40.297 42.5383 40.2231 42.5272C39.2652 42.2152 38.4224 41.6261 37.8022 40.8351C37.5273 40.4861 37.2968 40.1321 36.9753 39.8264C36.8988 39.7533 36.8833 39.778 36.782 39.7955C36.7628 39.7987 36.7431 39.7976 36.7243 39.7923C36.7055 39.7871 36.6881 39.7778 36.6734 39.7652C36.6586 39.7525 36.6468 39.7368 36.6388 39.7191C36.6307 39.7014 36.6267 39.6821 36.627 39.6627V33.7208C36.6266 33.4576 36.6785 33.1969 36.7796 32.9536C36.8807 32.7104 37.0291 32.4895 37.2162 32.3035L39.0592 30.4683C39.6491 29.8827 40.1402 29.206 40.5135 28.4644H31.9797C32.3526 29.2059 32.8433 29.8826 33.433 30.4683L35.2832 32.3035C35.4703 32.4895 35.6187 32.7104 35.7198 32.9536C35.8209 33.1969 35.8728 33.4576 35.8724 33.7208V39.9715C35.8672 40.1537 35.7877 40.1866 35.7473 40.2113ZM35.7473 40.2113C35.5557 40.3166 35.3895 40.4624 35.2605 40.6385C35.1985 40.7414 35.1571 40.8526 35.1003 40.9565C35.0415 41.0562 34.9632 41.143 34.87 41.2118C34.7767 41.2806 34.6705 41.33 34.5576 41.3569C34.3881 41.397 34.2082 41.3847 34.0408 41.4187C33.7544 41.4763 33.5126 41.6626 33.2883 41.8489C32.8503 42.2106 32.4328 42.5962 32.0375 43.0037H40.6582C40.6283 42.9327 40.5941 42.8627 40.5549 42.7927C40.5281 42.7232 40.4833 42.662 40.425 42.6153C40.3667 42.5687 40.297 42.5383 40.2231 42.5272C39.2652 42.2152 38.4224 41.6261 37.8022 40.8351C37.5273 40.4861 37.2968 40.1321 36.9753 39.8264C36.8988 39.7533 36.8833 39.778 36.782 39.7955C36.7628 39.7987 36.7431 39.7976 36.7243 39.7923C36.7055 39.7871 36.6881 39.7778 36.6734 39.7652C36.6586 39.7525 36.6468 39.7368 36.6388 39.7191C36.6307 39.7014 36.6267 39.6821 36.627 39.6627V33.7208C36.6266 33.4576 36.6785 33.1969 36.7796 32.9536C36.8807 32.7104 37.0291 32.4895 37.2162 32.3035L39.0592 30.4683C39.6491 29.8827 40.1402 29.206 40.5135 28.4644H31.9797C32.3526 29.2059 32.8433 29.8826 33.433 30.4683L35.2832 32.3035C35.4703 32.4895 35.6187 32.7104 35.7198 32.9536C35.8209 33.1969 35.8728 33.4576 35.8724 33.7208V39.9715C35.8672 40.1537 35.7877 40.1866 35.7473 40.2113ZM42.4661 43.3084H42.2521V42.4417C42.2551 41.3061 42.0319 40.1811 41.5954 39.1318C41.1589 38.0826 40.5179 37.1299 39.7093 36.3289L37.8674 34.4897C37.6627 34.2857 37.5478 34.0091 37.5478 33.7208C37.5478 33.4325 37.6627 33.1559 37.8674 32.9519L39.7104 31.1199C40.5191 30.3188 41.1602 29.366 41.5967 28.3165C42.0332 27.2671 42.2563 26.1419 42.2532 25.006V24.1363H42.4671C42.56 24.1363 42.6519 24.1181 42.7377 24.0827C42.8235 24.0473 42.9014 23.9955 42.9671 23.9301C43.0327 23.8647 43.0848 23.7871 43.1203 23.7017C43.1559 23.6163 43.1742 23.5247 43.1742 23.4323C43.1742 23.3398 43.1559 23.2483 43.1203 23.1629C43.0848 23.0775 43.0327 22.9998 42.9671 22.9345C42.9014 22.8691 42.8235 22.8172 42.7377 22.7819C42.6519 22.7465 42.56 22.7283 42.4671 22.7283H30.0271C29.9342 22.7283 29.8423 22.7465 29.7565 22.7819C29.6707 22.8172 29.5928 22.8691 29.5272 22.9345C29.4615 22.9998 29.4094 23.0775 29.3739 23.1629C29.3384 23.2483 29.3201 23.3398 29.3201 23.4323C29.3201 23.5247 29.3384 23.6163 29.3739 23.7017C29.4094 23.7871 29.4615 23.8647 29.5272 23.9301C29.5928 23.9955 29.6707 24.0473 29.7565 24.0827C29.8423 24.1181 29.9342 24.1363 30.0271 24.1363H30.2421V25.006C30.2387 26.1419 30.4617 27.2672 30.8982 28.3167C31.3347 29.3661 31.976 30.3189 32.7849 31.1199L34.6279 32.955C34.8325 33.159 34.9475 33.4356 34.9475 33.7239C34.9475 34.0122 34.8325 34.2888 34.6279 34.4927L32.7849 36.3279C31.9761 37.1288 31.335 38.0814 30.8985 39.1307C30.462 40.1799 30.2389 41.305 30.2421 42.4407V43.3115H30.0271C29.8396 43.3115 29.6597 43.3856 29.5272 43.5177C29.3946 43.6497 29.3201 43.8288 29.3201 44.0155C29.3201 44.2022 29.3946 44.3813 29.5272 44.5133C29.6597 44.6453 29.8396 44.7195 30.0271 44.7195H42.4671C42.56 44.7195 42.6519 44.7013 42.7377 44.6659C42.8235 44.6305 42.9014 44.5787 42.9671 44.5133C43.0327 44.4479 43.0848 44.3703 43.1203 44.2849C43.1559 44.1995 43.1742 44.1079 43.1742 44.0155C43.1742 43.923 43.1559 43.8315 43.1203 43.7461C43.0848 43.6606 43.0327 43.583 42.9671 43.5177C42.9014 43.4523 42.8235 43.4004 42.7377 43.3651C42.6519 43.3297 42.56 43.3115 42.4671 43.3115L42.4661 43.3084ZM41.6392 43.3084H30.8551V42.4417C30.8523 41.3861 31.0598 40.3405 31.4656 39.3652C31.8714 38.39 32.4674 37.5046 33.219 36.7602L35.062 34.9261C35.3808 34.6069 35.5597 34.175 35.5597 33.7249C35.5597 33.2748 35.3808 32.8429 35.062 32.5238L33.2159 30.6855C32.4642 29.9411 31.8683 29.0557 31.4625 28.0805C31.0567 27.1052 30.8492 26.0596 30.8519 25.004V24.1332H41.6361V25.004C41.6391 26.0595 41.4318 27.1052 41.0262 28.0805C40.6206 29.0557 40.0248 29.9411 39.2731 30.6855L37.4332 32.5196C37.114 32.8386 36.9347 33.2705 36.9347 33.7208C36.9347 34.1711 37.114 34.603 37.4332 34.9219L39.2762 36.7561C40.0278 37.5005 40.6236 38.386 41.0292 39.3612C41.4348 40.3364 41.6421 41.3821 41.6392 42.4376V43.3084ZM37.8053 40.8381C37.5304 40.4892 37.2999 40.1352 36.9784 39.8295C36.9019 39.7564 36.8864 39.7811 36.7851 39.7986C36.7654 39.8023 36.7451 39.8016 36.7257 39.7964C36.7063 39.7912 36.6883 39.7818 36.6731 39.7687C36.6579 39.7556 36.6459 39.7393 36.6379 39.721C36.6299 39.7026 36.6262 39.6827 36.627 39.6627V33.7208C36.6266 33.4576 36.6785 33.1969 36.7796 32.9536C36.8807 32.7104 37.0291 32.4895 37.2162 32.3035L39.0592 30.4683C39.6491 29.8827 40.1402 29.206 40.5135 28.4644H31.9797C32.3526 29.2059 32.8433 29.8826 33.433 30.4683L35.2832 32.3035C35.4703 32.4895 35.6187 32.7104 35.7198 32.9536C35.8209 33.1969 35.8728 33.4576 35.8724 33.7208V39.9715C35.8724 40.1588 35.7928 40.1918 35.7525 40.2165C35.5609 40.3217 35.3947 40.4675 35.2657 40.6436C35.2036 40.7465 35.1623 40.8577 35.1054 40.9617C35.0467 41.0613 34.9684 41.1482 34.8751 41.217C34.7819 41.2858 34.6756 41.3351 34.5628 41.362C34.3933 41.4022 34.2134 41.3898 34.0459 41.4238C33.7596 41.4814 33.5177 41.6677 33.2934 41.854C32.8555 42.2158 32.438 42.6013 32.0427 43.0089H40.6582C40.6283 42.9378 40.5941 42.8679 40.5549 42.7979C40.5281 42.7283 40.4833 42.6671 40.425 42.6205C40.3667 42.5738 40.297 42.5434 40.2231 42.5323C39.2657 42.2184 38.4239 41.6275 37.8053 40.8351V40.8381Z" fill="#F59F23"/>
<path d="M35.8384 49.4862C45.1561 49.4862 52.7097 41.9648 52.7097 32.6866C52.7097 23.4084 45.1561 15.887 35.8384 15.887C26.5206 15.887 18.967 23.4084 18.967 32.6866C18.967 41.9648 26.5206 49.4862 35.8384 49.4862Z" fill="black" stroke="#F59F23" stroke-width="3.11538" stroke-miterlimit="10"/>
<path d="M35.8277 40.5089C35.6351 40.6132 35.4684 40.7592 35.3398 40.936C35.2778 41.039 35.2364 41.1501 35.1796 41.2551C35.1207 41.3547 35.0423 41.4414 34.9491 41.5102C34.8559 41.579 34.7497 41.6284 34.6369 41.6555C34.4674 41.6956 34.2865 41.6833 34.1139 41.7162C33.8286 41.7749 33.5857 41.9612 33.3614 42.1485C32.9223 42.51 32.504 42.8959 32.1086 43.3044H40.7458C40.7148 43.2333 40.6807 43.1634 40.6425 43.0923C40.6134 43.0319 40.575 42.9763 40.5288 42.9276C40.4631 42.8794 40.3887 42.8445 40.3096 42.8247C39.351 42.512 38.5075 41.9223 37.8867 41.1306C37.6107 40.7816 37.3802 40.4265 37.0598 40.1209C36.9843 40.0478 36.9678 40.0715 36.8675 40.09C36.8483 40.0933 36.8285 40.0923 36.8096 40.0872C36.7907 40.0821 36.7732 40.073 36.7582 40.0605C36.7433 40.0479 36.7312 40.0323 36.723 40.0146C36.7147 39.9969 36.7105 39.9777 36.7104 39.9582V34.0091C36.7099 33.7454 36.7618 33.4843 36.8631 33.2407C36.9644 32.9971 37.1131 32.7759 37.3006 32.5897L39.1468 30.7515C39.7373 30.1653 40.2288 29.4879 40.6021 28.7454H32.0569C32.4303 29.4879 32.9217 30.1653 33.5123 30.7515L35.3594 32.5897C35.5466 32.7761 35.695 32.9973 35.7962 33.2409C35.8973 33.4845 35.9491 33.7455 35.9486 34.0091V40.2629C35.9476 40.4502 35.868 40.4862 35.8277 40.5089ZM35.8277 40.5089C35.6351 40.6132 35.4684 40.7592 35.3398 40.936C35.2778 41.039 35.2364 41.1501 35.1796 41.2551C35.1207 41.3547 35.0423 41.4414 34.9491 41.5102C34.8559 41.579 34.7497 41.6284 34.6369 41.6555C34.4674 41.6956 34.2865 41.6833 34.1139 41.7162C33.8286 41.7749 33.5857 41.9612 33.3614 42.1485C32.9223 42.51 32.504 42.8959 32.1086 43.3044H40.7458C40.7148 43.2333 40.6807 43.1634 40.6425 43.0923C40.6134 43.0319 40.575 42.9763 40.5288 42.9276C40.4631 42.8794 40.3887 42.8445 40.3096 42.8247C39.351 42.512 38.5075 41.9223 37.8867 41.1306C37.6107 40.7816 37.3802 40.4265 37.0598 40.1209C36.9843 40.0478 36.9678 40.0715 36.8675 40.09C36.8483 40.0933 36.8285 40.0923 36.8096 40.0872C36.7907 40.0821 36.7732 40.073 36.7582 40.0605C36.7433 40.0479 36.7312 40.0323 36.723 40.0146C36.7147 39.9969 36.7105 39.9777 36.7104 39.9582V34.0091C36.7099 33.7454 36.7618 33.4843 36.8631 33.2407C36.9644 32.9971 37.1131 32.7759 37.3006 32.5897L39.1468 30.7515C39.7373 30.1653 40.2288 29.4879 40.6021 28.7454H32.0569C32.4303 29.4879 32.9217 30.1653 33.5123 30.7515L35.3594 32.5897C35.5466 32.7761 35.695 32.9973 35.7962 33.2409C35.8973 33.4845 35.9491 33.7455 35.9486 34.0091V40.2629C35.9476 40.4502 35.868 40.4862 35.8277 40.5089ZM42.5568 43.6101H42.3428V42.7372C42.3458 41.6 42.1222 40.4734 41.6851 39.4227C41.2479 38.372 40.6058 37.4181 39.7959 36.6162L37.9498 34.7779C37.7453 34.5736 37.6305 34.297 37.6305 34.0086C37.6305 33.7202 37.7453 33.4435 37.9498 33.2392L39.7959 31.4009C40.606 30.599 41.2483 29.645 41.6855 28.5941C42.1227 27.5432 42.3461 26.4164 42.3428 25.2789V24.4081H42.5568C42.7446 24.4081 42.9247 24.3339 43.0574 24.2016C43.1902 24.0694 43.2648 23.8901 43.2648 23.7031C43.2648 23.5161 43.1902 23.3368 43.0574 23.2045C42.9247 23.0723 42.7446 22.998 42.5568 22.998H30.0992C29.9114 22.998 29.7313 23.0723 29.5985 23.2045C29.4657 23.3368 29.3911 23.5161 29.3911 23.7031C29.3911 23.8901 29.4657 24.0694 29.5985 24.2016C29.7313 24.3339 29.9114 24.4081 30.0992 24.4081H30.3152V25.2789C30.3118 26.4163 30.535 27.5431 30.972 28.594C31.4091 29.6448 32.0511 30.5989 32.8611 31.4009L34.7072 33.2392C34.9117 33.4435 35.0265 33.7202 35.0265 34.0086C35.0265 34.297 34.9117 34.5736 34.7072 34.7779L32.8611 36.6162C32.0514 37.4182 31.4094 38.3721 30.9724 39.4228C30.5354 40.4735 30.312 41.6 30.3152 42.7372V43.6101H30.0992C29.9162 43.617 29.743 43.6943 29.6161 43.8257C29.4891 43.957 29.4182 44.1323 29.4182 44.3146C29.4182 44.4969 29.4891 44.6721 29.6161 44.8035C29.743 44.9349 29.9162 45.0121 30.0992 45.0191H42.5568C42.652 45.0227 42.7469 45.0072 42.8359 44.9734C42.925 44.9396 43.0062 44.8883 43.0748 44.8226C43.1435 44.7568 43.1981 44.6779 43.2354 44.5906C43.2727 44.5033 43.2919 44.4094 43.2919 44.3146C43.2919 44.2197 43.2727 44.1259 43.2354 44.0386C43.1981 43.9513 43.1435 43.8724 43.0748 43.8066C43.0062 43.7408 42.925 43.6895 42.8359 43.6557C42.7469 43.622 42.652 43.6064 42.5568 43.6101V43.6101ZM41.7299 43.6101H30.9292V42.7372C30.9265 41.6804 31.1342 40.6335 31.5403 39.657C31.9464 38.6806 32.5429 37.794 33.2952 37.0485L35.1413 35.2113C35.4605 34.8917 35.6397 34.4593 35.6397 34.0086C35.6397 33.5579 35.4605 33.1255 35.1413 32.8059L33.2952 30.9697C32.5428 30.224 31.9464 29.3372 31.5402 28.3606C31.1341 27.384 30.9264 26.3369 30.9292 25.2799V24.4081H41.7278V25.2799C41.7307 26.3371 41.523 27.3843 41.1167 28.3609C40.7104 29.3376 40.1135 30.2243 39.3607 30.9697L37.5156 32.8059C37.1959 33.1252 37.0164 33.5577 37.0164 34.0086C37.0164 34.4595 37.1959 34.892 37.5156 35.2113L39.3607 37.0485C40.1134 37.7938 40.7102 38.6803 41.1165 39.6568C41.5228 40.6333 41.7306 41.6803 41.7278 42.7372L41.7299 43.6101ZM37.8909 41.1326C37.6149 40.7837 37.3844 40.4286 37.0639 40.1229C36.9885 40.0498 36.9719 40.0735 36.8717 40.092C36.8524 40.0953 36.8326 40.0944 36.8137 40.0893C36.7949 40.0842 36.7773 40.0751 36.7624 40.0625C36.7474 40.05 36.7354 40.0343 36.7271 40.0167C36.7189 39.999 36.7146 39.9798 36.7146 39.9603V34.0091C36.7141 33.7454 36.766 33.4843 36.8673 33.2407C36.9686 32.9971 37.1173 32.7759 37.3048 32.5897L39.1509 30.7515C39.7415 30.1653 40.2329 29.4879 40.6063 28.7454H32.061C32.4344 29.4879 32.9259 30.1653 33.5164 30.7515L35.3636 32.5897C35.5508 32.7761 35.6992 32.9973 35.8003 33.2409C35.9014 33.4845 35.9532 33.7455 35.9528 34.0091V40.2629C35.9528 40.4502 35.8732 40.4832 35.8328 40.5089C35.6402 40.6132 35.4735 40.7592 35.345 40.936C35.2829 41.039 35.2416 41.1501 35.1848 41.2551C35.1259 41.3547 35.0475 41.4414 34.9543 41.5102C34.8611 41.579 34.7549 41.6284 34.6421 41.6555C34.4726 41.6956 34.2917 41.6833 34.1191 41.7162C33.8338 41.7749 33.5909 41.9612 33.3665 42.1485C32.9275 42.51 32.5092 42.8959 32.1138 43.3044H40.751C40.72 43.2333 40.6859 43.1634 40.6476 43.0923C40.6186 43.0319 40.5802 42.9763 40.5339 42.9276C40.4683 42.8794 40.3939 42.8445 40.3148 42.8247C39.3553 42.5131 38.5107 41.9241 37.8888 41.1326H37.8909Z" fill="#F59F23"/>
</svg>
