<svg width="51" height="57" viewBox="0 0 51 57" fill="none" xmlns="http://www.w3.org/2000/svg">
<path fill-rule="evenodd" clip-rule="evenodd" d="M22.9496 14.2493H28.0498C28.9884 14.2493 29.7497 14.9999 29.7497 15.9256V25.9845H21.2498V15.9256C21.2498 15 22.011 14.2493 22.9496 14.2493ZM9.292e-05 35.2102C9.292e-05 31.5045 3.04046 28.4998 6.79403 28.4998H44.2059C47.9619 28.4998 50.9998 31.4977 50.9998 35.2102V41.9118H49.3069C48.5017 41.9118 48.2082 41.7213 47.489 40.8522C47.4305 40.781 47.4305 40.781 47.3692 40.7067C46.1427 39.2224 45.1647 38.5588 43.35 38.5588C41.4801 38.5588 40.5076 39.2164 39.0956 40.8076C38.2764 41.7309 38.0091 41.9118 37.3998 41.9118C36.7906 41.9118 36.5237 41.7309 35.7044 40.8076C34.2921 39.2164 33.32 38.5588 31.4501 38.5588C29.5802 38.5588 28.6077 39.2164 27.1957 40.8076C26.3765 41.7309 26.1092 41.9118 25.4999 41.9118C24.8907 41.9118 24.6234 41.7309 23.8041 40.8076C22.3922 39.2164 21.4197 38.5588 19.5498 38.5588C17.6798 38.5588 16.7078 39.2164 15.2954 40.8076C14.4761 41.7309 14.2093 41.9118 13.6 41.9118C13.0602 41.9118 12.8638 41.7782 12.2256 41.0029C12.1664 40.9305 12.1664 40.9305 12.1039 40.8546C10.8076 39.2813 9.69331 38.5588 7.64999 38.5588C5.6301 38.5588 4.42177 39.292 3.07669 40.8077C3.01944 40.8725 2.8102 41.1106 2.76261 41.1647C2.21147 41.7858 2.01835 41.9118 1.69982 41.9118H0L9.292e-05 35.2102ZM51 45.2647V50.2896C51 53.9953 47.9596 57 44.2061 57H6.79423C3.03819 57 0.000299234 54.0021 0.000299234 50.2896V45.2647H1.70012C3.24833 45.2647 4.18447 44.654 5.32148 43.3725C5.37671 43.3101 5.58596 43.0719 5.63596 43.0155C6.39837 42.1563 6.80155 41.9117 7.65028 41.9117C8.45824 41.9117 8.75053 42.1014 9.46539 42.969C9.52425 43.0409 9.52425 43.0409 9.58634 43.1161C10.8076 44.5999 11.7853 45.2647 13.6004 45.2647C15.4703 45.2647 16.4424 44.607 17.8548 43.0154C18.674 42.0922 18.9409 41.9116 19.5502 41.9116C20.1594 41.9116 20.4267 42.0921 21.246 43.0154C22.6579 44.607 23.6304 45.2647 25.5003 45.2647C27.3703 45.2647 28.3427 44.607 29.7547 43.0154C30.574 42.0922 30.8412 41.9116 31.4505 41.9116C32.0597 41.9116 32.3266 42.0921 33.1459 43.0154C34.5583 44.607 35.5303 45.2647 37.4002 45.2647C39.2702 45.2647 40.2426 44.607 41.6546 43.0154C42.4739 42.0922 42.7411 41.9116 43.3504 41.9116C43.8919 41.9116 44.091 42.0464 44.7337 42.8245C44.7929 42.8961 44.7929 42.8961 44.8546 42.9712C46.1553 44.5433 47.2677 45.2646 49.3074 45.2646L51 45.2647ZM25.5 11.7352C22.6834 11.7352 20.4003 9.48363 20.4003 6.70598C20.4003 5.81813 20.7547 4.92706 21.3667 3.95571C21.6783 3.46109 22.0549 2.95335 22.4834 2.43604C22.887 1.94897 23.3152 1.47861 23.7434 1.03963C24.0018 0.774822 24.2062 0.575625 24.3308 0.459528C24.9864 -0.153176 26.0137 -0.153176 26.6692 0.459528C26.7938 0.575625 26.9982 0.774832 27.2566 1.03963C27.6848 1.47858 28.113 1.94895 28.5166 2.43604C28.9451 2.95332 29.3217 3.46103 29.6333 3.95571C30.2454 4.92706 30.5998 5.8181 30.5998 6.70598C30.5998 9.48363 28.3166 11.7352 25.5 11.7352Z" fill="black" fill-opacity="0.48"/>
</svg>
