<svg width="16" height="17" viewBox="0 0 16 17" fill="none" xmlns="http://www.w3.org/2000/svg">
<path d="M13.4127 0H2.64373C1.24507 0 0.103027 1.14221 0.103027 2.5407V10.5359C0.103027 11.9345 1.24524 13.0766 2.64373 13.0766H4.60169C4.83485 13.0766 5.02118 13.2631 5.02118 13.4961V15.6405C5.02118 15.9202 5.27759 16.1067 5.55725 16.0368C6.18665 15.8735 7.2822 15.2676 8.2612 13.3096C8.33112 13.1697 8.47095 13.0764 8.6342 13.0764H13.4593C14.8579 13.0764 16 11.9342 16 10.5357V2.54095C15.9533 1.14246 14.8112 0.00024548 13.4126 0.00024548L13.4127 0Z" fill="#F59F23"/>
</svg>
