<svg width="17" height="15" viewBox="0 0 17 15" fill="none" xmlns="http://www.w3.org/2000/svg">
<path d="M16.7835 6.72481L15.2424 12.3287C14.9903 13.2533 14.1496 13.8977 13.1689 13.8977H5.18344V5.40786H5.23954C6.69659 5.40786 7.92948 4.42709 8.26561 3.02612L8.71396 1.03666C8.8541 0.420239 9.38648 0 10.0309 0C10.7874 0 11.3757 0.588503 11.3757 1.34487V5.0994C11.3757 5.26748 11.5159 5.43557 11.7119 5.43557H15.7467C16.447 5.40781 16.9515 6.05219 16.7834 6.72475L16.7835 6.72481ZM4.51108 4.73535H0.33617C0.139941 4.73535 0 4.87548 0 5.07152V14.2058C0 14.402 0.140136 14.542 0.33617 14.542H4.51108C4.70731 14.542 4.84725 14.4018 4.84725 14.2058V5.09954C4.84725 4.90331 4.67917 4.73523 4.51108 4.73523V4.73535Z" fill="#F59F23"/>
</svg>
