<?xml version="1.0" encoding="UTF-8" standalone="no"?>
<!-- Created with Inkscape (http://www.inkscape.org/) -->

<svg
   version="1.1"
   id="svg2"
   xml:space="preserve"
   width="2000"
   height="2000"
   viewBox="0 0 2000 2000"
   sodipodi:docname="Flight.ai"
   xmlns:inkscape="http://www.inkscape.org/namespaces/inkscape"
   xmlns:sodipodi="http://sodipodi.sourceforge.net/DTD/sodipodi-0.dtd"
   xmlns="http://www.w3.org/2000/svg"
   xmlns:svg="http://www.w3.org/2000/svg"><defs
     id="defs6"><clipPath
       clipPathUnits="userSpaceOnUse"
       id="clipPath16"><path
         d="M 0,1500 H 1500 V 0 H 0 Z"
         id="path14" /></clipPath></defs><sodipodi:namedview
     id="namedview4"
     pagecolor="#ffffff"
     bordercolor="#666666"
     borderopacity="1.0"
     inkscape:pageshadow="2"
     inkscape:pageopacity="0.0"
     inkscape:pagecheckerboard="0" /><g
     id="g8"
     inkscape:groupmode="layer"
     inkscape:label="Flight"
     transform="matrix(1.3333333,0,0,-1.3333333,0,2000)"><g
       id="g10"><g
         id="g12"
         clip-path="url(#clipPath16)"><g
           id="g18"
           transform="translate(704.5054,381.8887)"><path
             d="m 0,0 c 4.406,1.132 5.405,1.264 6.303,1.638 49.801,20.718 49.571,20.827 72.301,70.241 40.354,87.726 81.096,175.274 121.406,263.021 3.202,6.971 7.74,11.054 14.545,14.066 108.575,48.056 216.99,96.473 325.676,144.277 18.284,8.042 38.603,11.242 54.959,24.005 7.379,5.758 15.033,11.386 13.805,21.66 -1.325,11.071 -10.806,15.062 -19.943,18.191 -18.819,6.443 -38.428,7.156 -58.084,7.071 -41.586,-0.178 -80.89,-7.52 -119.636,-25.067 -192.491,-87.178 -385.856,-172.42 -578.681,-258.865 -11.988,-5.374 -21.059,-4.84 -32.144,1.26 -69.167,38.06 -138.612,75.615 -207.996,113.281 -12.794,6.946 -32.753,4.309 -42.615,-5.326 -6.135,-5.996 0.754,-9.172 3.331,-12.194 22.807,-26.743 46.007,-53.152 69.074,-79.673 28.337,-32.58 56.231,-65.56 85.22,-97.547 9.846,-10.864 7.218,-15.09 -4.896,-19.238 -8.06,-2.761 -15.429,-7.609 -23.541,-10.13 -13.298,-4.136 -15.475,-10.537 -9.036,-23.038 4.738,-9.196 8.298,-14.455 18.644,-7.681 16.751,10.97 35.639,8.875 54.138,7.943 9.328,-0.47 17.684,1.277 26.19,5.106 57.348,25.816 114.83,51.335 172.308,76.86 5.026,2.233 10.203,4.63 15.549,5.533 10.614,1.793 19.228,-2.617 23.411,-12.383 4.106,-9.588 2.379,-19.011 -6.688,-25.514 -4.439,-3.185 -9.451,-5.699 -14.462,-7.939 -59.708,-26.703 -119.474,-53.274 -179.197,-79.944 -7.391,-3.301 -14.809,-7.151 -23.076,-5.76 -30.444,5.127 -57.101,-5.361 -83.653,-18.391 -22.751,-11.164 -18.964,-10.098 -28.583,11.15 -11.618,25.668 -22.631,51.616 -34.62,77.107 -4.227,8.988 -2.508,12.926 6.498,17.003 29.502,13.349 29.251,13.629 7.384,38.707 -47.185,54.114 -94.041,108.519 -141.6,162.302 -8.75,9.896 -7.737,13.733 4.129,18.647 26.022,10.777 51.9,22.034 77.148,34.491 11.903,5.872 21.08,4.528 32.21,-1.611 69.567,-38.374 139.601,-75.903 209.132,-114.341 10.353,-5.724 18.444,-5.952 29.196,-1.14 196.551,87.971 392.878,176.465 590.237,262.593 57.797,25.222 119.632,24.421 180.238,7.34 25.87,-7.291 43.467,-25.342 47.831,-53.011 4.266,-27.049 -9.466,-46.103 -29.881,-61.65 C 607.124,471.316 589.624,463.545 571.398,458.073 546.679,450.65 523.777,439.181 500.376,428.819 417.568,392.153 334.965,355.021 252.089,318.508 241.641,313.904 235.528,307.274 230.805,296.959 185.791,198.652 140.232,100.596 94.919,2.426 91.879,-4.162 88.254,-9.4 81.119,-12.538 29.997,-35.021 -20.97,-57.854 -72.006,-80.529 c -1.253,-0.557 -2.74,-0.588 -6.795,-1.401 5.551,14.327 10.456,27.166 15.49,39.955 32.29,82.041 60.568,165.287 74.267,252.755 3.89,24.84 5.849,49.787 -0.635,74.796 -3.385,13.058 3.734,24.292 15.192,27.212 12.159,3.099 23.585,-3.763 27.34,-17.463 6.195,-22.604 6.087,-45.711 3.875,-68.839 C 50.318,159.441 31.523,95.318 10.552,31.719 7.309,21.883 4.015,12.063 0,0"
             style="fill:#f4a128;fill-opacity:1;fill-rule:nonzero;stroke:none"
             id="path20" /></g><g
           id="g22"
           transform="translate(551.5854,861.0981)"><path
             d="m 0,0 c 29.181,-14.526 54.41,-26.82 79.382,-39.616 14.477,-7.417 19.336,-20.819 11.816,-32.188 -6.17,-9.328 -15.578,-14.057 -26.063,-9.021 -54.775,26.31 -109.469,52.805 -162.968,81.67 -0.259,0.139 -0.211,0.845 -0.366,1.563 2.335,4.298 7.226,4.837 11.167,6.606 42.668,19.149 85.476,37.988 128.069,57.303 8.715,3.953 16.756,4.947 26.11,2.264 49.77,-14.277 99.684,-28.05 149.535,-42.042 16.548,-4.645 24.954,-16.215 21.276,-29.055 -3.69,-12.879 -16.344,-17.949 -33.479,-13.183 C 161.862,-3.846 119.106,7.553 76.764,20.322 63.29,24.385 51.749,24.504 39.33,17.759 28.008,11.609 15.822,7.05 0,0"
             style="fill:#f4a128;fill-opacity:1;fill-rule:nonzero;stroke:none"
             id="path24" /></g><g
           id="g26"
           transform="translate(1332.333,81.667)"><path
             d="m 0,0 h -1162.667 c -47.864,0 -86.666,38.802 -86.666,86.666 v 1162.667 c 0,47.865 38.802,86.667 86.666,86.667 L 0,1336 c 47.865,0 86.667,-38.802 86.667,-86.667 V 86.666 C 86.667,38.802 47.865,0 0,0 Z"
             style="fill:none;stroke:#f4a128;stroke-width:32;stroke-linecap:butt;stroke-linejoin:miter;stroke-miterlimit:10;stroke-dasharray:none;stroke-opacity:1"
             id="path28" /></g></g></g></g></svg>
