<?xml version="1.0" encoding="UTF-8" standalone="no"?>
<!-- Created with Inkscape (http://www.inkscape.org/) -->

<svg
   version="1.1"
   id="svg2"
   xml:space="preserve"
   width="2000"
   height="2000"
   viewBox="0 0 2000 2000"
   sodipodi:docname="Food.ai"
   xmlns:inkscape="http://www.inkscape.org/namespaces/inkscape"
   xmlns:sodipodi="http://sodipodi.sourceforge.net/DTD/sodipodi-0.dtd"
   xmlns="http://www.w3.org/2000/svg"
   xmlns:svg="http://www.w3.org/2000/svg"><defs
     id="defs6"><clipPath
       clipPathUnits="userSpaceOnUse"
       id="clipPath16"><path
         d="M 0,1500 H 1500 V 0 H 0 Z"
         id="path14" /></clipPath></defs><sodipodi:namedview
     id="namedview4"
     pagecolor="#ffffff"
     bordercolor="#666666"
     borderopacity="1.0"
     inkscape:pageshadow="2"
     inkscape:pageopacity="0.0"
     inkscape:pagecheckerboard="0" /><g
     id="g8"
     inkscape:groupmode="layer"
     inkscape:label="Food"
     transform="matrix(1.3333333,0,0,-1.3333333,0,2000)"><g
       id="g10"><g
         id="g12"
         clip-path="url(#clipPath16)"><g
           id="g18"
           transform="translate(1192.5596,410.1777)"><path
             d="m 0,0 c -38.289,-55.739 -69.712,-100.896 -100.45,-146.513 -12.631,-18.745 -30.782,-19.518 -50.465,-19.508 -232.549,0.135 -465.099,0.389 -697.643,-0.591 -29.333,-0.123 -48.741,9.31 -64.222,34.189 -21.036,33.81 -45.012,65.793 -67.753,98.541 -13.306,19.161 -20.509,34.156 14.615,34.113 C -648.697,-0.163 -331.476,0 0,0"
             style="fill:#f4a128;fill-opacity:1;fill-rule:nonzero;stroke:none"
             id="path20" /></g><g
           id="g22"
           transform="translate(556.1235,778.7388)"><path
             d="m 0,0 c 18.607,-0.852 29.993,1.295 39.226,-2.217 75.635,-28.768 150.838,-56.396 233.65,-27.506 9.588,3.345 27.849,-0.73 34.164,-8.127 63.987,-74.962 185.226,-78.158 226.382,-182.141 9.397,-23.739 43.87,-26.27 54.921,-52.766 8.612,-20.645 10.924,-32.547 -17.728,-30.915 -44.64,2.543 -84.757,8.005 -99.829,61.568 -10.603,37.682 -39.399,60.987 -79.495,65.146 -31.657,3.284 -52.332,17.872 -69.244,45.399 -27.426,44.642 -74.396,53.89 -115.636,22.476 -31.802,-24.223 -56.003,-20.875 -86.211,2.932 -105.632,83.247 -245.661,39.862 -287.705,-88.348 -7.536,-22.978 -14.18,-35.553 -43.713,-32.302 -32.626,3.591 -57.539,-18.07 -63.234,-50.29 -6.934,-39.232 -35.297,-29.006 -54.916,-24.295 -25.21,6.053 -9.947,27.77 -6.572,42.9 7.557,33.877 25.978,66.415 56.897,76.321 44.72,14.329 62.445,47.924 86.353,81.545 C -144.389,-32.694 -75.231,-0.886 0,0"
             style="fill:#f4a128;fill-opacity:1;fill-rule:nonzero;stroke:none"
             id="path24" /></g><g
           id="g26"
           transform="translate(1377.6162,1015.5181)"><path
             d="m 0,0 c 0.249,-17.032 -9.922,-29.353 -19.53,-41.479 -39.346,-49.656 -68.033,-107.087 -118.833,-148.69 -27.873,-22.827 -44.936,-56.149 -31.584,-97.242 9.101,-28.01 0.944,-53.434 -17.805,-77.227 -24.603,-31.226 -46.062,-64.919 -69.215,-97.307 -7.947,-11.117 -15.223,-23.806 -32.859,-11.933 -19.037,12.816 -12.134,25.051 -2.144,38.937 17.183,23.884 35.396,47.261 49.955,72.695 7.121,12.44 34.758,27.172 11.972,41.384 -19.315,12.049 -25.566,-16.454 -35.209,-28.685 -18.193,-23.078 -34.551,-47.629 -51.203,-71.889 -8.732,-12.722 -17.612,-21.347 -33.679,-10.416 -15.722,10.698 -19.759,22.338 -7.474,38.762 15.55,20.789 31.091,41.757 44.425,63.976 9.773,16.284 39.603,37.791 20.622,50.27 -24.436,16.066 -30.148,-22.598 -43.578,-37.097 -16.321,-17.62 -28.439,-39.142 -42.313,-59.017 -8.349,-11.959 -17.023,-23.053 -33.62,-12.567 -18.853,11.91 -12.423,24.768 -2.195,38.959 26.319,36.516 52.659,73.057 77.561,110.537 13.147,19.789 32.376,26.726 53.164,27.249 47.285,1.191 75.859,32.042 88.221,68.915 22.209,66.252 72.247,112.658 106.65,169.831 11.485,19.086 30.484,29.066 53.481,18.259 C -15.855,37.139 1.096,25.117 0,0"
             style="fill:#f4a128;fill-opacity:1;fill-rule:nonzero;stroke:none"
             id="path28" /></g><g
           id="g30"
           transform="translate(392.9346,632.4492)"><path
             d="m 0,0 c -100.686,85.251 -174.918,185.651 -228.425,301.503 -16.467,35.654 -3.132,61.533 29.133,76.66 33.423,15.671 50.96,-5.257 62.84,-34.106 C -98.204,251.179 -55.413,160.605 4.803,79.539 25.895,51.144 -0.266,27.16 0,0"
             style="fill:#f4a128;fill-opacity:1;fill-rule:nonzero;stroke:none"
             id="path32" /></g><g
           id="g34"
           transform="translate(733.9551,1011.875)"><path
             d="m 0,0 c 4.699,46.37 -20.502,79.423 -44.584,114.021 -51.42,73.872 -43.669,128.16 32.501,192.108 -34.002,-66.772 2.111,-109.99 37.17,-159.054 C 60.814,97.076 34.68,45.929 0,0"
             style="fill:#f4a128;fill-opacity:1;fill-rule:nonzero;stroke:none"
             id="path36" /></g><g
           id="g38"
           transform="translate(897.0879,852.7969)"><path
             d="m 0,0 c 1.501,-55.688 -43.062,-99.483 -97.345,-100.956 -20.598,-0.558 -21.936,9.427 -23.785,24.196 -6.979,55.758 41.192,110.255 96.966,111.275 C 5.253,35.053 -5.004,12.438 0,0"
             style="fill:#f4a128;fill-opacity:1;fill-rule:nonzero;stroke:none"
             id="path40" /></g><g
           id="g42"
           transform="translate(635.5718,942.0981)"><path
             d="M 0,0 C -11.733,57.962 -92.337,106.44 -17.515,172.167 -43.286,111.884 65.776,66.564 0,0"
             style="fill:#f4a128;fill-opacity:1;fill-rule:nonzero;stroke:none"
             id="path44" /></g><g
           id="g46"
           transform="translate(502.397,568.3291)"><path
             d="M 0,0 C -28.408,-1.044 -42.902,15.783 -44.132,40.749 -45.415,66.801 -28.518,83.053 -2.611,84.278 24.282,85.552 40.313,68.134 41.045,43.104 41.775,18.173 27.874,0.752 0,0"
             style="fill:#f4a128;fill-opacity:1;fill-rule:nonzero;stroke:none"
             id="path48" /></g><g
           id="g50"
           transform="translate(688.2886,831.25)"><path
             d="m 0,0 c 38.244,-6.231 62.082,-23.035 66.979,-58.503 1.643,-11.898 7.005,-28.064 -15.362,-30.592 -29.399,-3.323 -63.199,26.71 -65.522,59.431 C -14.948,-14.982 -13,-2.982 0,0"
             style="fill:#f4a128;fill-opacity:1;fill-rule:nonzero;stroke:none"
             id="path52" /></g><g
           id="g54"
           transform="translate(892.3125,504.0557)"><path
             d="m 0,0 c -2.44,-16.674 -12.514,-27.418 -30.483,-26.057 -18.123,1.372 -27.19,13.642 -25.621,31.626 1.402,16.072 13.263,24.906 27.721,24.891 C -11.022,30.442 -0.535,19.569 0,0"
             style="fill:#f4a128;fill-opacity:1;fill-rule:nonzero;stroke:none"
             id="path56" /></g><g
           id="g58"
           transform="translate(1331.333,83.7773)"><path
             d="m 0,0 h -1162.667 c -47.864,0 -86.666,38.803 -86.666,86.667 v 1162.667 c 0,47.864 38.802,86.666 86.666,86.666 L 0,1336 c 47.865,0 86.667,-38.802 86.667,-86.666 V 86.667 C 86.667,38.803 47.865,0 0,0 Z"
             style="fill:none;stroke:#f4a128;stroke-width:32;stroke-linecap:butt;stroke-linejoin:miter;stroke-miterlimit:10;stroke-dasharray:none;stroke-opacity:1"
             id="path60" /></g></g></g></g></svg>
