<?xml version="1.0" encoding="UTF-8" standalone="no"?>
<!-- Created with Inkscape (http://www.inkscape.org/) -->

<svg
   version="1.1"
   id="svg2"
   xml:space="preserve"
   width="2000"
   height="2000"
   viewBox="0 0 2000 2000"
   sodipodi:docname="Incidental Expense.ai"
   xmlns:inkscape="http://www.inkscape.org/namespaces/inkscape"
   xmlns:sodipodi="http://sodipodi.sourceforge.net/DTD/sodipodi-0.dtd"
   xmlns="http://www.w3.org/2000/svg"
   xmlns:svg="http://www.w3.org/2000/svg"><defs
     id="defs6"><clipPath
       clipPathUnits="userSpaceOnUse"
       id="clipPath16"><path
         d="M 0,1500 H 1500 V 0 H 0 Z"
         id="path14" /></clipPath></defs><sodipodi:namedview
     id="namedview4"
     pagecolor="#ffffff"
     bordercolor="#666666"
     borderopacity="1.0"
     inkscape:pageshadow="2"
     inkscape:pageopacity="0.0"
     inkscape:pagecheckerboard="0" /><g
     id="g8"
     inkscape:groupmode="layer"
     inkscape:label="Incidental Expense"
     transform="matrix(1.3333333,0,0,-1.3333333,0,2000)"><g
       id="g10"><g
         id="g12"
         clip-path="url(#clipPath16)"><g
           id="g18"
           transform="translate(1331.333,83.7773)"><path
             d="m 0,0 h -1162.667 c -47.864,0 -86.666,38.803 -86.666,86.667 v 1162.667 c 0,47.864 38.802,86.666 86.666,86.666 L 0,1336 c 47.865,0 86.667,-38.802 86.667,-86.666 V 86.667 C 86.667,38.803 47.865,0 0,0 Z"
             style="fill:none;stroke:#f4a128;stroke-width:32;stroke-linecap:butt;stroke-linejoin:miter;stroke-miterlimit:10;stroke-dasharray:none;stroke-opacity:1"
             id="path20" /></g><g
           id="g22"
           transform="translate(1111.8271,217.6855)"><path
             d="m 0,0 h -555.061 c -9.998,0 -18.103,8.105 -18.103,18.104 v 827.953 c 0,9.998 8.105,18.103 18.103,18.103 H 0 c 9.998,0 18.104,-8.105 18.104,-18.103 V 18.104 C 18.104,8.105 9.998,0 0,0 Z"
             style="fill:none;stroke:#f4a128;stroke-width:10;stroke-linecap:butt;stroke-linejoin:miter;stroke-miterlimit:10;stroke-dasharray:none;stroke-opacity:1"
             id="path24" /></g><g
           id="g26"
           transform="translate(630.4541,933.2158)"><path
             d="M 0,0 H 415.679"
             style="fill:none;stroke:#f4a128;stroke-width:10;stroke-linecap:round;stroke-linejoin:miter;stroke-miterlimit:10;stroke-dasharray:none;stroke-opacity:1"
             id="path28" /></g><g
           id="g30"
           transform="translate(630.4541,837.2896)"><path
             d="M 0,0 H 415.679"
             style="fill:none;stroke:#f4a128;stroke-width:10;stroke-linecap:round;stroke-linejoin:miter;stroke-miterlimit:10;stroke-dasharray:none;stroke-opacity:1"
             id="path32" /></g><g
           id="g34"
           transform="translate(630.4541,741.3643)"><path
             d="M 0,0 H 415.679"
             style="fill:none;stroke:#f4a128;stroke-width:10;stroke-linecap:round;stroke-linejoin:miter;stroke-miterlimit:10;stroke-dasharray:none;stroke-opacity:1"
             id="path36" /></g><g
           id="g38"
           transform="translate(630.4541,645.4375)"><path
             d="M 0,0 H 415.679"
             style="fill:none;stroke:#f4a128;stroke-width:10;stroke-linecap:round;stroke-linejoin:miter;stroke-miterlimit:10;stroke-dasharray:none;stroke-opacity:1"
             id="path40" /></g><g
           id="g42"
           transform="translate(630.4541,549.5117)"><path
             d="M 0,0 H 415.679"
             style="fill:none;stroke:#f4a128;stroke-width:10;stroke-linecap:round;stroke-linejoin:miter;stroke-miterlimit:10;stroke-dasharray:none;stroke-opacity:1"
             id="path44" /></g><g
           id="g46"
           transform="translate(630.4541,453.5859)"><path
             d="M 0,0 H 415.679"
             style="fill:none;stroke:#f4a128;stroke-width:10;stroke-linecap:round;stroke-linejoin:miter;stroke-miterlimit:10;stroke-dasharray:none;stroke-opacity:1"
             id="path48" /></g><g
           id="g50"
           transform="translate(630.4541,357.6602)"><path
             d="M 0,0 H 415.679"
             style="fill:none;stroke:#f4a128;stroke-width:10;stroke-linecap:round;stroke-linejoin:miter;stroke-miterlimit:10;stroke-dasharray:none;stroke-opacity:1"
             id="path52" /></g><g
           id="g54"
           transform="translate(669.0947,1114.4409)"><path
             d="m 0,0 c 0,-100.088 -81.137,-181.225 -181.226,-181.225 -100.087,0 -181.225,81.137 -181.225,181.225 0,100.088 81.138,181.226 181.225,181.226 C -81.137,181.226 0,100.088 0,0"
             style="fill:#ffffff;fill-opacity:1;fill-rule:nonzero;stroke:none"
             id="path56" /></g><g
           id="g58"
           transform="translate(669.0947,1114.4409)"><path
             d="m 0,0 c 0,-100.088 -81.137,-181.225 -181.226,-181.225 -100.087,0 -181.225,81.137 -181.225,181.225 0,100.088 81.138,181.226 181.225,181.226 C -81.137,181.226 0,100.088 0,0 Z"
             style="fill:none;stroke:#f4a128;stroke-width:15;stroke-linecap:round;stroke-linejoin:miter;stroke-miterlimit:10;stroke-dasharray:none;stroke-opacity:1"
             id="path60" /></g><g
           id="g62"
           transform="translate(395.7578,1160.5054)"><path
             d="m 0,0 c 5.109,7.577 10.215,15.009 15.144,22.557 1.215,1.86 2.807,1.482 4.398,1.484 24.179,0.019 48.359,0.012 72.538,0.011 h 4.625 c -3.418,7.978 -9.185,13.262 -16.05,17.393 -10.786,6.49 -22.729,9.169 -35.172,9.378 -14.659,0.247 -29.326,0.058 -45.171,0.058 5.771,8.649 10.833,16.222 15.876,23.808 0.761,1.144 1.877,0.989 2.99,0.992 54.507,0.128 109.014,0.261 163.522,0.385 0.259,0 0.52,-0.112 1.29,-0.289 -5.149,-7.925 -10.181,-15.713 -15.269,-23.465 -0.943,-1.436 -2.551,-0.804 -3.862,-0.809 -12.16,-0.038 -24.319,10e-4 -36.479,-0.037 -1.481,-0.005 -3.041,0.392 -4.709,-0.543 2.721,-4.557 5.795,-8.84 7.906,-13.651 1.062,-2.421 2.524,-4.832 2.86,-7.372 0.67,-5.064 3.235,-6.099 8.02,-5.973 13.668,0.358 27.352,0.125 41.766,0.125 -5.36,-8.213 -10.42,-15.973 -15.491,-23.727 -0.869,-1.33 -2.268,-0.804 -3.443,-0.839 -7.962,-0.234 -15.927,-0.585 -23.887,-0.506 -3.21,0.033 -4.268,-0.712 -4.989,-4.083 -6.111,-28.556 -24.698,-45.612 -51.544,-54.752 -10.762,-3.665 -21.91,-5.398 -33.248,-6.062 -0.693,-1.854 0.972,-2.548 1.73,-3.493 29.336,-36.602 58.726,-73.16 88.108,-109.724 0.787,-0.978 1.665,-1.902 2.317,-2.964 1.952,-3.176 0.896,-5.107 -2.744,-5.175 -10.199,-0.19 -20.4,-0.336 -30.597,-0.615 -2.246,-0.062 -3.848,0.45 -5.382,2.273 -31.554,37.494 -63.172,74.936 -94.811,112.358 -1.162,1.374 -1.648,2.772 -1.657,4.537 -0.028,6.005 -0.024,12.017 -0.329,18.012 -0.134,2.643 0.909,2.843 3.084,2.679 15.973,-1.208 31.856,-0.601 47.431,3.416 13.504,3.483 25.778,9.132 34.1,21.098 4.01,5.767 5.829,12.265 6.912,19.101 0.503,3.173 -0.373,3.987 -3.613,3.974 C 65.702,-0.571 35.233,-0.528 4.765,-0.503 3.298,-0.502 1.763,-0.895 0,0"
             style="fill:#f4a128;fill-opacity:1;fill-rule:nonzero;stroke:none"
             id="path64" /></g></g></g></g></svg>
