<?xml version="1.0" encoding="UTF-8" standalone="no"?>
<!-- Created with Inkscape (http://www.inkscape.org/) -->

<svg
   version="1.1"
   id="svg2"
   xml:space="preserve"
   width="2000"
   height="2000"
   viewBox="0 0 2000 2000"
   sodipodi:docname="Local Travel.ai"
   xmlns:inkscape="http://www.inkscape.org/namespaces/inkscape"
   xmlns:sodipodi="http://sodipodi.sourceforge.net/DTD/sodipodi-0.dtd"
   xmlns="http://www.w3.org/2000/svg"
   xmlns:svg="http://www.w3.org/2000/svg"><defs
     id="defs6"><clipPath
       clipPathUnits="userSpaceOnUse"
       id="clipPath16"><path
         d="M 0,1500 H 1500 V 0 H 0 Z"
         id="path14" /></clipPath></defs><sodipodi:namedview
     id="namedview4"
     pagecolor="#ffffff"
     bordercolor="#666666"
     borderopacity="1.0"
     inkscape:pageshadow="2"
     inkscape:pageopacity="0.0"
     inkscape:pagecheckerboard="0" /><g
     id="g8"
     inkscape:groupmode="layer"
     inkscape:label="Local Travel"
     transform="matrix(1.3333333,0,0,-1.3333333,0,2000)"><g
       id="g10"><g
         id="g12"
         clip-path="url(#clipPath16)"><g
           id="g18"
           transform="translate(790.1494,776.0991)"><path
             d="m 0,0 v -0.106 c -8.2,0 -16.428,0.419 -24.591,-0.127 -7.172,-0.479 -13.172,-3.095 -12.811,-12.118 0.305,-7.63 5.532,-10.695 11.751,-10.915 16.384,-0.579 32.805,-0.588 49.199,-0.234 7.446,0.162 13.297,4.259 12.961,12.294 C 36.167,-3.021 29.697,-0.292 22.371,-0.054 14.922,0.189 7.458,0 0,0 m 291.492,54.718 c 0.67,2.394 1.261,3.301 1.018,3.805 -29.397,60.861 -118.493,108.831 -186.175,101.071 -8.093,-0.928 -10.232,-4.743 -11.149,-10.873 -4.077,-27.237 -7.689,-54.545 -11.974,-81.747 -1.356,-8.605 0.732,-12.37 9.945,-12.347 66.273,0.171 132.546,0.091 198.335,0.091 m -565.55,-0.086 c 105.548,0 209.234,0.049 312.92,-0.088 8.659,-0.011 13.056,1.901 14.35,12.009 3.491,27.285 8.086,54.463 13.321,81.474 2.215,11.43 0.628,15.435 -12.27,15.827 -121.74,3.701 -233.249,-23.565 -328.321,-109.222 m -4.431,-270.952 c 17.475,70.517 1.289,123.244 -47.27,156.458 -43.581,29.809 -102.831,30.585 -145.444,1.905 -46.264,-31.136 -68.28,-85.703 -53.566,-140.956 4.913,-18.446 -0.185,-20.511 -15.458,-18.854 -28.171,3.057 -56.55,4.829 -83.736,13.734 -19.014,6.229 -32.73,16.79 -34.355,39.023 -1.63,22.301 -6.103,44.444 -6.882,66.743 -0.95,27.241 9.861,35.961 35.989,33.195 20.636,-2.184 40.084,-0.011 56.45,15.08 13.001,11.989 33.213,13.211 45.563,29.284 -26.493,15.948 -53.754,7.551 -83.729,4.738 25.696,25.868 55.952,33.364 86.391,39.183 60.772,11.619 121.892,21.312 183.403,28.22 11.536,1.296 21.465,5.3 30.992,11.714 26.617,17.922 54.064,34.654 80.2,53.24 68.978,49.052 147.444,65.238 229.979,69.816 119.96,6.653 232.541,-19.917 339.453,-72.92 C 388.435,89.018 440.012,72.146 492.003,56.181 503.81,52.556 515.395,48.207 526.884,41.739 508.82,37.353 490.385,38.519 473.168,32.988 461.25,29.161 446.299,26.465 447.936,9.62 c 1.619,-16.649 15.592,-21.269 29.627,-20.83 24.592,0.768 49.242,2.485 73.634,5.619 12.197,1.567 17.716,-1.378 20.076,-13.348 6.51,-33.019 12.106,-66.072 10.69,-99.925 -0.89,-21.264 -9.843,-37.107 -29.961,-45.773 -5.473,-2.358 -10.588,-5.719 -16.221,-7.494 -12.746,-4.017 -27.127,-12.6 -38.238,-9.619 -14.344,3.849 -4.219,21.464 -6.454,32.801 -14.819,75.145 -72.655,118.866 -148.751,110.65 -63.063,-6.809 -112.408,-66.577 -110.117,-133.913 0.3,-8.841 1.373,-18.16 4.555,-26.29 5.767,-14.739 1.919,-19.574 -13.731,-19.541 -165.3,0.347 -330.602,0.291 -495.903,0.393 -1.44,0.001 -2.881,0.659 -5.631,1.33"
             style="fill:#f4a128;fill-opacity:1;fill-rule:nonzero;stroke:none"
             id="path20" /></g><g
           id="g22"
           transform="translate(1215.3799,609.5801)"><path
             d="m 0,0 c 0.108,35.525 -28.104,64.606 -63.037,64.976 -34.429,0.364 -63.71,-29.134 -63.819,-64.292 -0.11,-35.343 28.512,-64.799 63.141,-64.98 C -28.931,-64.478 -0.107,-35.393 0,0 m -63.07,-105.548 c -59.535,-0.031 -107.173,46.725 -107.48,105.489 -0.304,58.626 47.309,106.049 106.681,106.254 C -4.719,106.399 43.163,59.416 43.606,0.735 44.047,-57.442 -4.206,-105.517 -63.07,-105.548"
             style="fill:#f4a128;fill-opacity:1;fill-rule:nonzero;stroke:none"
             id="path24" /></g><g
           id="g26"
           transform="translate(326.561,610.5957)"><path
             d="m 0,0 c -0.25,-35.368 28.224,-64.833 63.153,-65.35 34.24,-0.505 64.221,29.182 64.67,64.037 0.447,34.7 -28.777,64.821 -63.348,65.294 C 29.853,64.455 0.248,35.077 0,0 M 63.359,105.149 C 123.217,105.296 170.334,59.042 170.548,-0.074 170.761,-59.401 124.123,-106.294 64.629,-106.569 4.893,-106.846 -41.897,-60.898 -42.54,-1.33 -43.176,57.604 3.965,105.004 63.359,105.149"
             style="fill:#f4a128;fill-opacity:1;fill-rule:nonzero;stroke:none"
             id="path28" /></g><g
           id="g30"
           transform="translate(1331.333,83.7773)"><path
             d="m 0,0 h -1162.667 c -47.864,0 -86.666,38.803 -86.666,86.667 v 1162.667 c 0,47.864 38.802,86.666 86.666,86.666 L 0,1336 c 47.865,0 86.667,-38.802 86.667,-86.666 V 86.667 C 86.667,38.803 47.865,0 0,0 Z"
             style="fill:none;stroke:#f4a128;stroke-width:32;stroke-linecap:butt;stroke-linejoin:miter;stroke-miterlimit:10;stroke-dasharray:none;stroke-opacity:1"
             id="path32" /></g></g></g></g></svg>
