<svg width="37" height="45" viewBox="0 0 37 45" fill="none" xmlns="http://www.w3.org/2000/svg">
<path d="M35.2052 7.31284C29.3607 7.31284 23.7248 5.08604 19.4802 1.0509C18.923 0.563601 18.0887 0.563601 17.6014 1.0509C13.357 5.08653 7.72105 7.31284 1.87634 7.31284C1.11093 7.31284 0.484863 7.93895 0.484863 8.70431V30.4133C0.484863 31.216 4.62151 41.0425 15.7924 44.1205C15.9371 44.1622 18.4254 44.8859 18.5754 44.8859C18.7579 44.8859 21.1841 44.1715 21.3583 44.1205C31.7808 41.2492 36.6659 31.7912 36.6659 30.4133L36.6664 8.70431C36.597 7.93891 35.9704 7.31284 35.205 7.31284H35.2052ZM20.5935 41.4766L18.5059 42.0328L16.4184 41.4766C12.6613 40.4331 9.32114 38.3456 6.81626 35.562C8.62559 30.7609 13.2874 27.4906 18.5059 27.4906C23.7244 27.4906 28.3863 30.7609 30.1951 35.562C27.6907 38.345 24.3505 40.4325 20.5935 41.4766V41.4766ZM33.8136 30.1349C33.1181 31.6657 32.2134 33.0573 31.2393 34.3793C29.4998 30.5523 26.1601 27.6301 22.1245 26.5865C24.56 25.2643 26.1601 22.7595 26.1601 19.8372C26.1601 15.5929 22.7506 12.1832 18.5061 12.1832C14.2616 12.1832 10.852 15.5927 10.852 19.8372C10.852 22.7596 12.5221 25.2645 14.8877 26.5865C10.852 27.6999 7.51231 30.5528 5.77281 34.3793C4.79872 33.1266 3.89403 31.6657 3.19848 30.1349V10.0263C8.83433 9.74823 14.1921 7.59079 18.5061 3.90318C22.8199 7.59091 28.1777 9.74777 33.8136 10.0263V30.1349ZM18.5061 26.0993C15.0271 26.0993 12.2441 23.3164 12.2441 19.8374C12.2441 16.3584 15.0271 13.5754 18.5061 13.5754C21.9851 13.5754 24.768 16.3584 24.768 19.8374C24.768 23.3164 21.9851 26.0993 18.5061 26.0993Z" fill="#F59F23"/>
</svg>
