<?xml version="1.0" encoding="UTF-8" standalone="no"?>
<svg
   xmlns:dc="http://purl.org/dc/elements/1.1/"
   xmlns:cc="http://creativecommons.org/ns#"
   xmlns:rdf="http://www.w3.org/1999/02/22-rdf-syntax-ns#"
   xmlns:svg="http://www.w3.org/2000/svg"
   xmlns="http://www.w3.org/2000/svg"
   viewBox="0 0 682.66669 682.66669"
   height="682.66669"
   width="682.66669"
   xml:space="preserve"
   id="svg2"
   version="1.1"><metadata
     id="metadata8"><rdf:RDF><cc:Work
         rdf:about=""><dc:format>image/svg+xml</dc:format><dc:type
           rdf:resource="http://purl.org/dc/dcmitype/StillImage" /></cc:Work></rdf:RDF></metadata><defs
     id="defs6"><clipPath
       id="clipPath18"
       clipPathUnits="userSpaceOnUse"><path
         id="path16"
         d="M 0,512 H 512 V 0 H 0 Z" /></clipPath></defs><g
     transform="matrix(1.3333333,0,0,-1.3333333,0,682.66667)"
     id="g10"><g
       id="g12"><g
         clip-path="url(#clipPath18)"
         id="g14"><g
           transform="translate(185.5005,404.6553)"
           id="g20"><path
             id="path22"
             style="fill:#f79934;fill-opacity:1;fill-rule:nonzero;stroke:none"
             d="m 0,0 c -2.66,0 -5.321,0.045 -7.979,-0.021 -1.073,-0.027 -2.64,0.5 -2.915,-1.065 -0.184,-1.05 0.249,-2.293 0.672,-3.343 0.555,-1.376 1.982,-1.185 3.048,-1.01 4.324,0.71 4.857,-1.589 4.716,-5.15 -0.231,-5.81 -0.003,-11.637 -0.091,-17.454 -0.031,-2.06 0.551,-2.996 2.794,-2.993 2.226,0.004 3.341,0.485 3.276,3.03 -0.149,5.815 0.137,11.645 -0.111,17.453 -0.155,3.624 0.502,5.782 4.759,5.11 1.778,-0.281 3.285,0.11 3.309,2.533 0.025,2.557 -1.362,3.012 -3.499,2.932 C 5.322,-0.075 2.66,-0.001 0,0 m -27.365,-18.298 c 0,-2.654 -0.025,-5.307 0.008,-7.961 0.029,-2.359 -0.833,-5.057 3.358,-4.987 3.904,0.065 3.085,2.579 3.103,4.76 0.043,5.473 0.174,10.952 -0.045,16.416 -0.132,3.293 0.648,5.109 4.333,4.606 2.08,-0.284 3.602,0.26 3.52,2.846 -0.084,2.651 -1.805,2.66 -3.765,2.638 -5.14,-0.059 -10.282,0.027 -15.421,-0.053 -1.293,-0.021 -3.347,0.691 -3.121,-1.879 0.164,-1.871 0.551,-3.94 3.11,-3.519 5.17,0.85 5.156,-2.314 4.946,-5.903 -0.136,-2.314 -0.026,-4.643 -0.026,-6.964 m 176.636,3.531 c -0.027,-12.229 6.777,-18.512 18.398,-16.763 1.541,0.232 4.483,-0.575 3.953,2.926 -0.464,3.068 -2.423,2.94 -4.785,2.598 -3.545,-0.513 -7.293,-0.574 -9.399,2.89 -2.779,4.572 -2.748,9.586 -0.151,14.235 2.186,3.913 5.937,4.434 9.982,3.296 2.133,-0.601 3.014,0.361 3.514,2.292 0.61,2.358 -0.853,2.86 -2.598,3.282 -10.904,2.637 -18.888,-3.586 -18.914,-14.756 m -51.836,-1.055 v -3.988 c 0,-11.665 0.003,-11.795 11.553,-11.554 2.312,0.049 6.539,-2.196 6.696,2.423 0.176,5.169 -4.371,2.723 -6.761,2.803 -3.386,0.114 -5.195,0.529 -4.983,4.601 0.161,3.098 1.121,3.973 4.091,3.929 1.918,-0.029 5.134,-1.548 5.215,2.489 0.088,4.385 -3.361,2.425 -5.442,2.899 -0.158,0.036 -0.333,0.023 -0.497,0.008 -2.295,-0.204 -3.269,0.75 -3.281,3.14 -0.013,2.434 0.621,3.801 3.345,3.608 1.817,-0.13 3.654,0.025 5.48,-0.012 1.922,-0.039 2.627,0.882 2.584,2.752 -0.042,1.831 -0.708,2.756 -2.65,2.73 -4.32,-0.056 -8.641,-0.075 -12.959,0.003 -2.137,0.039 -2.412,-1.18 -2.399,-2.87 0.036,-4.32 0.013,-8.64 0.008,-12.961 m -145.709,-9.18 c 3.498,0.903 5.848,-0.092 6.563,-4.224 0.532,-3.075 3.266,-2.373 5.286,-2.058 3.037,0.472 1.212,2.591 0.837,3.839 -2.44,8.117 -5.134,16.157 -7.527,24.287 -0.723,2.459 -1.753,3.539 -4.451,3.53 -2.784,-0.01 -4.148,-0.947 -4.943,-3.655 -2.388,-8.131 -5.052,-16.181 -7.544,-24.282 -0.396,-1.29 -1.58,-3.143 0.692,-3.694 1.871,-0.454 4.386,-0.615 4.755,2.134 0.524,3.903 2.598,5.013 6.332,4.123 m 63.119,9.508 c 0,-4.331 0.055,-8.662 -0.025,-12.992 -0.038,-2.07 0.655,-3.06 2.868,-3.01 4.329,0.097 8.661,0.055 12.991,0.021 1.797,-0.013 2.786,0.593 2.79,2.586 0.005,2.127 -0.879,3.024 -3.003,2.915 -1.827,-0.094 -3.671,0.093 -5.493,-0.041 -2.431,-0.178 -3.399,0.506 -3.62,3.244 -0.347,4.287 1.182,5.657 5.284,5.124 1.842,-0.24 4.301,-0.705 4.371,2.467 0.074,3.337 -2.339,3.008 -4.527,2.963 -0.333,-0.007 -0.667,0.018 -0.999,-0.004 -2.348,-0.154 -4.127,-0.057 -4.112,3.261 0.013,3.061 1.293,3.708 3.902,3.502 1.655,-0.132 3.331,0.016 4.995,-0.024 2.146,-0.052 3.021,1.035 2.912,3.083 -0.104,1.937 -1.247,2.451 -3.022,2.42 -3.995,-0.072 -8,-0.157 -11.989,0.025 -2.735,0.124 -3.444,-1.062 -3.361,-3.548 0.133,-3.994 0.035,-7.994 0.038,-11.992 m 161.248,-0.371 c 0,-4.156 -0.006,-8.312 0.004,-12.468 0.003,-1.536 -0.046,-3.119 2.187,-3.115 4.654,0.009 9.307,0.002 13.962,0 1.746,-0.001 2.248,1.027 2.231,2.584 -0.019,1.698 -0.435,2.928 -2.495,2.871 -1.993,-0.054 -3.992,0.076 -5.983,-0.009 -2.225,-0.095 -3.034,0.689 -3.382,3.077 -0.808,5.529 2.463,5.524 6.238,5.221 1.914,-0.153 3.27,0.292 3.196,2.639 -0.066,2.126 -1.113,2.968 -3.158,2.852 -0.993,-0.057 -1.996,0.05 -2.991,10e-4 -2.32,-0.116 -3.248,0.92 -3.219,3.264 0.026,2.166 0.538,3.548 3.025,3.457 1.659,-0.061 3.324,0.042 4.985,0 2.009,-0.051 3.652,0.129 3.558,2.842 -0.094,2.723 -1.86,2.676 -3.785,2.659 -3.657,-0.032 -7.321,-0.15 -10.968,0.037 -2.652,0.136 -3.519,-0.901 -3.44,-3.445 0.131,-4.152 0.035,-8.311 0.035,-12.467 M 55.315,-17.972 c -0.344,-0.11 -0.689,-0.219 -1.033,-0.329 -3.251,5.376 -6.63,10.682 -9.696,16.162 -1.348,2.41 -3.162,2.651 -5.419,2.249 -2.561,-0.457 -1.649,-2.555 -1.665,-4.013 -0.085,-7.818 -0.03,-15.638 -0.047,-23.457 -0.004,-2.035 -0.287,-4.116 2.812,-4.097 2.829,0.019 3.123,1.676 3.076,3.946 -0.099,4.705 -0.03,9.413 -0.03,14.12 4.356,-5.077 7.698,-10.35 10.93,-15.688 1.088,-1.796 2.498,-2.679 4.532,-2.226 2.409,0.535 1.637,2.576 1.648,4.091 0.06,7.985 0.043,15.97 0.014,23.956 -0.006,1.57 0.505,3.46 -2.2,3.531 -2.533,0.067 -3.003,-1.213 -2.956,-3.398 0.107,-4.947 0.034,-9.897 0.034,-14.847 m 12.279,2.249 v -6.495 c 0,-10.342 0,-10.342 10.37,-9.482 7.698,0.638 12.531,4.239 14.115,10.515 3.204,12.691 -3.106,21.096 -16.12,21.453 -1.664,0.046 -3.334,-0.075 -4.994,0.006 -2.524,0.123 -3.543,-0.865 -3.421,-3.509 0.194,-4.154 0.052,-8.325 0.05,-12.488 m 69.825,-2.211 c -0.275,-0.084 -0.55,-0.168 -0.827,-0.252 -3.304,5.46 -6.682,10.877 -9.878,16.401 -1.26,2.18 -2.961,2.329 -5.08,1.945 -2.546,-0.463 -1.797,-2.458 -1.808,-3.954 -0.065,-7.978 -0.022,-15.956 -0.036,-23.935 -0.003,-1.926 -0.024,-3.688 2.705,-3.758 2.737,-0.07 3.271,1.305 3.292,3.718 0.037,4.524 -0.508,9.099 0.415,13.803 2.102,-0.805 2.549,-2.525 3.395,-3.85 2.412,-3.778 4.737,-7.613 7.071,-11.44 1.077,-1.765 2.546,-2.558 4.608,-2.036 2.345,0.595 1.742,2.529 1.75,4.085 0.042,7.978 0.003,15.956 0.029,23.934 0.007,1.975 -0.043,3.597 -2.801,3.563 -2.602,-0.032 -2.903,-1.385 -2.864,-3.49 0.092,-4.91 0.029,-9.822 0.029,-14.734 M 70.548,-45.696 c -72.96,0 -145.921,-0.031 -218.881,0.085 -3.977,0.006 -5.371,-0.752 -5.364,-5.099 0.134,-89.958 0.095,-179.917 0.109,-269.875 0.001,-10.523 3.564,-14.008 14.133,-14.008 139.924,-0.002 279.847,-0.002 419.77,0 10.27,0 14.027,3.775 14.029,14.207 0.009,89.792 -0.033,179.584 0.117,269.376 0.007,4.51 -1.24,5.42 -5.533,5.412 -72.793,-0.136 -145.587,-0.098 -218.38,-0.098 M 70.5,12.173 c 69.797,0.002 139.596,-0.218 209.392,0.192 13.595,0.079 21.698,-8.27 21.653,-21.732 -0.347,-103.788 -0.19,-207.577 -0.193,-311.366 0,-14.461 -6.554,-21.001 -21.03,-21.001 -140.262,-0.001 -280.524,0.014 -420.786,-0.049 -6.341,-0.003 -11.784,1.442 -16.051,6.409 -3.12,3.631 -4.035,7.775 -4.031,12.467 0.064,71.97 0.044,143.938 0.044,215.908 0,33.319 -0.004,66.638 0.002,99.957 0.003,12.275 6.818,19.196 19.107,19.201 70.631,0.027 141.262,0.013 211.893,0.014" /></g><g
           transform="translate(189.8799,131.7715)"
           id="g24"><path
             id="path26"
             style="fill:#f79934;fill-opacity:1;fill-rule:nonzero;stroke:none"
             d="m 0,0 c -1.244,-0.131 -2.227,-0.728 -2.764,-1.849 -0.841,-1.754 -0.205,-3.174 1.101,-4.471 5.196,-5.157 10.46,-10.25 15.497,-15.558 3.183,-3.352 5.665,-2.93 8.748,0.224 10.118,10.348 20.434,20.504 30.652,30.755 1.851,1.858 4.45,3.768 1.752,6.654 -2.815,3.014 -4.737,0.3 -6.574,-1.526 -9.321,-9.266 -18.653,-18.522 -27.85,-27.91 -1.953,-1.992 -3.155,-2.181 -5.119,-0.04 -3.594,3.92 -7.47,7.583 -11.247,11.334 C 3.023,-1.222 1.89,0.061 0,0 m 26.07,28.747 c 8.985,0 17.97,0.043 26.954,-0.013 8.809,-0.054 12.955,-4.048 13.016,-12.737 0.094,-13.311 0.102,-26.624 -0.004,-39.935 -0.066,-8.407 -4.244,-12.501 -12.707,-12.532 -18.135,-0.066 -36.271,-0.073 -54.407,0.003 -8.421,0.035 -12.414,4.192 -12.44,12.724 -0.039,13.311 -0.046,26.623 0.003,39.934 0.032,8.425 4.106,12.472 12.631,12.539 8.985,0.073 17.969,0.017 26.954,0.017" /></g><g
           transform="translate(392.2695,131.834)"
           id="g28"><path
             id="path30"
             style="fill:#f79934;fill-opacity:1;fill-rule:nonzero;stroke:none"
             d="m 0,0 c -1.396,-0.247 -2.494,-0.987 -3.091,-2.253 -0.762,-1.613 0.052,-2.838 1.189,-3.968 5.422,-5.392 10.833,-10.796 16.224,-16.217 2.697,-2.71 5.117,-2.335 7.688,0.296 5.458,5.59 11.036,11.062 16.561,16.585 5.173,5.171 10.335,10.352 15.517,15.515 1.398,1.394 2.182,2.964 1.419,4.926 -0.538,1.385 -1.737,2.053 -3.15,2.016 -2.03,-0.054 -3.164,-1.669 -4.441,-2.944 C 38.736,4.799 29.497,-4.302 20.458,-13.597 18.3,-15.816 17.057,-15.887 14.976,-13.596 11.403,-9.662 7.513,-6.017 3.74,-2.267 2.686,-1.218 1.668,-0.071 0,0 m 26.359,28.684 c 8.814,10e-4 17.628,0.046 26.442,-0.013 8.928,-0.06 12.878,-3.914 12.917,-12.679 0.06,-13.471 0.07,-26.942 -0.006,-40.413 -0.044,-7.897 -4.039,-12.039 -11.973,-12.091 -18.458,-0.123 -36.918,-0.131 -55.375,0.004 -7.93,0.059 -11.842,4.221 -11.871,12.146 -0.05,13.636 -0.052,27.274 10e-4,40.912 0.031,7.901 3.962,11.966 11.929,12.096 9.309,0.153 18.624,0.036 27.936,0.038" /></g><g
           transform="translate(290.7979,305.0293)"
           id="g32"><path
             id="path34"
             style="fill:#f79934;fill-opacity:1;fill-rule:nonzero;stroke:none"
             d="m 0,0 c -1.122,-0.025 -2.243,-0.654 -2.75,-2.061 -0.652,-1.807 0.146,-3.19 1.411,-4.449 5.187,-5.162 10.437,-10.264 15.484,-15.56 3.043,-3.194 5.342,-2.739 8.286,0.284 9.979,10.244 20.174,20.277 30.284,30.393 0.822,0.823 1.662,1.635 2.42,2.515 1.369,1.59 1.65,3.357 0.07,4.886 -1.524,1.476 -3.33,1.361 -4.949,0.019 -1.021,-0.846 -1.937,-1.821 -2.877,-2.762 -8.704,-8.7 -17.483,-17.327 -26.053,-26.158 -2.343,-2.414 -3.865,-2.865 -6.282,-0.124 C 11.751,-9.282 8.047,-5.909 4.518,-2.382 3.343,-1.208 2.238,0.093 0,0 m 26.1,-36.179 c -8.981,0 -17.961,-0.026 -26.942,0.008 -7.911,0.029 -12.262,3.415 -12.469,11.069 -0.386,14.291 -0.38,28.608 0.016,42.899 0.206,7.43 4.575,10.964 12.055,10.984 18.46,0.05 36.92,0.051 55.38,0 7.851,-0.022 11.932,-4.179 11.955,-12.073 0.039,-13.639 0.043,-27.277 -0.002,-40.915 -0.026,-7.834 -4.169,-11.927 -12.054,-11.962 -9.312,-0.042 -18.626,-0.01 -27.939,-0.01" /></g><g
           transform="translate(189.957,218.4834)"
           id="g36"><path
             id="path38"
             style="fill:#f79934;fill-opacity:1;fill-rule:nonzero;stroke:none"
             d="m 0,0 c -1.356,-0.265 -2.468,-0.904 -2.983,-2.292 -0.61,-1.643 0.114,-2.864 1.254,-3.995 4.133,-4.1 8.24,-8.225 12.356,-12.341 7.384,-7.385 7.384,-7.385 14.9,0.132 9.409,9.408 18.842,18.793 28.211,28.24 3.018,3.044 2.829,6.085 -0.273,7.111 -2.438,0.807 -3.642,-1.097 -5.001,-2.449 -9.2,-9.146 -18.46,-18.237 -27.47,-27.568 -2.501,-2.59 -3.949,-2.458 -6.23,0.099 C 11.448,-9.345 7.76,-5.96 4.235,-2.428 3.051,-1.241 1.848,-0.097 0,0 m 26.105,28.515 c 9.314,0 18.628,0.053 27.941,-0.018 7.558,-0.057 11.787,-4.054 11.879,-11.668 0.168,-13.804 0.17,-27.611 0.011,-41.415 -0.09,-7.729 -4.495,-11.836 -12.336,-11.858 -18.295,-0.053 -36.59,-0.052 -54.885,-10e-4 -8.138,0.023 -12.258,4.141 -12.3,12.316 -0.071,13.639 -0.08,27.278 0.004,40.917 0.047,7.642 4.102,11.646 11.745,11.708 9.313,0.076 18.627,0.019 27.941,0.019" /></g><g
           transform="translate(410.3613,194.0371)"
           id="g40"><path
             id="path42"
             style="fill:#f79934;fill-opacity:1;fill-rule:nonzero;stroke:none"
             d="m 0,0 c 2.076,0.079 3.153,1.698 4.422,2.961 8.722,8.685 17.416,17.396 26.117,26.101 1.882,1.881 3.784,3.744 5.626,5.664 1.684,1.754 2.37,3.724 0.414,5.684 -1.835,1.838 -3.646,0.972 -5.28,-0.45 C 30.423,39.197 29.623,38.345 28.8,37.521 19.979,28.702 11.087,19.95 2.39,11.01 0.265,8.826 -1.003,8.631 -3.118,10.967 c -3.569,3.94 -7.474,7.575 -11.236,11.34 -1.723,1.724 -3.552,3.406 -5.931,1.151 -2.386,-2.26 -0.911,-4.121 0.883,-5.901 C -14.327,12.518 -9.286,7.444 -4.227,2.39 -3.044,1.207 -1.843,0.043 0,0 m 8.517,52.96 c 9.16,10e-4 18.321,0.054 27.481,-0.016 7.484,-0.056 11.537,-3.903 11.602,-11.315 0.123,-14.157 0.126,-28.317 -0.005,-42.474 -0.063,-6.719 -4.198,-11.049 -10.916,-11.106 -19.152,-0.167 -38.307,-0.165 -57.459,0 -6.659,0.057 -10.754,4.476 -10.799,11.196 -0.096,14.157 -0.091,28.316 -0.007,42.474 0.042,7.216 3.936,11.134 11.123,11.214 9.659,0.109 19.319,0.027 28.98,0.027" /></g><g
           transform="translate(448.2021,319.0132)"
           id="g44"><path
             id="path46"
             style="fill:#f79934;fill-opacity:1;fill-rule:nonzero;stroke:none"
             d="m 0,0 c -0.172,0.388 -0.325,1.304 -0.859,1.836 -2.704,2.69 -4.787,0.854 -6.76,-1.114 -9.297,-9.276 -18.641,-18.506 -27.816,-27.9 -2.12,-2.172 -3.42,-2.327 -5.534,-0.034 -3.825,4.152 -7.931,8.047 -11.981,11.989 -1.629,1.586 -3.593,1.943 -5.325,0.27 -1.85,-1.785 -1.126,-3.563 0.494,-5.175 5.421,-5.393 10.833,-10.794 16.227,-16.213 2.459,-2.47 4.785,-2.511 7.294,0.013 10.664,10.73 21.379,21.408 32.073,32.107 C -1.121,-3.154 -0.099,-2.056 0,0 m -29.98,-50.163 c -9.324,0 -18.648,-0.057 -27.971,0.018 -7.32,0.06 -11.437,4.147 -11.478,11.49 -0.078,13.987 -0.08,27.974 0.001,41.96 0.042,7.333 4.161,11.457 11.498,11.485 18.647,0.07 37.294,0.065 55.942,0.002 7.659,-0.026 11.705,-4.042 11.76,-11.756 0.099,-13.82 0.095,-27.64 10e-4,-41.46 -0.051,-7.684 -4.125,-11.672 -11.783,-11.724 -9.323,-0.063 -18.646,-0.015 -27.97,-0.015" /></g><g
           transform="translate(335.5049,106.4316)"
           id="g48"><path
             id="path50"
             style="fill:#f79934;fill-opacity:1;fill-rule:nonzero;stroke:none"
             d="m 0,0 c 1.14,0.155 2.321,0.69 2.963,2.007 0.881,1.806 0.04,3.233 -1.185,4.473 -3.742,3.789 -7.34,7.747 -11.34,11.245 -3.036,2.656 -3.511,4.488 -0.167,7.33 3.918,3.329 7.354,7.225 11.002,10.872 1.782,1.78 3.231,3.798 0.905,5.974 -2.193,2.054 -4.282,0.833 -6.086,-0.971 -3.999,-4.002 -8.084,-7.923 -11.971,-12.031 -1.822,-1.926 -3.1,-1.825 -4.85,0.051 -3.062,3.284 -6.21,6.506 -9.536,9.519 -2.355,2.134 -4.751,6.984 -8.37,3.178 -3.527,-3.709 1.438,-5.962 3.515,-8.358 2.391,-2.759 4.895,-5.524 7.776,-7.731 4.075,-3.121 3.442,-5.421 -0.177,-8.347 -2.96,-2.392 -5.578,-5.247 -8.133,-8.089 -2.038,-2.266 -6.452,-4.521 -2.844,-8.042 3.248,-3.169 5.57,0.783 7.732,2.838 3.377,3.208 6.714,6.472 9.866,9.897 1.905,2.07 3.261,2.131 5.211,0.038 C -12.063,9.959 -8.192,6.292 -4.437,2.516 -3.251,1.321 -2.055,0.176 0,0 m -18.137,-11.15 c -8.979,0 -17.96,-0.059 -26.939,0.016 -8.786,0.074 -12.912,3.91 -13.056,12.748 -0.218,13.301 -0.238,26.612 0.013,39.911 0.166,8.779 4.335,12.518 13.25,12.545 17.793,0.055 35.586,0.06 53.379,-0.002 C 17.368,54.038 21.376,50.01 21.392,41.319 21.417,28.015 21.422,14.711 21.39,1.406 21.37,-6.983 17.328,-11.047 8.802,-11.131 -0.177,-11.218 -9.157,-11.15 -18.137,-11.15" /></g><g
           transform="translate(237.7476,319.5454)"
           id="g52"><path
             id="path54"
             style="fill:#f79934;fill-opacity:1;fill-rule:nonzero;stroke:none"
             d="M 0,0 C -0.203,1.212 -0.875,2.361 -2.145,2.965 -3.883,3.792 -5.36,3.133 -6.64,1.85 c -4.23,-4.239 -8.556,-8.388 -12.657,-12.747 -1.81,-1.924 -2.985,-1.917 -4.778,0 -3.634,3.885 -7.482,7.571 -11.262,11.319 -1.864,1.848 -3.874,4.605 -6.608,1.871 -2.857,-2.858 -0.194,-5.055 1.824,-7.072 3.648,-3.645 7.186,-7.41 10.983,-10.891 2.047,-1.877 2.211,-3.053 0.067,-5.021 -4.162,-3.822 -8.033,-7.959 -12.048,-11.943 -1.833,-1.819 -3.009,-3.938 -0.939,-6.067 2.18,-2.241 4.198,-0.804 5.936,1.055 1.021,1.093 2.094,2.141 3.176,3.175 3.706,3.547 7.314,9.751 11.17,9.912 4.418,0.185 7.587,-6.577 11.515,-10.09 0.99,-0.885 1.907,-1.857 2.825,-2.819 1.847,-1.936 3.849,-3.601 6.318,-1.105 2.32,2.346 0.574,4.211 -1.138,5.929 -3.758,3.77 -7.399,7.67 -11.338,11.242 -2.508,2.274 -2.857,3.848 -0.126,6.275 3.971,3.53 7.58,7.469 11.343,11.234 C -1.32,-2.834 -0.186,-1.824 0,0 m -22.291,-50.695 c -8.98,0 -17.961,-0.037 -26.941,0.011 -7.989,0.042 -12.069,3.94 -12.132,11.89 -0.109,13.803 -0.121,27.609 0.008,41.413 0.071,7.58 4.267,11.615 11.904,11.641 18.459,0.063 36.92,0.057 55.379,0.004 7.844,-0.023 12.136,-4.1 12.223,-11.921 0.151,-13.637 0.142,-27.277 0.006,-40.914 -0.082,-8.124 -4.32,-12.087 -12.508,-12.117 -9.313,-0.034 -18.626,-0.007 -27.939,-0.007" /></g><g
           transform="translate(338.8037,197.1719)"
           id="g56"><path
             id="path58"
             style="fill:#f79934;fill-opacity:1;fill-rule:nonzero;stroke:none"
             d="m 0,0 c -0.502,0.76 -1.073,1.989 -1.965,2.908 -3.934,4.057 -7.87,8.121 -11.993,11.981 -2.031,1.901 -2.198,3.184 -0.068,5.157 4.021,3.725 7.809,7.701 11.673,11.595 1.809,1.823 3.842,3.848 1.169,6.283 -2.479,2.258 -4.565,0.503 -6.423,-1.361 -3.756,-3.765 -7.654,-7.402 -11.229,-11.332 -2.118,-2.33 -3.505,-2.115 -5.527,0.07 -3.612,3.899 -7.49,7.552 -11.245,11.317 -1.882,1.886 -4.09,3.577 -6.409,1.21 -2.294,-2.341 -0.605,-4.573 1.266,-6.449 3.991,-4.001 7.907,-8.082 12.022,-11.952 1.794,-1.686 1.63,-2.709 -0.068,-4.318 -4.22,-4.001 -8.246,-8.206 -12.383,-12.296 -1.878,-1.857 -2.841,-3.913 -0.696,-6.026 2.059,-2.027 3.923,-0.753 5.581,0.912 3.519,3.534 7.254,6.876 10.52,10.629 2.851,3.276 4.922,3.912 8.041,0.182 3.395,-4.064 7.407,-7.624 11.258,-11.29 1.194,-1.136 2.727,-2.051 4.504,-0.933 C -0.79,-2.97 0.01,-1.96 0,0 m -21.513,49.826 c 9.313,0 18.625,0.056 27.937,-0.017 7.635,-0.061 11.632,-4.093 11.661,-11.766 0.052,-13.803 0.058,-27.606 -0.003,-41.409 -0.033,-7.417 -4.313,-11.727 -11.816,-11.758 -18.458,-0.077 -36.916,-0.071 -55.374,-0.003 -7.606,0.028 -12.071,3.877 -12.249,11.441 -0.33,13.962 -0.335,27.942 -0.014,41.904 0.187,8.126 4.277,11.568 12.421,11.6 9.145,0.036 18.292,0.009 27.437,0.008" /></g><g
           transform="translate(100.2832,283.1602)"
           id="g60"><path
             id="path62"
             style="fill:#f79934;fill-opacity:1;fill-rule:nonzero;stroke:none"
             d="M 0,0 C 16.2,0.125 28.902,-12.389 28.96,-28.532 29.019,-44.858 16.667,-57.462 0.462,-57.61 -15.684,-57.758 -28.451,-45.144 -28.497,-28.997 -28.543,-12.708 -16.178,-0.126 0,0" /></g><g
           transform="translate(60.8921,170.4707)"
           id="g64"><path
             id="path66"
             style="fill:#f79934;fill-opacity:1;fill-rule:nonzero;stroke:none"
             d="m 0,0 c -0.001,-6.162 -0.03,-12.324 0.012,-18.486 0.019,-2.845 -0.244,-5.802 -3.799,-5.832 -3.304,-0.028 -3.645,2.855 -3.648,5.476 -0.014,12.324 -0.306,24.658 0.079,36.971 0.513,16.443 13.475,28.963 30.052,29.332 10.32,0.23 20.668,-0.331 30.969,0.171 17.271,0.842 33.096,-11.861 33.042,-32.744 -0.028,-10.992 0.008,-21.984 -0.013,-32.976 -0.005,-2.891 0.025,-6.333 -3.919,-6.218 -3.516,0.103 -3.541,3.287 -3.534,6.07 0.028,11.158 0.058,22.317 -0.002,33.475 C 79.153,31.237 69.723,40.535 53.676,40.54 43.685,40.544 33.692,40.578 23.701,40.531 9.953,40.467 0.1,30.661 0.007,16.988 -0.031,11.326 0.001,5.663 0,0" /></g><g
           transform="translate(122.1099,164.2373)"
           id="g68"><path
             id="path70"
             style="fill:#f79934;fill-opacity:1;fill-rule:nonzero;stroke:none"
             d="m 0,0 c 0,4.326 -0.023,8.651 0.01,12.978 0.018,2.31 0.506,4.497 3.33,4.691 3.143,0.218 3.982,-2.065 4.008,-4.572 0.093,-8.817 0.059,-17.635 0.047,-26.452 -0.004,-2.636 -1.06,-4.899 -3.913,-4.742 -2.811,0.156 -3.554,2.493 -3.504,5.12 C 0.059,-8.652 0,-4.326 0,0" /></g><g
           transform="translate(78.9224,163.4795)"
           id="g72"><path
             id="path74"
             style="fill:#f79934;fill-opacity:1;fill-rule:nonzero;stroke:none"
             d="m 0,0 c 0.005,-4.156 -0.028,-8.314 0.017,-12.471 0.029,-2.657 -0.881,-4.839 -3.74,-4.866 -2.591,-0.024 -3.637,2.048 -3.644,4.481 -0.025,8.978 -0.06,17.958 0.043,26.935 0.026,2.25 0.688,4.47 3.65,4.348 2.768,-0.115 3.604,-2.107 3.645,-4.459 C 0.051,9.313 -0.005,4.656 0,0" /></g><g
           transform="translate(270.9395,389.6802)"
           id="g76"><path
             id="path78"
             style="fill:#f79934;fill-opacity:1;fill-rule:nonzero;stroke:none"
             d="m 0,0 c 0.025,-7.062 -3.166,-11.067 -8.622,-10.995 -2.391,0.031 -3.646,0.729 -3.559,3.433 0.16,4.96 0.152,9.933 0.004,14.894 -0.076,2.57 1.155,2.987 3.324,2.95 C -3.263,10.187 -0.023,6.503 0,0" /></g><g
           transform="translate(137.6772,397.8188)"
           id="g80"><path
             id="path82"
             style="fill:#f79934;fill-opacity:1;fill-rule:nonzero;stroke:none"
             d="m 0,0 c 1.032,-3.567 1.808,-6.049 2.454,-8.565 0.338,-1.314 1.762,-3.117 0.025,-3.908 -1.483,-0.675 -3.735,-0.7 -5.231,-0.052 -1.904,0.823 -0.186,2.575 0.11,3.83 0.6,2.544 1.5,5.017 2.642,8.695" /></g></g></g></g></svg>