<svg width="54" height="45" viewBox="0 0 54 45" fill="none" xmlns="http://www.w3.org/2000/svg">
<path fill-rule="evenodd" clip-rule="evenodd" d="M3.8184 36.9627H35.2784C35.6283 37.1016 35.8581 37.441 35.8581 37.8188C35.8581 38.1965 35.6283 38.5359 35.2784 38.6748H3.8184C1.79336 38.6748 0.151733 37.0264 0.151733 34.993V7.37933C0.151733 5.34592 1.79336 3.69752 3.8184 3.69752H6.64173V1.28593C6.64173 0.777572 7.05214 0.365471 7.5584 0.365471C8.06466 0.365471 8.47507 0.777572 8.47507 1.28593V3.69752H17.6417V1.28593C17.6417 0.777572 18.0521 0.365471 18.5584 0.365471C19.0647 0.365471 19.4751 0.777572 19.4751 1.28593V3.69752H28.6417V1.28593C28.6417 0.777572 29.0521 0.365471 29.5584 0.365471C30.0647 0.365471 30.4751 0.777572 30.4751 1.28593V3.69752H39.6417V1.06502C39.6417 0.556663 40.0521 0.144562 40.5584 0.144562C41.0647 0.144562 41.4751 0.556663 41.4751 1.06502V3.82638H44.5734C46.5984 3.82638 48.2401 5.47479 48.2401 7.5082V26.6352C48.2401 27.1436 47.8297 27.5557 47.3234 27.5557C46.8171 27.5557 46.4067 27.1436 46.4067 26.6352V13.6568H1.98507V35.1218C1.98507 36.1385 2.80588 36.9627 3.8184 36.9627ZM6.8434 5.53843H3.8184C3.29961 5.52149 2.79799 5.72617 2.43802 6.10167C2.07804 6.47717 1.89346 6.98829 1.93007 7.5082V11.7607H46.5351V7.37933C46.5351 6.36263 45.7143 5.53843 44.7017 5.53843H41.6767V7.72911C41.6767 8.23746 41.2663 8.64956 40.7601 8.64956C40.2538 8.64956 39.8434 8.23746 39.8434 7.72911V5.53843H30.6767V7.95002C30.6767 8.45837 30.2663 8.87047 29.7601 8.87047C29.2538 8.87047 28.8434 8.45837 28.8434 7.95002V5.53843H19.6767V7.95002C19.6767 8.45837 19.2663 8.87047 18.7601 8.87047C18.2538 8.87047 17.8434 8.45837 17.8434 7.95002V5.53843H8.67673V7.95002C8.67673 8.45837 8.26633 8.87047 7.76007 8.87047C7.25381 8.87047 6.8434 8.45837 6.8434 7.95002V5.53843Z" fill="#F59F23"/>
<rect x="14.2317" y="16.768" width="3.52" height="3.53455" fill="#F59F23"/>
<rect x="22.4817" y="16.768" width="3.52" height="3.53455" fill="#F59F23"/>
<rect x="30.7317" y="16.7496" width="3.52" height="3.53455" fill="#F59F23"/>
<rect x="5.98169" y="23.5241" width="3.52" height="3.53455" fill="#F59F23"/>
<rect x="14.2317" y="23.5241" width="3.52" height="3.53455" fill="#F59F23"/>
<rect x="22.4817" y="23.5241" width="3.52" height="3.53455" fill="#F59F23"/>
<rect x="5.98169" y="30.3539" width="3.52" height="3.53455" fill="#F59F23"/>
<rect x="14.2317" y="30.3539" width="3.52" height="3.53455" fill="#F59F23"/>
<rect x="22.4817" y="30.3171" width="3.52" height="3.53455" fill="#F59F23"/>
<rect x="30.7317" y="30.3171" width="3.52" height="3.53455" fill="#F59F23"/>
<rect x="30.7317" y="23.5057" width="3.52" height="3.53455" fill="#F59F23"/>
<rect x="38.8351" y="16.7127" width="3.52" height="3.53455" fill="#F59F23"/>
<rect x="38.8351" y="23.4689" width="3.52" height="3.53455" fill="#F59F23"/>
<path fill-rule="evenodd" clip-rule="evenodd" d="M38.5053 33.6965C39.6961 30.8194 42.4972 28.9473 45.6001 28.9548C49.8181 28.9649 53.235 32.3959 53.2451 36.6314C53.2525 39.747 51.3881 42.5597 48.5229 43.7555C45.6576 44.9512 42.357 44.2941 40.163 42.0909C37.9689 39.8878 37.3144 36.5736 38.5053 33.6965ZM40.2008 38.8844C41.109 41.0713 43.2404 42.4929 45.6001 42.4854C48.8127 42.4753 51.4118 39.8573 51.4117 36.6314C51.4117 34.2619 49.9893 32.1262 47.8085 31.2211C45.6278 30.3161 43.1187 30.8204 41.4528 32.4984C39.7869 34.1765 39.2927 36.6975 40.2008 38.8844Z" fill="#F59F23"/>
<path d="M47.7634 34.0541L44.5918 37.3309L43.3634 36.3368C43.1166 36.0882 42.7503 36.0022 42.4192 36.1153C42.0881 36.2283 41.85 36.5206 41.8052 36.8689C41.7604 37.2171 41.9168 37.5606 42.2084 37.7543L44.0418 39.2823C44.3907 39.5985 44.9212 39.5985 45.2701 39.2823L49.0284 35.398C49.398 35.0472 49.4144 34.462 49.0651 34.0909C48.7158 33.7198 48.133 33.7033 47.7634 34.0541Z" fill="#F59F23"/>
</svg>
