<?xml version="1.0" encoding="UTF-8" standalone="no"?>
<svg
   xmlns:dc="http://purl.org/dc/elements/1.1/"
   xmlns:cc="http://creativecommons.org/ns#"
   xmlns:rdf="http://www.w3.org/1999/02/22-rdf-syntax-ns#"
   xmlns:svg="http://www.w3.org/2000/svg"
   xmlns="http://www.w3.org/2000/svg"
   viewBox="0 0 682.66669 682.66669"
   height="682.66669"
   width="682.66669"
   xml:space="preserve"
   id="svg2"
   version="1.1"><metadata
     id="metadata8"><rdf:RDF><cc:Work
         rdf:about=""><dc:format>image/svg+xml</dc:format><dc:type
           rdf:resource="http://purl.org/dc/dcmitype/StillImage" /></cc:Work></rdf:RDF></metadata><defs
     id="defs6"><clipPath
       id="clipPath18"
       clipPathUnits="userSpaceOnUse"><path
         id="path16"
         d="M 0,512 H 512 V 0 H 0 Z" /></clipPath></defs><g
     transform="matrix(1.3333333,0,0,-1.3333333,0,682.66667)"
     id="g10"><g
       id="g12"><g
         clip-path="url(#clipPath18)"
         id="g14"><g
           transform="translate(387.4951,329.1953)"
           id="g20"><path
             id="path22"
             style="fill:#f79833;fill-opacity:1;fill-rule:nonzero;stroke:none"
             d="M 0,0 C -12.319,0.08 -21.609,9.51 -21.67,21.98 -21.729,34 -11.75,43.76 0.431,43.62 12.47,43.48 21.91,33.66 21.891,21.28 21.86,9.45 12.07,-0.08 0,0 m -131.46,3.76 c -27.96,-0.07 -49.48,22.41 -49.25,49.55 0.23,26.79 21.97,48.59 49.2,48.63 27.31,0.04 49.06,-21.71 49.29,-49.12 0.21,-26.38 -20.929,-49 -49.24,-49.06 M -262.88,0 c -12.29,-0.06 -22.13,9.75 -22.18,22.1 -0.04,11.17 9.89,21.18 21.33,21.52 12.25,0.36 22.25,-9.28 22.51,-21.71 C -240.97,9.87 -250.66,0.06 -262.88,0 M 49.101,-4.42 c -2.21,2.07 -3.021,3.61 -1.721,6.73 3.44,8.25 4.48,16.83 3.35,25.88 -4.75,38.07 -48.81,57.48 -80.24,35.17 -19.71,-14 -26.7,-38.63 -17.44,-61.74 0.801,-1.98 1.56,-3.41 -0.71,-5.06 -2.449,-1.78 -3.23,0.39 -4.5,1.39 -3.659,2.88 -7.08,6.11 -10.94,8.68 -2.7,1.81 -2.85,3.1 -1.2,5.8 9.481,15.46 13.28,32.38 10.58,50.25 -4.74,31.29 -21.95,53.48 -51.86,63.99 -29.68,10.43 -56.91,4.12 -80.11,-17.13 -26.13,-23.93 -32.11,-63.88 -14.33,-94.71 2.86,-4.96 2.36,-7.26 -2.29,-10.02 -3.25,-1.92 -5.92,-4.81 -8.85,-7.28 -1.22,-1.03 -2.1,-2.5 -4.17,-0.96 -1.96,1.47 -1.7,2.77 -0.86,4.64 2.91,6.47 4.33,13.27 4.12,20.17 0.1,7.65 -1.39,14.78 -4.47,21.54 -11.31,24.8 -40.51,36.51 -65.52,26.3 -25.99,-10.62 -38.76,-39.42 -28.76,-65.55 1.47,-3.83 1.35,-6.09 -1.91,-8.82 -6.97,-5.85 -12.1,-13.28 -16.03,-21.46 -5.33,-11.14 -8.46,-22.81 -6.67,-35.25 0.92,-6.38 7.46,-11.41 13.92,-11.43 6.6,-0.01 13.15,5.37 14.23,11.83 0.44,2.62 0.54,5.3 0.85,7.94 1.29,11.26 6.35,20.52 14.84,27.98 2.06,1.81 3.78,2.31 6.59,0.98 14.68,-6.96 29.55,-6.98 44.17,0.14 3.24,1.58 4.78,0.1 6.92,-1.57 2.6,-2.03 1,-3.69 -0.02,-5.56 -9.21,-16.97 -14.24,-35.06 -14.39,-54.43 -0.07,-9.71 5.69,-16.26 14.26,-16.43 8.69,-0.16 14.48,6.44 14.86,16.4 1.14,30.42 14.66,54.05 39.49,71.43 2.57,1.79 4.52,1.94 7.49,0.22 27.03,-15.64 54.26,-15.62 81.3,-0.03 3.15,1.81 5.22,1.6 7.93,-0.31 22.79,-16.08 36.15,-37.68 38.72,-65.66 0.24,-2.65 0.51,-5.3 0.71,-7.96 0.621,-8.45 7.03,-14.45 15.05,-14.07 8.111,0.39 14.151,6.72 13.97,15.23 -0.399,19.44 -4.96,37.86 -14.18,55.05 -1.03,1.92 -3.15,3.68 -0.349,6.02 2.289,1.93 4.039,3.06 7.359,1.45 13.41,-6.52 27.481,-7.1 40.95,-1.02 6,2.7 9.16,1.2 12.691,-2.85 0.659,-0.75 1.279,-1.53 1.929,-2.28 7.17,-8.38 9.37,-18.43 10.411,-29.08 0.809,-8.26 7.919,-14.13 15.219,-13.34 6.26,0.68 13.691,5.52 13.45,15.71 -0.5,21.16 -8.5,38.74 -23.839,53.08" /></g><g
           transform="translate(255.4053,80.585)"
           id="g24"><path
             id="path26"
             style="fill:#f79833;fill-opacity:1;fill-rule:nonzero;stroke:none"
             d="m 0,0 c -36.81,0.38 -65.61,30.061 -65.16,67.16 0.44,35.941 30.47,64.7 67.09,64.231 C 37.65,130.94 66.71,101.03 66.5,64.95 66.3,28.96 36.26,-0.38 0,0 m 0.5,160.65 c -51.4,0.38 -93.54,-41.86 -94.91,-91.41 -1.56,-56.469 43.35,-98.75 94.74,-98.62 52.15,0.13 95.28,42.391 95.33,93.66 0.05,53.71 -42.08,96.38 -95.16,96.37" /></g><g
           transform="translate(245.061,109.833)"
           id="g28"><path
             id="path30"
             style="fill:#f79833;fill-opacity:1;fill-rule:nonzero;stroke:none"
             d="m 0,0 c -4.465,-0.382 -7.971,1.81 -11.008,4.79 -6.887,6.761 -13.767,13.535 -20.452,20.494 -6.478,6.742 -6.687,15.633 -0.805,21.394 6.148,6.019 14.419,5.853 21.399,-0.568 2.691,-2.474 5.447,-4.974 7.643,-7.866 2.488,-3.274 4.033,-2.483 6.496,0.061 9.607,9.921 19.382,19.681 29.189,29.406 5.613,5.563 11.802,6.809 17.663,3.866 9.319,-4.68 11.167,-15.96 3.657,-23.938 C 47.397,40.856 40.672,34.394 34.093,27.794 26.692,20.369 19.295,12.94 11.877,5.532 8.618,2.277 5.019,-0.31 0,0" /></g></g></g></g></svg>