<svg width="36" height="45" viewBox="0 0 36 45" fill="none" xmlns="http://www.w3.org/2000/svg">
<path d="M30.4338 17.2666H29.0602V11.9685C29.0602 5.64033 24.4981 0.685425 17.9734 0.685425C11.4489 0.685425 6.98471 5.73827 6.98471 11.9685V17.2177H5.61113C2.5697 17.2177 0.116859 19.6706 0.067627 22.7612V39.3424C0.067627 42.3838 2.52046 44.8367 5.61113 44.8859H30.4338C33.4753 44.8859 35.9281 42.4331 35.9773 39.3424V22.7603C35.9773 19.7189 33.4753 17.2661 30.4338 17.2661V17.2666ZM9.73189 17.2666V11.9685C9.73189 7.25885 12.9697 3.43251 17.9732 3.43251C22.9279 3.43251 26.3128 7.16074 26.3128 11.9685V17.2177L9.73163 17.2174V17.2667L9.73189 17.2666ZM33.181 39.3421C33.181 40.8628 31.9546 42.0892 30.4339 42.0892H5.61121C4.09054 42.0892 2.86412 40.8628 2.86412 39.3421V22.761C2.86412 21.2403 4.09054 20.0139 5.61121 20.0139H30.4339C31.9546 20.0139 33.181 21.2403 33.181 22.761V39.3421ZM20.7697 28.3044C20.7697 29.3347 20.23 30.2176 19.3961 30.7082H19.3471H19.3961V35.2215C19.3961 36.0064 18.7582 36.595 18.0225 36.595C17.2375 36.595 16.6489 35.9572 16.6489 35.2215V30.7082H16.6978H16.6489C15.815 30.2175 15.2753 29.3346 15.2753 28.3044C15.2753 26.7837 16.5017 25.5573 18.0224 25.5573C19.5431 25.508 20.7695 26.7345 20.7695 28.3044H20.7697Z" fill="#F59F23"/>
</svg>
