<svg width="35" height="41" viewBox="0 0 35 41" fill="none" xmlns="http://www.w3.org/2000/svg">
<path d="M12.7486 27.5327C12.9003 27.6132 13.0784 27.6295 13.2424 27.5777C13.4065 27.5259 13.5427 27.4102 13.6206 27.257C13.7013 27.105 13.7174 26.927 13.6656 26.7629C13.6137 26.5992 13.4981 26.4629 13.3449 26.3847C10.2694 24.7389 7.96515 21.9489 6.92967 18.6177C5.89418 15.2868 6.21082 11.6822 7.8111 8.58239C9.41142 5.48283 12.1669 3.13761 15.4821 2.05288C18.7972 0.968146 22.4064 1.23125 25.5292 2.78547C28.6591 4.40411 31.0183 7.19909 32.0887 10.5562C33.1589 13.9134 32.8523 17.5583 31.2365 20.6897C30.5073 22.1082 29.5225 23.3802 28.3316 24.4412C28.3785 24.2763 28.3576 24.0991 28.2732 23.9496C28.189 23.8002 28.0481 23.6908 27.8827 23.6459C27.7166 23.5969 27.538 23.6167 27.3871 23.7014C27.2363 23.7859 27.1258 23.9279 27.0811 24.0948L26.5552 25.9865C26.5572 26.0014 26.5572 26.0165 26.5552 26.0314C26.51 26.2052 26.5354 26.3896 26.6256 26.5444C26.7207 26.6993 26.8767 26.8064 27.0553 26.8396L29.0496 27.2372V27.2369C29.0922 27.2432 29.1354 27.2432 29.1778 27.2369C29.5322 27.2724 29.848 27.0142 29.8832 26.6598C29.9187 26.3057 29.6605 25.9899 29.3061 25.9544L28.6648 25.8262C30.215 24.5894 31.4904 23.0432 32.41 21.286C34.1878 17.8516 34.5287 13.851 33.3573 10.1653C32.1858 6.47977 29.5984 3.41025 26.1639 1.63243C22.7294 -0.145677 18.7289 -0.486319 15.0432 0.684821C11.3574 1.85625 8.28784 4.44368 6.50958 7.87817C4.73147 11.3124 4.39054 15.3125 5.56168 18.9981C6.73282 22.684 9.32024 25.7538 12.7547 27.5318L12.7486 27.5327Z" fill="#F59F23"/>
<path d="M3.97628 27.6548V38.3706H1.44725L0.543923 27.6548H3.97628Z" stroke="#F59F23"/>
<path d="M32.0846 32.2066L32.0708 32.2056C32.019 32.2017 31.9666 32.201 31.9146 32.2036L23.4217 34.0374C23.134 34.7149 22.6066 35.2637 21.9396 35.5773L21.9394 35.5774C21.5522 35.7593 21.1302 35.8541 20.7028 35.8558L20.7008 35.8559L16.2119 35.8559C15.6388 35.8559 15.1747 35.3921 15.1731 34.82C15.1731 34.819 15.1731 34.818 15.1731 34.8171H15.6731C15.6714 34.6736 15.7275 34.5357 15.8289 34.4343L32.0846 32.2066ZM32.0846 32.2066L32.0985 32.2069L32.0991 32.2069L32.1157 32.2072L32.1323 32.2065C32.3898 32.1945 32.636 32.3097 32.7916 32.5138L32.0846 32.2066ZM6.54137 37.1453H6.54086H6.05396V28.7249H9.64195C9.79913 28.7271 9.95333 28.7674 10.091 28.8422L10.0963 28.8453L14.5147 31.3654L14.5297 31.374L14.5452 31.3814C14.998 31.5998 15.4915 31.719 15.9934 31.7324L16.0392 31.7336L20.7109 31.8858C20.9324 31.8987 21.1417 31.9919 21.2993 32.148L21.2993 32.148C21.4582 32.3054 21.5537 32.5156 21.5676 32.7384L21.5701 32.7791L21.5792 32.8187C21.585 32.8445 21.585 32.8715 21.5792 32.8973L21.5554 33.0012L21.5668 33.0588C21.5097 33.34 21.3199 33.5767 21.0566 33.6929L21.0485 33.6965L21.0405 33.7003C20.9347 33.7516 20.8184 33.7784 20.7003 33.7786C20.7002 33.7786 20.7001 33.7786 20.7 33.7786L16.2144 33.7786H16.2119L6.54137 37.1453Z" stroke="#F59F23"/>
<path d="M28.0575 8.54248H10.8807C10.5733 8.54248 10.3428 8.7923 10.3428 9.08045V19.8399C10.3428 20.1474 10.5926 20.3779 10.8807 20.3779H28.0383C28.3457 20.3779 28.5763 20.1281 28.5763 19.8399L28.5764 9.09967C28.5956 8.79222 28.3457 8.54255 28.0576 8.54255L28.0575 8.54248ZM27.5002 19.3212H11.4379V9.63764H27.5002V19.3212Z" fill="#F59F23"/>
<path d="M26.424 18.2455V10.7139H21.563C22.3508 11.5978 22.8503 12.9427 22.8503 14.4797C22.8503 16.0167 22.3508 17.3617 21.563 18.2455H26.424Z" fill="#F59F23"/>
<path d="M16.0871 14.4797C16.0871 12.9426 16.5866 11.5977 17.3744 10.7139H12.5134V18.2455H17.3936C16.5867 17.3618 16.0872 16.0169 16.0872 14.4797H16.0871Z" fill="#F59F23"/>
<path d="M19.4494 17.3424C19.4685 17.3616 19.507 17.3809 19.5454 17.3809H20.2948C20.3524 17.3809 20.3909 17.3424 20.41 17.3041C20.4292 17.2656 20.4292 17.208 20.3909 17.1695L18.7193 15.4787H18.8346C19.6224 15.4787 20.3141 14.9216 20.4869 14.1723H21.0825C21.1593 14.1723 21.2171 14.1146 21.2171 14.0377V13.5382C21.2171 13.4614 21.1595 13.4036 21.0825 13.4036H20.4869C20.4485 13.1923 20.3524 13.0194 20.2371 12.8465H21.0826C21.1593 12.8465 21.2171 12.7889 21.2171 12.712V12.2124C21.2171 12.1356 21.1595 12.0779 21.0826 12.0779H17.8738C17.797 12.0779 17.7393 12.1355 17.7393 12.2124V12.7504C17.7393 12.8272 17.7969 12.885 17.8738 12.885H18.8345C19.1803 12.885 19.507 13.0772 19.6414 13.4038H17.8738C17.797 13.4038 17.7393 13.4614 17.7393 13.5383V14.0378C17.7393 14.1146 17.7969 14.1724 17.8738 14.1724H19.6414C19.4877 14.4798 19.1803 14.6912 18.8345 14.6912H17.8738C17.797 14.6912 17.7393 14.7488 17.7393 14.8258V15.5942C17.7393 15.6327 17.7584 15.6518 17.7777 15.6903L19.4494 17.3424Z" fill="#F59F23"/>
</svg>
