<svg width="53" height="45" viewBox="0 0 53 45" fill="none" xmlns="http://www.w3.org/2000/svg">
<g clip-path="url(#clip0_547_435)">
<path d="M46.6439 9.04899H38.7471V6.55937C38.7497 5.86773 38.6154 5.18242 38.3519 4.54293C38.0884 3.90344 37.7009 3.32242 37.2119 2.83336C36.7228 2.34429 36.1418 1.95685 35.5023 1.69335C34.8628 1.42986 34.1775 1.29553 33.4859 1.2981H19.7054C19.0138 1.29553 18.3285 1.42986 17.689 1.69335C17.0495 1.95685 16.4685 2.34429 15.9794 2.83336C15.4903 3.32242 15.1029 3.90344 14.8394 4.54293C14.5759 5.18242 14.4416 5.86773 14.4442 6.55937V9.04899H6.60575C5.91483 9.04899 5.23068 9.18507 4.59235 9.44948C3.95402 9.71388 3.37403 10.1014 2.88547 10.59C1.89879 11.5767 1.34448 12.9149 1.34448 14.3103V39.0119C1.34704 40.4074 1.90187 41.7452 2.88771 42.7328C3.87356 43.7205 5.21027 44.2778 6.60575 44.2829H46.6439C47.3356 44.2829 48.0206 44.1465 48.6595 43.8815C49.2985 43.6165 49.8789 43.2281 50.3676 42.7385C50.8563 42.2489 51.2436 41.6678 51.5075 41.0283C51.7713 40.3889 51.9064 39.7037 51.9051 39.0119V14.3103C51.9077 13.6186 51.7734 12.9333 51.5099 12.2938C51.2464 11.6543 50.859 11.0733 50.3699 10.5842C49.8808 10.0952 49.2998 9.70773 48.6603 9.44424C48.0208 9.18075 47.3355 9.04642 46.6439 9.04899V9.04899Z" stroke="#F59F23" stroke-width="1.21563" stroke-miterlimit="10"/>
<path d="M12.761 14.7673H10.1255V38.5549H12.761V14.7673Z" fill="#F59F23" stroke="#F59F23" stroke-miterlimit="10"/>
<path d="M36.1799 9.04899H17.0701V6.55937C17.0688 6.21291 17.1361 5.86963 17.2681 5.54929C17.4001 5.22896 17.5942 4.93791 17.8391 4.69293C18.0841 4.44794 18.3752 4.25386 18.6955 4.12187C19.0158 3.98988 19.3591 3.92259 19.7056 3.92388H33.5541C34.2496 3.92869 34.9159 4.20427 35.4116 4.69216C35.6561 4.93762 35.8498 5.22888 35.9816 5.54927C36.1135 5.86967 36.1808 6.21292 36.1799 6.55937V9.04899Z" stroke="#F59F23" stroke-width="0.972508" stroke-miterlimit="10"/>
<path d="M43.1243 14.7673H40.4888V38.5549H43.1243V14.7673Z" fill="#F59F23" stroke="#F59F23" stroke-width="0.972508" stroke-miterlimit="10"/>
</g>
<defs>
<clipPath id="clip0_547_435">
<rect width="51.7763" height="44.2005" fill="white" transform="translate(0.731934 0.685425)"/>
</clipPath>
</defs>
</svg>
