<svg width="75" height="57" viewBox="0 0 75 57" fill="none" xmlns="http://www.w3.org/2000/svg">
<path d="M27.8846 0.994075C27.8844 1.20169 27.8018 1.40072 27.6549 1.54753C27.5081 1.69433 27.3091 1.77693 27.1015 1.77721H7.85687C7.75402 1.77721 7.65219 1.75696 7.55717 1.7176C7.46216 1.67824 7.37583 1.62056 7.30311 1.54784C7.23039 1.47512 7.1727 1.38878 7.13334 1.29377C7.09399 1.19875 7.07373 1.09692 7.07373 0.994075C7.07373 0.891232 7.09399 0.789396 7.13334 0.694381C7.1727 0.599367 7.23039 0.513034 7.30311 0.440313C7.37583 0.367592 7.46216 0.309906 7.55717 0.27055C7.65219 0.231194 7.75402 0.210937 7.85687 0.210938H27.1015C27.3091 0.211218 27.5081 0.293817 27.6549 0.440623C27.8018 0.587429 27.8844 0.78646 27.8846 0.994075V0.994075Z" fill="#F59F23"/>
<path d="M20.8109 4.91937C20.8106 5.12698 20.728 5.32601 20.5812 5.47282C20.4344 5.61963 20.2354 5.70223 20.0278 5.70251H0.783138C0.575437 5.70251 0.376243 5.62 0.229376 5.47313C0.0825089 5.32626 0 5.12707 0 4.91937C0 4.71167 0.0825089 4.51247 0.229376 4.36561C0.376243 4.21874 0.575437 4.13623 0.783138 4.13623H20.0278C20.2354 4.13651 20.4344 4.21911 20.5812 4.36592C20.728 4.51272 20.8106 4.71175 20.8109 4.91937V4.91937Z" fill="#F59F23"/>
<path d="M74.7414 36.9464C74.4842 36.3344 74.0523 35.8118 73.4996 35.4441C72.9469 35.0763 72.2981 34.8797 71.6343 34.8788H71.2983V27.3876C71.2958 24.5053 70.1497 21.7418 68.1116 19.7037C66.0735 17.6656 63.31 16.5195 60.4277 16.517H51.1392V9.33521H6.59253V48.7284H12.1413C12.3551 50.7769 13.3203 52.6735 14.8504 54.0522C16.3805 55.4309 18.3671 56.1938 20.4267 56.1938C22.4863 56.1938 24.4729 55.4309 26.0031 54.0522C27.5332 52.6735 28.4983 50.7769 28.7122 48.7284H52.006C52.2199 50.7769 53.1851 52.6735 54.7152 54.0522C56.2453 55.4309 58.2319 56.1938 60.2915 56.1938C62.3511 56.1938 64.3377 55.4309 65.8678 54.0522C67.3979 52.6735 68.3631 50.7769 68.577 48.7284H75V38.2371C74.9998 37.794 74.9119 37.3553 74.7414 36.9464V36.9464ZM18.6268 51.2972C18.0713 50.9987 17.5985 50.5672 17.2507 50.0412C16.9028 49.5153 16.6907 48.9113 16.6334 48.2833C16.6301 48.2031 16.622 48.1231 16.6091 48.0438V48.0322C16.6013 47.9862 16.5964 47.9399 16.5942 47.8933C16.5886 47.7952 16.5968 47.6967 16.6186 47.6009L16.6334 47.5161C16.6398 47.4493 16.6483 47.3794 16.6599 47.3041C16.7487 46.6962 16.9828 46.1186 17.3424 45.6204C17.7019 45.1222 18.1762 44.718 18.7252 44.4421C19.2742 44.1662 19.8816 44.0268 20.4959 44.0356C21.1102 44.0444 21.7134 44.2012 22.2542 44.4927C22.7784 44.7759 23.2293 45.1773 23.5713 45.6651C23.9132 46.153 24.1368 46.7138 24.2243 47.3031C24.2338 47.3741 24.2433 47.4461 24.2497 47.515V47.5458C24.2679 47.6605 24.2799 47.7762 24.2857 47.8923C24.2806 48.0077 24.2689 48.1226 24.2507 48.2367V48.2664C24.1949 48.8963 23.9836 49.5026 23.6358 50.0309C23.288 50.5591 22.8146 50.9928 22.258 51.2931C21.7014 51.5933 21.0789 51.7508 20.4465 51.7513C19.814 51.7518 19.1913 51.5954 18.6342 51.2961L18.6268 51.2972ZM49.4648 16.9727V47.0583H28.7292C28.5892 45.6602 28.0952 44.3209 27.2938 43.1669C26.4924 42.0128 25.4101 41.0821 24.149 40.4625C22.9971 39.8922 21.7291 39.5955 20.4437 39.5955C19.1583 39.5955 17.8903 39.8922 16.7383 40.4625C15.4773 41.0821 14.3949 42.0128 13.5935 43.1669C12.7921 44.3209 12.2981 45.6602 12.1582 47.0583H8.28173V11.0096H49.4828L49.4648 16.9727ZM64.1166 48.2282V48.2632C64.0233 49.2073 63.5822 50.0829 62.8792 50.7198C62.1761 51.3568 61.2614 51.7095 60.3127 51.7095C59.364 51.7095 58.4493 51.3568 57.7462 50.7198C57.0432 50.0829 56.6021 49.2073 56.5088 48.2632V48.2325C56.4875 48.1219 56.4733 48.01 56.4664 47.8976C56.4748 47.781 56.4893 47.665 56.5099 47.55V47.5277C56.602 46.5826 57.0425 45.7056 57.7458 45.0675C58.4491 44.4294 59.3647 44.076 60.3143 44.076C61.2639 44.076 62.1795 44.4294 62.8828 45.0675C63.586 45.7056 64.0266 46.5826 64.1187 47.5277V47.5563C64.139 47.6685 64.1531 47.7817 64.1611 47.8955C64.1533 48.0072 64.1385 48.1184 64.1166 48.2282V48.2282ZM73.3055 47.0625H68.595C68.3799 45.0148 67.4142 43.1192 65.8842 41.7414C64.3541 40.3636 62.368 39.6011 60.309 39.6011C58.25 39.6011 56.2639 40.3636 54.7338 41.7414C53.2037 43.1192 52.238 45.0148 52.023 47.0625H51.1392V18.2231H60.4277C62.8609 18.2253 65.1943 19.1907 66.9179 20.9081C68.6415 22.6256 69.6152 24.9555 69.6261 27.3887V36.5522H71.6226C71.8455 36.5494 72.0667 36.591 72.2734 36.6745C72.48 36.758 72.6681 36.8818 72.8265 37.0386C72.9849 37.1955 73.1108 37.3821 73.197 37.5878C73.2832 37.7935 73.328 38.0141 73.3288 38.2371L73.3055 47.0625Z" fill="#F59F23"/>
<path d="M64.2723 23.9711C63.4808 23.1749 62.5396 22.5433 61.5029 22.1126C60.4662 21.6819 59.3545 21.4607 58.2318 21.4617H53.9834V33.2469H66.7754V30.0115C66.7771 28.8894 66.5568 27.778 66.1272 26.7413C65.6976 25.7046 65.0672 24.7631 64.2723 23.9711V23.9711ZM57.1901 23.0576L61.0571 31.7071H59.8723L55.9418 23.0619L57.1901 23.0576Z" fill="#F59F23"/>
</svg>
