<svg width="43" height="41" viewBox="0 0 43 41" fill="none" xmlns="http://www.w3.org/2000/svg">
<path d="M42.6121 9.33445C42.6121 7.923 42.0516 6.56952 41.0534 5.57128C40.0552 4.57343 38.7017 4.01253 37.2902 4.01253H34.8476V1.06429C34.8476 0.476634 34.3709 0 33.7829 0C33.1952 0 32.7186 0.476653 32.7186 1.06429V4.01253H22.5642V1.06429C22.5642 0.476634 22.0879 0 21.4999 0C20.9119 0 20.4356 0.476653 20.4356 1.06429V4.01253H10.2812V1.06429C10.2812 0.476634 9.80458 0 9.21694 0C8.62892 0 8.15227 0.476653 8.15227 1.06429V4.01253H5.70961C4.29816 4.01253 2.94469 4.57345 1.94645 5.57128C0.948207 6.56952 0.387695 7.923 0.387695 9.33445V35.3263C0.387695 36.7377 0.948245 38.0916 1.94645 39.0895C2.94469 40.0877 4.29816 40.6482 5.70961 40.6482H37.2895C38.7009 40.6482 40.0544 40.0877 41.0526 39.0895C42.0509 38.0916 42.6114 36.7377 42.6114 35.3263L42.6121 9.33445ZM40.4836 35.332V35.3324C40.4836 36.1791 40.1469 36.9914 39.5481 37.5902C38.9493 38.189 38.137 38.5253 37.2902 38.5253H5.71039C4.86362 38.5253 4.05138 38.189 3.45257 37.5902C2.85377 36.9914 2.51707 36.1791 2.51707 35.3324V16.8387H40.4842L40.4836 35.332ZM40.4836 14.7143L2.51646 14.7147V9.33415C2.51646 8.48738 2.85317 7.67514 3.45196 7.07633C4.05075 6.47754 4.86303 6.14121 5.70978 6.14121H8.15244V9.08946C8.15244 9.67711 8.6291 10.1537 9.21711 10.1537C9.80477 10.1537 10.2814 9.67709 10.2814 9.08946V6.14121H20.4358V9.08946C20.4358 9.67711 20.9121 10.1537 21.5001 10.1537C22.0881 10.1537 22.5644 9.67709 22.5644 9.08946V6.14121H32.7188V9.08946C32.7188 9.67711 33.1954 10.1537 33.7831 10.1537C34.3711 10.1537 34.8477 9.67709 34.8477 9.08946V6.14121H37.2904C38.1372 6.14121 38.9494 6.47755 39.5482 7.07633C40.147 7.67512 40.4837 8.4874 40.4837 9.33415L40.4836 14.7143Z" fill="#F59F23"/>
<path d="M17.9937 33.0966C18.4073 33.5023 19.0699 33.5023 19.4838 33.0966L31.6121 21.5319C32.0368 21.125 32.0513 20.4505 31.644 20.0258C31.2372 19.6011 30.5626 19.587 30.1379 19.9939L18.7595 30.8715L12.9052 25.0172C12.4909 24.5984 11.8152 24.5947 11.3965 25.0094C10.9778 25.4237 10.9741 26.0993 11.3887 26.5181L17.9937 33.0966Z" fill="#F59F23"/>
</svg>
