<svg width="54" height="52" viewBox="0 0 54 52" fill="none" xmlns="http://www.w3.org/2000/svg">
<path d="M27.0081 16.0217V24.665" stroke="#F59F23" stroke-width="4.8468" stroke-linecap="round" stroke-linejoin="round"/>
<path d="M42.5824 3H11.4336C9.1968 3 7.05177 3.88858 5.47042 5.46993C3.88863 7.05172 3 9.1968 3 11.4336V34.6821C3 36.9189 3.88858 39.0639 5.47042 40.6453C7.05172 42.2271 9.1968 43.1157 11.4336 43.1157H19.6733L23.7771 47.6067C24.6037 48.5186 25.7774 49.0388 27.0082 49.0388C28.2389 49.0388 29.4127 48.5186 30.2392 47.6067L34.343 43.0994H42.5827C44.8135 43.0949 46.9523 42.2068 48.5301 40.6295C50.1074 39.0516 50.9955 36.9129 51 34.6821V11.4336C51 9.19971 50.1139 7.0571 48.5356 5.47591C46.9577 3.89461 44.8166 3.00452 42.5827 3.00016L42.5824 3Z" stroke="#F59F23" stroke-width="4.8468" stroke-linecap="round" stroke-linejoin="round"/>
<path d="M29.8359 32.938C29.8359 34.4995 28.57 35.7654 27.0086 35.7654C25.4471 35.7654 24.1812 34.4994 24.1812 32.938C24.1812 31.3766 25.4471 30.1106 27.0086 30.1106C28.57 30.1106 29.8359 31.3766 29.8359 32.938Z" fill="#F59F23"/>
</svg>
