<svg width="31" height="41" viewBox="0 0 31 41" fill="none" xmlns="http://www.w3.org/2000/svg">
<path d="M30.3 40.8402C30.615 40.8402 30.8695 40.5852 30.8695 40.2707L30.8691 0.914508C30.8691 0.888298 30.8576 0.866059 30.8544 0.84104C30.8493 0.801328 30.8449 0.763203 30.831 0.725478C30.8183 0.690928 30.8004 0.660746 30.7814 0.629374C30.7631 0.598001 30.746 0.567819 30.7214 0.540417C30.6948 0.510235 30.6626 0.4876 30.6305 0.463376C30.6098 0.448682 30.5963 0.427635 30.5737 0.414927C30.5649 0.410558 30.5554 0.410955 30.5471 0.40619C30.5129 0.389511 30.4752 0.381568 30.4379 0.372037C30.4009 0.362903 30.3656 0.351387 30.3279 0.349798C30.3183 0.349401 30.3104 0.344238 30.3001 0.344238H0.800184C0.790653 0.344238 0.781917 0.349401 0.772386 0.349798C0.734659 0.351387 0.699314 0.362904 0.661988 0.372037C0.624261 0.381568 0.587329 0.389113 0.55278 0.40619C0.544043 0.410161 0.534512 0.409764 0.526173 0.414927C0.503536 0.427635 0.48924 0.447888 0.469384 0.462582C0.43682 0.48641 0.405051 0.509443 0.378444 0.539624C0.353821 0.567025 0.336745 0.597208 0.318478 0.62858C0.299813 0.659953 0.281545 0.690134 0.268837 0.724684C0.255335 0.76241 0.250569 0.800535 0.245407 0.840246C0.241832 0.865264 0.230713 0.887901 0.230713 0.914111V40.2703C0.230713 40.5844 0.485269 40.8398 0.800194 40.8398L30.3 40.8402ZM1.36949 39.7017V3.13817L3.38336 6.81312C3.48343 6.9954 3.67485 7.10898 3.88255 7.10898H27.2175C27.4252 7.10898 27.6166 6.9958 27.7167 6.81312L29.7306 3.13817V39.7027L1.36949 39.7017ZM26.8801 5.97053H4.22016L1.7611 1.48419H29.3395L26.8801 5.97053Z" fill="#F59F23"/>
<path d="M11.8881 21.7952H14.7581V18.9252C14.7581 18.6111 15.0126 18.3557 15.3275 18.3557C15.6425 18.3557 15.897 18.6107 15.897 18.9252V21.7952H18.7663C19.0812 21.7952 19.3358 22.0501 19.3358 22.3647C19.3358 22.6788 19.0812 22.9341 18.7663 22.9341H15.897V25.8041C15.897 26.1182 15.6425 26.3736 15.3275 26.3736C15.0126 26.3736 14.7581 26.1186 14.7581 25.8041V22.9337H11.8881C11.5732 22.9337 11.3186 22.6788 11.3186 22.3642C11.319 22.0501 11.574 21.7952 11.8881 21.7952V21.7952Z" fill="#F59F23"/>
<path d="M8.74219 22.3646C8.74219 25.9951 11.696 28.9489 15.327 28.9489C18.9575 28.9489 21.9113 25.9951 21.9113 22.3646C21.9113 18.734 18.9575 15.7798 15.327 15.7798C11.6956 15.7798 8.74219 18.734 8.74219 22.3646ZM9.88072 22.3646C9.88072 19.3615 12.3238 16.9184 15.3269 16.9184C18.3295 16.9184 20.7722 19.3615 20.7722 22.3646C20.7722 25.3672 18.3291 27.8099 15.3269 27.8099C12.3234 27.8103 9.88072 25.3672 9.88072 22.3646Z" fill="#F59F23"/>
</svg>
