<svg width="54" height="45" viewBox="0 0 54 45" fill="none" xmlns="http://www.w3.org/2000/svg">
<path fill-rule="evenodd" clip-rule="evenodd" d="M4.17585 36.9446H35.7502C36.1014 37.0833 36.3321 37.4226 36.3321 37.8002C36.3321 38.1777 36.1014 38.517 35.7502 38.6558H4.17585C2.14344 38.6558 0.49585 37.0082 0.49585 34.9758V7.37576C0.49585 5.34335 2.14344 3.69576 4.17585 3.69576H7.00945V1.28536C7.00945 0.77726 7.42135 0.365362 7.92945 0.365362C8.43755 0.365362 8.84945 0.77726 8.84945 1.28536V3.69576H18.0494V1.28536C18.0494 0.77726 18.4613 0.365362 18.9694 0.365362C19.4776 0.365362 19.8895 0.77726 19.8895 1.28536V3.69576H29.0894V1.28536C29.0894 0.77726 29.5013 0.365362 30.0094 0.365362C30.5176 0.365362 30.9294 0.77726 30.9294 1.28536V3.69576H40.1294V1.06456C40.1294 0.55646 40.5413 0.144562 41.0494 0.144562C41.5576 0.144562 41.9694 0.55646 41.9694 1.06456V3.82456H45.079C47.1115 3.82456 48.759 5.47215 48.759 7.50456V26.6222C48.759 27.1303 48.3472 27.5422 47.8391 27.5422C47.3309 27.5422 46.919 27.1303 46.919 26.6222V13.6502H2.33585V35.1046C2.33585 36.1208 3.15965 36.9446 4.17585 36.9446ZM7.21185 5.53576H4.17585C3.65518 5.51884 3.15173 5.72341 2.79045 6.09873C2.42917 6.47404 2.24391 6.98491 2.28065 7.50456V11.755H47.0478V7.37576C47.0478 6.35956 46.2241 5.53576 45.2078 5.53576H42.1718V7.72536C42.1718 8.23346 41.76 8.64536 41.2519 8.64536C40.7437 8.64536 40.3318 8.23346 40.3318 7.72536V5.53576H31.1318V7.94616C31.1318 8.45426 30.72 8.86616 30.2118 8.86616C29.7037 8.86616 29.2918 8.45426 29.2918 7.94616V5.53576H20.0918V7.94616C20.0918 8.45426 19.68 8.86616 19.1718 8.86616C18.6637 8.86616 18.2519 8.45426 18.2519 7.94616V5.53576H9.05185V7.94616C9.05185 8.45426 8.63995 8.86616 8.13185 8.86616C7.62375 8.86616 7.21185 8.45426 7.21185 7.94616V5.53576Z" fill="#F59F23"/>
<rect x="14.6271" y="16.7598" width="3.5328" height="3.5328" fill="#F59F23"/>
<rect x="22.9071" y="16.7598" width="3.5328" height="3.5328" fill="#F59F23"/>
<rect x="31.187" y="16.7414" width="3.5328" height="3.5328" fill="#F59F23"/>
<rect x="6.34705" y="23.5126" width="3.5328" height="3.5328" fill="#F59F23"/>
<rect x="14.6271" y="23.5126" width="3.5328" height="3.5328" fill="#F59F23"/>
<rect x="22.9071" y="23.5126" width="3.5328" height="3.5328" fill="#F59F23"/>
<rect x="6.34705" y="30.339" width="3.5328" height="3.5328" fill="#F59F23"/>
<rect x="14.6271" y="30.339" width="3.5328" height="3.5328" fill="#F59F23"/>
<rect x="22.9071" y="30.3022" width="3.5328" height="3.5328" fill="#F59F23"/>
<rect x="31.187" y="30.3022" width="3.5328" height="3.5328" fill="#F59F23"/>
<rect x="31.187" y="23.4942" width="3.5328" height="3.5328" fill="#F59F23"/>
<rect x="39.3198" y="16.7046" width="3.5328" height="3.5328" fill="#F59F23"/>
<rect x="39.3198" y="23.4574" width="3.5328" height="3.5328" fill="#F59F23"/>
<path fill-rule="evenodd" clip-rule="evenodd" d="M38.9889 33.68C40.184 30.8043 42.9953 28.9331 46.1095 28.9406C50.3428 28.9507 53.7721 32.38 53.7823 36.6134C53.7897 39.7275 51.9185 42.5388 49.0429 43.734C46.1672 44.9291 42.8546 44.2723 40.6526 42.0702C38.4506 39.8682 37.7937 36.5556 38.9889 33.68ZM40.6906 38.8653C41.602 41.0511 43.7412 42.472 46.1095 42.4646C49.3338 42.4544 51.9423 39.8377 51.9423 36.6134C51.9422 34.2451 50.5147 32.1104 48.3259 31.2058C46.1372 30.3013 43.6191 30.8052 41.9471 32.4825C40.2752 34.1597 39.7791 36.6795 40.6906 38.8653Z" fill="#F59F23"/>
<path fill-rule="evenodd" clip-rule="evenodd" d="M46.2984 34.1446V37.2557Z" fill="#F59F23"/>
<path d="M46.2984 34.1446V37.2557" stroke="#F59F23" stroke-width="2" stroke-linecap="round" stroke-linejoin="round"/>
<path fill-rule="evenodd" clip-rule="evenodd" d="M46.2985 40.3668H46.3062Z" fill="#F59F23"/>
<path d="M46.2985 40.3668H46.3062" stroke="#F59F23" stroke-width="2" stroke-linecap="round" stroke-linejoin="round"/>
</svg>
