<?xml version="1.0" encoding="UTF-8" standalone="no"?>
<svg
   xmlns:dc="http://purl.org/dc/elements/1.1/"
   xmlns:cc="http://creativecommons.org/ns#"
   xmlns:rdf="http://www.w3.org/1999/02/22-rdf-syntax-ns#"
   xmlns:svg="http://www.w3.org/2000/svg"
   xmlns="http://www.w3.org/2000/svg"
   viewBox="0 0 682.66669 682.66669"
   height="682.66669"
   width="682.66669"
   xml:space="preserve"
   id="svg2"
   version="1.1"><metadata
     id="metadata8"><rdf:RDF><cc:Work
         rdf:about=""><dc:format>image/svg+xml</dc:format><dc:type
           rdf:resource="http://purl.org/dc/dcmitype/StillImage" /></cc:Work></rdf:RDF></metadata><defs
     id="defs6"><clipPath
       id="clipPath18"
       clipPathUnits="userSpaceOnUse"><path
         id="path16"
         d="M 0,512 H 512 V 0 H 0 Z" /></clipPath></defs><g
     transform="matrix(1.3333333,0,0,-1.3333333,0,682.66667)"
     id="g10"><g
       id="g12"><g
         clip-path="url(#clipPath18)"
         id="g14"><g
           transform="translate(326.9258,269.1035)"
           id="g20"><path
             id="path22"
             style="fill:#f79a36;fill-opacity:1;fill-rule:nonzero;stroke:none"
             d="m 0,0 v -6.957 c -0.001,-14.361 -0.001,-14.361 14.389,-13.718 0.66,0.03 1.324,0.027 1.98,0.097 0.68,0.072 1.139,0.379 1.48,1.073 1.986,4.039 -0.433,12.782 -4.401,14.532 C 9.255,-3.124 4.845,-1.766 0,0 m 126.97,-0.127 c -4.071,-1.214 -7.58,-2.18 -11.037,-3.31 -6.385,-2.086 -8.78,-6.726 -6.797,-14.959 1.145,-4.755 5.58,-1.482 8.429,-2.192 1.882,-0.47 3.985,0.03 5.973,-0.116 2.552,-0.189 3.561,0.722 3.481,3.39 -0.165,5.481 -0.049,10.972 -0.049,17.187 M 48.809,47.769 c -1.29,-4.336 2.099,-6.236 4.635,-8.521 3.202,-2.885 6.351,-7.596 9.851,-7.915 3.97,-0.362 6.619,5.334 10.262,7.866 3.751,2.607 5.315,5.942 4.849,10.604 -0.286,2.86 -0.937,3.218 -3.602,2.411 -6.973,-2.112 -14.171,-2.437 -21.138,-0.293 -4.488,1.382 -5.766,0.233 -4.857,-4.152 m -7.557,47.773 c -0.055,0 -0.108,0 -0.162,0 0,-2.996 -0.15,-6 0.026,-8.985 0.642,-10.892 9.193,-20.099 19.271,-20.884 12.632,-0.985 22.479,5.619 24.794,17.32 1.551,7.847 1.492,15.934 -0.005,23.8 C 83.063,117.898 73.698,125.198 62.76,124.9 52.298,124.615 42.994,116.595 41.335,106.001 40.802,102.594 41.252,99.033 41.252,95.542 M 64.031,-35.371 h -7.989 c -25.798,0 -51.596,-0.068 -77.393,0.078 -3.65,0.021 -5.089,-0.828 -4.778,-4.693 0.348,-4.299 0.33,-8.667 0.006,-12.97 -0.294,-3.904 0.944,-5.033 4.937,-5.014 34.286,0.161 68.573,0.093 102.859,0.093 22.303,0 44.605,0.069 66.907,-0.073 3.423,-0.022 4.77,0.815 4.523,4.411 -0.295,4.307 -0.332,8.67 0.006,12.97 0.323,4.103 -0.98,5.325 -5.194,5.297 -27.96,-0.191 -55.922,-0.099 -83.884,-0.099 m -0.718,14.723 h 22.476 c 8.173,0 8.173,0 8.249,8.044 0.108,11.353 5.71,19.158 16.493,22.903 3.924,1.362 7.87,2.658 11.819,3.951 1.787,0.584 2.716,1.188 1.854,3.51 -4.796,12.917 -13.28,21.66 -27.011,24.81 -2.604,0.597 -4.202,0.29 -4.073,-2.917 0.086,-2.138 -1.15,-3.782 -2.685,-5.148 C 83.22,28.091 76.052,21.623 68.733,15.33 65.272,12.354 61.753,12.134 58.09,15.552 51.155,22.022 44.002,28.26 36.916,34.568 c -1.521,1.354 -3.096,2.713 -3.017,4.924 0.127,3.518 -1.672,3.623 -4.427,3.001 C 18.747,40.072 10.874,33.936 5.583,24.411 0.714,15.647 0.755,15.625 10.008,12.508 12.843,11.554 15.738,10.75 18.5,9.617 25.55,6.726 30.224,1.707 32.097,-5.834 c 0.897,-3.616 1.035,-7.264 0.797,-10.907 -0.202,-3.081 0.899,-4.027 3.949,-3.967 8.82,0.171 17.646,0.061 26.47,0.06 m 0.174,-105.465 c 21.989,0 43.979,0.066 65.967,-0.069 3.486,-0.021 4.99,0.578 4.925,4.572 -0.243,14.82 -0.173,29.648 -0.036,44.471 0.028,3.141 -0.721,4.343 -4.123,4.335 -44.479,-0.102 -88.956,-0.102 -133.434,0 -3.387,0.008 -4.163,-1.165 -4.133,-4.319 0.14,-14.657 0.237,-29.319 -0.046,-43.972 -0.085,-4.379 1.457,-5.137 5.414,-5.104 21.821,0.179 43.643,0.086 65.466,0.086 m -0.002,-14.728 c -21.656,0 -43.315,-0.175 -64.967,0.131 -5.021,0.07 -6.394,-1.487 -5.874,-6.158 0.366,-3.291 0.138,-6.657 0.051,-9.986 -0.158,-6.12 -2.644,-9.077 -7.54,-9.126 -5.007,-0.051 -7.535,2.659 -7.57,8.972 -0.117,20.654 -0.052,41.31 -0.057,61.965 -10e-4,5.997 -0.091,11.996 0.04,17.989 0.061,2.742 -0.417,4.076 -3.71,4.307 -9.417,0.66 -14.755,6.643 -14.847,16.048 -0.066,6.662 -0.051,13.326 -0.005,19.988 0.067,9.847 5.837,15.814 15.693,16.312 10.352,0.523 10.363,0.523 10.349,10.959 -0.015,11.306 -0.627,22.645 3.862,33.469 7.47,18.009 19.953,29.958 39.638,33.423 5.004,0.881 7.081,4.592 4.127,9.026 -8.661,12.997 -7.69,27.542 -5.957,41.6 2.422,19.661 19.619,32.779 39.077,31.751 18.532,-0.98 33.846,-16.164 34.9,-35.456 0.716,-13.082 1.484,-26.282 -6.5,-38.142 -2.962,-4.4 -0.69,-7.936 4.504,-8.842 21.894,-3.821 39.099,-22.193 42.316,-44.791 1.325,-9.307 0.937,-18.621 0.798,-27.924 -0.064,-4.285 1.302,-5.57 5.366,-5.125 2.453,0.268 5.008,0.105 7.465,-0.24 7.997,-1.125 13.149,-6.913 13.282,-14.963 0.121,-7.327 0.113,-14.659 0.002,-21.988 -0.121,-8 -5.829,-14.588 -13.801,-14.996 -4.26,-0.216 -4.727,-1.891 -4.71,-5.423 0.112,-25.152 0.064,-50.304 0.051,-75.458 -10e-4,-1.828 -0.02,-3.668 -0.212,-5.483 -0.471,-4.449 -2.821,-6.958 -7.485,-6.983 -4.82,-0.027 -6.963,2.908 -7.33,7.161 -0.356,4.135 -0.42,8.345 -0.079,12.476 0.355,4.279 -0.848,5.678 -5.41,5.623 -21.819,-0.259 -43.644,-0.116 -65.467,-0.116" /></g><g
           transform="translate(121.6489,211.2266)"
           id="g24"><path
             id="path26"
             style="fill:#f79a36;fill-opacity:1;fill-rule:nonzero;stroke:none"
             d="m 0,0 h 20.473 c 21.306,0 42.612,0.118 63.916,-0.101 4.239,-0.043 5.516,1.24 5.174,5.321 -0.333,3.967 -0.408,8.018 0.015,11.967 0.498,4.639 -1.407,5.42 -5.62,5.41 -51.599,-0.14 -103.198,-0.091 -154.797,-0.091 -4.828,0 -9.668,-0.222 -14.477,0.072 -3.634,0.223 -4.559,-1.185 -4.364,-4.566 0.259,-4.479 0.338,-9.005 -0.019,-13.471 -0.314,-3.924 1.223,-4.636 4.81,-4.618 C -56.593,0.062 -28.296,0 0,0 m -0.38,37.491 c 13.66,0 27.323,0.142 40.98,-0.085 4.131,-0.068 4.879,0.994 4.302,5.097 -3.704,26.352 -7.145,52.743 -10.532,79.139 -1.139,8.869 -4.715,12.457 -13.551,12.502 -13.493,0.069 -26.987,0.037 -40.481,0.015 -10.124,-0.017 -13.511,-2.951 -14.806,-12.84 -3.476,-26.554 -6.835,-53.123 -10.498,-79.651 -0.492,-3.559 0.311,-4.262 3.606,-4.23 13.659,0.129 27.32,0.054 40.98,0.053 m 0.582,-52.485 c -22.13,0 -44.262,-0.092 -66.391,0.088 -3.782,0.031 -4.749,-1.064 -4.698,-4.759 0.206,-14.806 0.172,-29.616 0.018,-44.422 -0.034,-3.258 0.933,-4.221 4.202,-4.214 44.428,0.097 88.856,0.093 133.283,0.007 3.231,-0.007 4.289,0.935 4.254,4.229 -0.156,14.806 -0.193,29.617 0.02,44.421 0.055,3.79 -1.113,4.755 -4.796,4.729 -21.963,-0.16 -43.927,-0.079 -65.892,-0.079 m -85.964,-44.617 c -0.001,13.32 -0.079,26.641 0.056,39.961 0.032,3.15 -0.36,4.668 -4.184,4.811 -8.594,0.324 -14.413,6.641 -14.601,15.265 -0.152,6.99 -0.1,13.986 -0.025,20.979 0.106,9.75 6.092,15.84 15.929,16.049 7.49,0.16 14.994,0.243 22.476,-0.049 3.835,-0.149 5.405,0.72 5.954,4.912 3.651,27.863 7.754,55.666 11.455,83.522 1.772,13.336 11.897,23.284 25.417,23.53 15.647,0.286 31.31,0.323 46.955,-0.012 13.468,-0.288 23.62,-10.209 25.515,-24.261 3.735,-27.685 7.491,-55.368 10.985,-83.084 0.474,-3.752 1.822,-4.686 5.307,-4.586 7.487,0.213 14.986,0.142 22.478,0.042 10.437,-0.139 16.368,-6.115 16.466,-16.526 0.065,-6.826 0.101,-13.654 -0.021,-20.479 -0.151,-8.445 -5.711,-14.822 -14.024,-15.254 -4.032,-0.209 -4.455,-1.763 -4.44,-5.121 0.111,-25.975 0.056,-51.949 0.065,-77.924 0.002,-4.56 -0.523,-8.905 -5.92,-10.159 -4.836,-1.123 -8.625,1.609 -9.056,6.714 -0.391,4.631 -0.322,9.318 -0.17,13.97 0.101,3.049 -0.577,4.424 -4.07,4.416 -44.627,-0.107 -89.255,-0.09 -133.882,-0.023 -2.747,0.004 -3.891,-0.726 -3.756,-3.634 0.202,-4.319 0.137,-8.658 0.025,-12.984 -0.146,-5.623 -2.792,-8.531 -7.565,-8.564 -4.879,-0.033 -7.323,2.69 -7.349,8.529 -0.058,13.319 -0.018,26.639 -0.02,39.96" /></g><g
           transform="translate(129.1787,281.9121)"
           id="g28"><path
             id="path30"
             style="fill:#f79a36;fill-opacity:1;fill-rule:nonzero;stroke:none"
             d="m 0,0 c -3.307,-0.711 -4.942,4.106 -7.747,3.705 -2.595,-0.372 -4.36,-3.942 -7.799,-3.72 -2.938,0.19 -5.063,1.577 -6.436,4.06 -1.546,2.795 -1.203,5.671 0.982,7.839 2.281,2.264 2.824,3.787 0.213,6.356 -3.036,2.989 -2.804,6.604 0.098,9.808 2.696,2.976 6.91,3.269 10.289,0.314 2.071,-1.811 3.267,-2.6 5.607,-0.22 3.119,3.175 6.903,3.148 10.222,0.044 C 8.649,25.174 8.681,21.558 5.879,18.4 3.663,15.902 3.6,14.247 5.997,11.88 8.201,9.704 8.414,6.811 6.835,4.032 5.438,1.575 3.413,-0.018 0,0" /></g></g></g></g></svg>