<?xml version="1.0" encoding="UTF-8" standalone="no"?>
<svg
   xmlns:dc="http://purl.org/dc/elements/1.1/"
   xmlns:cc="http://creativecommons.org/ns#"
   xmlns:rdf="http://www.w3.org/1999/02/22-rdf-syntax-ns#"
   xmlns:svg="http://www.w3.org/2000/svg"
   xmlns="http://www.w3.org/2000/svg"
   viewBox="0 0 1600 1600"
   height="1600"
   width="1600"
   xml:space="preserve"
   id="svg2"
   version="1.1"><metadata
     id="metadata8"><rdf:RDF><cc:Work
         rdf:about=""><dc:format>image/svg+xml</dc:format><dc:type
           rdf:resource="http://purl.org/dc/dcmitype/StillImage" /></cc:Work></rdf:RDF></metadata><defs
     id="defs6"><clipPath
       id="clipPath18"
       clipPathUnits="userSpaceOnUse"><path
         id="path16"
         d="M 0,1200 H 1200 V 0 H 0 Z" /></clipPath></defs><g
     transform="matrix(1.3333333,0,0,-1.3333333,0,1600)"
     id="g10"><g
       id="g12"><g
         clip-path="url(#clipPath18)"
         id="g14"><g
           transform="translate(759.5596,224.6299)"
           id="g20"><path
             id="path22"
             style="fill:#007dff;fill-opacity:1;fill-rule:nonzero;stroke:none"
             d="m 0,0 c 0,-95.53 -77.439,-172.96 -172.959,-172.96 -95.531,0 -172.971,77.43 -172.971,172.96 0,54.5 25.21,103.11 64.6,134.82 l 5.27,-83.41 c 0,0 -61.1,-60.15 -23.899,-77.58 44.379,-20.8 84.419,16.13 107.379,58.65 0,0 8.101,96.48 12.33,140.32 2.42,0.11 4.851,0.16 7.291,0.16 9.02,0 17.869,-0.689 26.52,-2.02 3.129,-43.81 9.83,-149.419 9.83,-149.419 0,0 -59.231,-60.131 -26.491,-80.59 37.241,-23.271 81.83,6 112.55,59.069 l 7.321,114.39 C -16.319,83.9 0,43.86 0,0" /></g><g
           transform="translate(808.0361,900.7554)"
           id="g24"><path
             id="path26"
             style="fill:#fdbe2e;fill-opacity:1;fill-rule:nonzero;stroke:none"
             d="m 0,0 c 0,-95.296 -78.748,-161.376 -199.858,-146.015 -109.502,13.89 -224.097,117.625 -215.298,237.876 9.931,135.722 145.344,180.927 248.105,142.624 C -35.301,185.376 0,65.378 0,0" /></g><g
           transform="translate(740.46,716.21)"
           id="g28"><path
             id="path30"
             style="fill:#232323;fill-opacity:1;fill-rule:nonzero;stroke:none"
             d="m 0,0 -9.83,-153.6 v -0.01 l -14.3,-223.58 -7.32,-114.39 -86.06,21.52 c 0,0 -6.7,105.61 -9.83,149.42 -0.7,9.84 -1.22,16.55 -1.45,18.26 -1.24,9.31 -3.72,17.38 -13.35,18.62 -9.62,1.24 -14.89,-4.65 -16.75,-14.27 -0.38,-1.94 -1.19,-9.66 -2.26,-20.75 -4.23,-43.84 -12.33,-140.32 -12.33,-140.32 -4.67,1.06 -9.48,2.15 -14.31,3.24 l -3.27,0.75 c -7.39,1.67 -14.79,3.35 -21.82,4.94 l -3.43,0.78 c -5.81,1.32 -11.31,2.57 -16.28,3.69 l -3.87,0.88 c -5.01,1.14 -9.34,2.12 -12.71,2.88 l -1.57,0.36 c -3.95,0.89 -6.22,1.41 -6.22,1.41 l -5.27,83.41 -15.91,251.99 -9.85,156.08 263.85,-47.01 -240.16,42.78 122.16,-188.7 118,145.92 z" /></g><g
           transform="translate(716.3203,720.5098)"
           id="g32"><path
             id="path34"
             style="fill:#fdbe2e;fill-opacity:1;fill-rule:nonzero;stroke:none"
             d="M 0,0 -118,-145.92 -240.16,42.78 Z" /></g><g
           transform="translate(462.3198,611.4399)"
           id="g36"><path
             id="path38"
             style="fill:#fdbe2e;fill-opacity:1;fill-rule:nonzero;stroke:none"
             d="m 0,0 c 0,0 -54.96,-116.61 -58.68,-126.38 -3.73,-9.78 -16.14,-8.85 -21.52,-6.78 -5.38,2.07 -10.34,5.38 -25.65,12.41 -15.31,7.041 -11.18,14.9 -9.11,22.76 2.07,7.86 54.12,222.68 60.72,239.07 9.21,22.86 44.39,15 44.39,15 z" /></g><g
           transform="translate(850.3301,390.3896)"
           id="g40"><path
             id="path42"
             style="fill:#fdbe2e;fill-opacity:1;fill-rule:nonzero;stroke:none"
             d="m 0,0 c -16,-1.14 -42.11,-1.54 -45.16,-0.3 -5.34,2.17 -7.19,8.481 -10.92,18.26 -3.7,9.721 -62.93,152.61 -63.62,154.25 v 0.011 l 9.83,153.599 c 0,0 27.48,0.991 47.17,-28.549 C -42.01,266.23 -20.91,120.221 1.479,20.44 3.26,12.511 7.79,0.561 0,0" /></g><g
           transform="translate(566.98,257.1104)"
           id="g44"><path
             id="path46"
             style="fill:#fdbe2e;fill-opacity:1;fill-rule:nonzero;stroke:none"
             d="m 0,0 c -22.96,-42.521 -63,-79.45 -107.38,-58.65 -37.2,17.429 23.9,77.58 23.9,77.58 0,0 2.27,-0.521 6.22,-1.41 0.5,-0.121 1.02,-0.23 1.57,-0.361 3.37,-0.76 7.7,-1.739 12.71,-2.88 1.25,-0.29 2.54,-0.58 3.87,-0.88 4.97,-1.12 10.47,-2.37 16.28,-3.689 1.13,-0.261 2.27,-0.511 3.43,-0.78 7.03,-1.59 14.43,-3.271 21.82,-4.941 1.09,-0.25 2.18,-0.5 3.27,-0.75 C -9.48,2.149 -4.67,1.06 0,0" /></g><g
           transform="translate(709.0098,224.6299)"
           id="g48"><path
             id="path50"
             style="fill:#fdbe2e;fill-opacity:1;fill-rule:nonzero;stroke:none"
             d="m 0,0 c -30.72,-53.069 -75.31,-82.34 -112.55,-59.069 -32.74,20.459 26.49,80.59 26.49,80.59 z" /></g></g></g></g></svg>