<svg width="45" height="45" viewBox="0 0 45 45" fill="none" xmlns="http://www.w3.org/2000/svg">
<path d="M29.6024 7.77898C29.6024 3.77782 26.3485 0.523926 22.3473 0.523926C18.3462 0.523926 15.0923 3.77782 15.0923 7.77898C15.0923 11.7801 18.3462 15.034 22.3473 15.034C26.3485 15.034 29.6024 11.7801 29.6024 7.77898ZM18.7198 7.77898C18.7198 5.77856 20.3469 4.15146 22.3473 4.15146C24.3478 4.15146 25.9749 5.77856 25.9749 7.77898C25.9749 9.77941 24.3478 11.4065 22.3473 11.4065C20.3469 11.4065 18.7198 9.77941 18.7198 7.77898Z" fill="#F59F23"/>
<path d="M40.485 31.358V16.8479H4.20972V31.358H7.83725V20.4754H20.5336V31.358H24.1611V20.4754H36.8575V31.358H40.485Z" fill="#F59F23"/>
<path d="M38.671 33.1716C35.6711 33.1716 33.2297 35.613 33.2297 38.6129C33.2297 41.6129 35.6711 44.0542 38.671 44.0542C41.671 44.0542 44.1123 41.6129 44.1123 38.6129C44.1123 35.613 41.671 33.1716 38.671 33.1716ZM38.671 40.4267C37.6718 40.4267 36.8573 39.6141 36.8573 38.6129C36.8573 37.6117 37.6718 36.7992 38.671 36.7992C39.6702 36.7992 40.4848 37.6117 40.4848 38.6129C40.4848 39.6141 39.6702 40.4267 38.671 40.4267Z" fill="#F59F23"/>
<path d="M6.02333 33.1716C3.02336 33.1716 0.582031 35.613 0.582031 38.6129C0.582031 41.6129 3.02336 44.0542 6.02333 44.0542C9.02329 44.0542 11.4646 41.6129 11.4646 38.6129C11.4646 35.613 9.02329 33.1716 6.02333 33.1716ZM6.02333 40.4267C5.02414 40.4267 4.20956 39.6141 4.20956 38.6129C4.20956 37.6117 5.02414 36.7992 6.02333 36.7992C7.02251 36.7992 7.83709 37.6117 7.83709 38.6129C7.83709 39.6141 7.02251 40.4267 6.02333 40.4267Z" fill="#F59F23"/>
<path d="M22.3473 33.1716C19.3473 33.1716 16.906 35.613 16.906 38.6129C16.906 41.6129 19.3473 44.0542 22.3473 44.0542C25.3473 44.0542 27.7886 41.6129 27.7886 38.6129C27.7886 35.613 25.3473 33.1716 22.3473 33.1716ZM22.3473 40.4267C21.3481 40.4267 20.5335 39.6141 20.5335 38.6129C20.5335 37.6117 21.3481 36.7992 22.3473 36.7992C23.3465 36.7992 24.1611 37.6117 24.1611 38.6129C24.1611 39.6141 23.3465 40.4267 22.3473 40.4267Z" fill="#F59F23"/>
</svg>
