<svg width="42" height="58" viewBox="0 0 42 58" fill="none" xmlns="http://www.w3.org/2000/svg">
<path d="M0.176514 0.333435V57.4929L5.84898 51.8472L10.8883 56.8642L15.9276 51.8472L21.0431 56.9396L26.1582 51.8472L31.1975 56.8642L36.2368 51.8472L41.9097 57.4929V0.333435H0.176514ZM39.6768 52.1209L37.8124 50.2649L36.237 48.6976L34.6616 50.2653L31.1973 53.7137L27.7332 50.2653L26.1574 48.6968L24.5821 50.2653L21.0427 53.7899L17.5021 50.2653L15.9267 48.6976L14.3513 50.2653L10.887 53.7137L7.42291 50.2653L5.84755 48.6976L4.27219 50.2649L2.40859 52.1209V2.56674H39.6766L39.6768 52.1209ZM31.9386 12.3635H10.1476V10.1307H31.9386V12.3635ZM31.9386 23.7443H10.1476V21.5115H31.9386V23.7443ZM21.0426 35.1272H10.1466V32.8944H21.0426V35.1272Z" fill="#F59F23"/>
</svg>
