<svg width="45" height="47" viewBox="0 0 45 47" fill="none" xmlns="http://www.w3.org/2000/svg">
<path d="M30.5238 0.000624057C27.1762 -0.00114894 23.9425 1.21586 21.4267 3.42452C18.9108 5.63292 17.2853 8.68165 16.8532 12.001C16.4213 15.3205 17.2126 18.6841 19.0793 21.4625L0 40.5418L4.58746 45.1292L7.82948 41.8872L12.5142 46.5557L23.0183 36.0516L18.366 31.3668L23.8937 25.8392C26.3574 27.2003 29.1789 27.7743 31.9786 27.4837C34.7784 27.1935 37.4219 26.0525 39.5539 24.2144C41.6858 22.3765 43.2035 19.9298 43.903 17.2032C44.6026 14.4768 44.4504 11.6015 43.4669 8.9639C42.4834 6.32671 40.7157 4.05373 38.4017 2.45133C36.0877 0.8488 33.3384 -0.00676792 30.5236 4.03191e-05L30.5238 0.000624057ZM30.5238 22.6948C28.1591 22.6948 25.8915 21.7553 24.2196 20.0834C22.5477 18.4115 21.6082 16.1439 21.6082 13.7792C21.6082 11.4145 22.5477 9.14694 24.2196 7.47497C25.8915 5.80306 28.1591 4.86365 30.5238 4.86365C32.8885 4.86365 35.1561 5.80306 36.828 7.47497C38.4999 9.14688 39.4394 11.4145 39.4394 13.7792C39.4394 16.1439 38.4999 18.4115 36.828 20.0834C35.1561 21.7553 32.8885 22.6948 30.5238 22.6948Z" fill="#F59F23"/>
</svg>
