<svg width="31" height="46" viewBox="0 0 31 46" fill="none" xmlns="http://www.w3.org/2000/svg">
<path d="M10.3695 8.338C10.6898 8.10584 11.1282 7.99962 11.607 7.99212H11.6619C12.6842 7.99212 13.5037 8.69306 13.5037 9.52366V24.8659C13.4919 25.1353 13.5861 25.3451 13.7396 25.4866C13.8916 25.6268 14.0957 25.6946 14.2964 25.6946C14.4971 25.6946 14.7011 25.6268 14.8531 25.4866C15.0066 25.3451 15.1007 25.1353 15.0888 24.8659V22.0719C15.0888 21.5628 15.3926 21.056 15.9729 20.7591C16.5543 20.4653 17.3029 20.4654 17.8806 20.7591C18.4615 21.0553 18.7614 21.5623 18.7614 22.0719L18.7618 24.2736C18.7584 24.5361 18.8555 24.7398 19.0082 24.8771C19.1593 25.0129 19.3594 25.0787 19.5564 25.0787C19.7535 25.0787 19.9537 25.0129 20.1051 24.8771C20.2581 24.74 20.3557 24.5363 20.3531 24.2738V23.0985C20.3531 22.5874 20.6535 22.0861 21.234 21.7896C21.813 21.4959 22.5636 21.4959 23.1418 21.7896C23.7234 22.0863 24.0257 22.591 24.0257 23.0888V24.615C24.015 24.8843 24.1098 25.0939 24.2635 25.2353C24.4157 25.3754 24.6196 25.4432 24.8201 25.4432C25.0206 25.4432 25.2243 25.3754 25.3761 25.2352C25.5293 25.0937 25.6232 24.884 25.6115 24.6148V23.3593C25.7309 23.2145 25.8748 23.082 26.0712 22.9844L26.0713 22.9843C26.5626 22.7388 27.2142 22.7388 27.7062 22.9843L27.7063 22.9844C28.2 23.2299 28.4339 23.6306 28.4339 24.0219V31.2208C28.4215 35.2112 27.494 38.2706 25.7242 40.3066C23.9519 42.3406 21.3005 43.4438 17.9433 43.4377C14.5785 43.4307 12.5298 42.807 10.9569 41.6869L10.9568 41.6868C9.37914 40.5691 8.24119 38.9182 7.31487 36.7855L2.42048 25.4966L2.42046 25.4966C2.21261 25.0179 2.03418 24.5465 1.95576 24.1558C1.91654 23.9605 1.90348 23.7907 1.9215 23.6529C1.93941 23.5161 1.9869 23.4177 2.06308 23.3533C2.5824 22.9173 3.22926 22.9739 3.86261 23.3273C4.4967 23.681 5.09717 24.3241 5.49021 25.0151L5.49025 25.0151L5.49116 25.0167L5.49225 25.0185L5.49351 25.0205L5.49578 25.024L5.50263 25.0343L5.52756 25.0715L5.62022 25.2089L5.94809 25.6939C6.21884 26.0942 6.57905 26.6263 6.93897 27.1579L7.92824 28.6187L8.25406 29.0997L8.34532 29.2345L8.36937 29.27L8.37553 29.2791L8.37709 29.2814L8.37748 29.2819L8.37758 29.2821L8.45213 29.2317C8.84339 29.8098 9.74467 29.5287 9.7376 28.8342H9.8276V28.8337V9.52323V9.5232C9.82741 8.95273 10.0416 8.57571 10.3695 8.338ZM11.7477 6.40157L11.7475 6.39981L11.6639 6.40088C9.90645 6.42349 8.23859 7.5498 8.23859 9.52406V26.2497L7.11909 24.5992C6.3904 23.2837 5.56661 22.4137 4.66936 21.9255C3.77492 21.4363 2.82226 21.3293 1.99927 21.5225C1.39421 21.6632 0.948724 21.9177 0.651907 22.2866C0.355154 22.6555 0.215072 23.1287 0.201693 23.6916L0.201684 23.6921C0.193409 24.1421 0.307238 24.5757 0.460209 24.9835C0.563709 25.2595 0.687461 25.529 0.804589 25.7842C0.859464 25.9037 0.912886 26.0201 0.962089 26.1325C0.962112 26.1325 0.962134 26.1326 0.962156 26.1326L5.86543 37.4173C6.86072 39.7092 8.15164 41.6438 10.0366 42.9816L10.0367 42.9816C11.9215 44.315 14.3574 45.016 17.4918 44.9739C21.6128 45.0327 24.8088 43.7696 26.9165 41.3492C29.025 38.9296 30.0072 35.4555 30.0209 31.2293V31.229L30.0205 24.0224C30.0205 22.9746 29.3835 22.0199 28.4115 21.5637L28.4114 21.5637C27.2899 21.0381 26.1292 21.1297 25.2302 21.6323C24.9308 21.0466 24.4859 20.6956 23.8669 20.3763L23.8664 20.376C22.8177 19.8441 21.5564 19.8441 20.51 20.3761L20.5099 20.3761C20.3273 20.4691 20.1572 20.5812 19.9991 20.7028C19.692 20.1362 19.2104 19.6507 18.5981 19.349L18.5979 19.3489C17.2897 18.7073 16.1113 18.8491 15.0888 19.4443L15.0892 9.52407V9.52403C15.0884 7.58278 13.5173 6.41709 11.7477 6.40157Z" fill="#F59F23" stroke="#F59F23" stroke-width="0.18"/>
<path d="M6.02933 0.595425L5.99202 0.595424L5.99141 0.596034C4.25405 0.616337 2.83529 2.0447 2.83529 3.78946V13.8436C2.83529 15.6024 4.27483 17.0379 6.02893 17.0379C6.28844 17.0379 6.48972 16.9399 6.62522 16.7878C6.75926 16.6372 6.82437 16.4391 6.82437 16.2438C6.82437 16.0486 6.75926 15.8504 6.62522 15.6999C6.48972 15.5478 6.28844 15.4498 6.02893 15.4498C5.12623 15.4498 4.42664 14.7479 4.42664 13.8435V3.78936C4.42664 2.88598 5.12647 2.18078 6.02893 2.18078H17.295C18.1991 2.18078 18.9044 2.88643 18.9044 3.78936V13.8435C18.9044 14.7474 18.1989 15.4498 17.295 15.4498C17.0357 15.4498 16.8347 15.5478 16.6993 15.7C16.5654 15.8505 16.5004 16.0486 16.5004 16.2438C16.5004 16.4391 16.5654 16.6372 16.6993 16.7877C16.8347 16.9399 17.0357 17.0379 17.295 17.0379C19.0538 17.0379 20.4886 15.6023 20.4886 13.8436L20.489 3.78946C20.489 2.03183 19.0542 0.595814 17.2954 0.595814L6.02933 0.595425Z" fill="#F59F23" stroke="#F59F23" stroke-width="0.18"/>
</svg>
