<svg width="41" height="49" viewBox="0 0 41 49" fill="none" xmlns="http://www.w3.org/2000/svg">
<path d="M15.6384 32.6375C15.8176 32.7325 16.028 32.7518 16.2219 32.6906C16.4157 32.6294 16.5767 32.4927 16.6687 32.3117C16.7641 32.1321 16.7831 31.9217 16.7218 31.7279C16.6606 31.5344 16.5239 31.3734 16.343 31.281C12.7089 29.3363 9.9862 26.0395 8.76266 22.1034C7.53913 18.1676 7.91326 13.9084 9.80417 10.2456C11.6951 6.58313 14.951 3.81201 18.8683 2.53028C22.7855 1.24855 27.0501 1.55944 30.74 3.39592C34.4383 5.30851 37.226 8.61108 38.4908 12.5779C39.7553 16.5448 39.393 20.8516 37.4838 24.5517C36.6222 26.2278 35.4585 27.7308 34.0513 28.9844C34.1068 28.7896 34.0821 28.5802 33.9823 28.4036C33.8828 28.2271 33.7164 28.0978 33.5209 28.0447C33.3247 27.9869 33.1136 28.0102 32.9354 28.1104C32.7571 28.2101 32.6265 28.3779 32.5737 28.5751L31.9523 30.8104C31.9547 30.828 31.9547 30.8459 31.9523 30.8635C31.8989 31.0688 31.929 31.2867 32.0355 31.4697C32.1479 31.6527 32.3322 31.7792 32.5433 31.8184L34.8997 32.2883V32.288C34.9501 32.2954 35.0012 32.2954 35.0512 32.288C35.47 32.3299 35.8431 32.0248 35.8847 31.606C35.9267 31.1876 35.6216 30.8145 35.2028 30.7725L34.4451 30.621C36.2768 29.1596 37.7838 27.3326 38.8704 25.2563C40.9711 21.1981 41.3739 16.471 39.9897 12.116C38.6056 7.76113 35.5482 4.13416 31.49 2.03348C27.4318 -0.0675491 22.7047 -0.470054 18.3497 0.913774C13.9945 2.29795 10.3675 5.35527 8.26628 9.41349C6.16525 13.4714 5.7624 18.1979 7.14623 22.5529C8.53006 26.9082 11.5874 30.5355 15.6456 32.6364L15.6384 32.6375Z" fill="#F59F23"/>
<path d="M1.7417 46.0341H5.86391V32.1906H0.574707L1.7417 46.0341Z" fill="#F59F23"/>
<path d="M38.5141 37.57C38.411 37.5623 38.3068 37.5623 38.2036 37.57L27.8154 39.8131L27.7244 40.0478H27.7247C27.446 40.7356 26.9183 41.293 26.2472 41.6086C25.8676 41.7869 25.4539 41.8799 25.0348 41.8816H19.7307C19.3789 41.8816 19.0941 41.5964 19.0941 41.2449C19.0921 41.0755 19.1584 40.9124 19.2781 40.7927C19.3982 40.6729 19.5612 40.6066 19.7307 40.6087H25.0348C25.2631 40.6083 25.4884 40.5566 25.6938 40.4571C26.2005 40.2335 26.5597 39.7687 26.6487 39.2217C26.6561 39.1842 26.6561 39.1456 26.6487 39.108C26.6754 38.991 26.6754 38.8692 26.6487 38.7522C26.6233 38.3439 26.4484 37.9593 26.1579 37.6714C25.8673 37.3836 25.481 37.2127 25.0727 37.1911L19.4882 37.0091V37.0094C18.9784 36.9959 18.4774 36.8748 18.018 36.6532L12.7972 33.6754H12.7975C12.5448 33.5344 12.2607 33.4589 11.9714 33.4555H7.13721V44.5868H8.30428H8.30394C8.63951 44.5864 8.97237 44.6429 9.28899 44.7532L20.5112 48.5419H20.5115C20.7107 48.5534 20.9107 48.5534 21.1099 48.5419C21.7246 48.5442 22.3324 48.4123 22.8905 48.1556L39.2575 40.5783C39.6208 40.4064 39.8954 40.0905 40.0152 39.7069C40.1691 39.1958 40.0943 38.6434 39.8109 38.1915C39.5108 37.7798 39.0241 37.5464 38.5149 37.5701L38.5141 37.57Z" fill="#F59F23"/>
<path d="M33.7273 10.1985H13.4311C13.0678 10.1985 12.7954 10.4937 12.7954 10.8342V23.5476C12.7954 23.9109 13.0906 24.1833 13.4311 24.1833H33.7046C34.0678 24.1833 34.3402 23.8881 34.3402 23.5476L34.3404 10.8569C34.363 10.4936 34.0678 10.1986 33.7274 10.1986L33.7273 10.1985ZM33.0688 22.9347H14.0894V11.4925H33.0688V22.9347Z" fill="#F59F23"/>
<path d="M31.7975 21.6633V12.7639H26.0537C26.9846 13.8083 27.5748 15.3974 27.5748 17.2136C27.5748 19.0298 26.9846 20.619 26.0537 21.6633H31.7975Z" fill="#F59F23"/>
<path d="M19.5833 17.2136C19.5833 15.3974 20.1735 13.8082 21.1044 12.7639H15.3606V21.6633H21.1271C20.1736 20.6191 19.5834 19.0299 19.5834 17.2136H19.5833Z" fill="#F59F23"/>
<path d="M23.5563 20.5963C23.579 20.6189 23.6244 20.6417 23.6699 20.6417H24.5553C24.6234 20.6417 24.6688 20.5963 24.6914 20.551C24.7141 20.5056 24.7141 20.4375 24.6688 20.392L22.6937 18.3941H22.8299C23.7608 18.3941 24.578 17.7358 24.7823 16.8504H25.4861C25.5768 16.8504 25.6451 16.7823 25.6451 16.6914V16.1012C25.6451 16.0105 25.577 15.9422 25.4861 15.9422H24.7823C24.7369 15.6925 24.6233 15.4882 24.4871 15.2839H25.4861C25.5768 15.2839 25.6451 15.2158 25.6451 15.1249V14.5347C25.6451 14.444 25.577 14.3757 25.4861 14.3757H21.6946C21.6039 14.3757 21.5356 14.4438 21.5356 14.5347V15.1704C21.5356 15.2611 21.6037 15.3294 21.6946 15.3294H22.8298C23.2383 15.3294 23.6244 15.5565 23.7833 15.9424H21.6946C21.6039 15.9424 21.5356 16.0105 21.5356 16.1014V16.6916C21.5356 16.7823 21.6037 16.8506 21.6946 16.8506H23.7833C23.6016 17.2139 23.2384 17.4636 22.8298 17.4636H21.6946C21.6039 17.4636 21.5356 17.5317 21.5356 17.6226V18.5306C21.5356 18.5761 21.5583 18.5987 21.5811 18.6442L23.5563 20.5963Z" fill="#F59F23"/>
</svg>
