<svg width="56" height="58" viewBox="0 0 56 58" fill="none" xmlns="http://www.w3.org/2000/svg">
<path d="M47.7939 31.5134L47.6808 32.3619L48.3538 32.8909L54.2825 37.5512L48.62 47.3426L41.5934 44.5202L40.795 44.1995L40.1151 44.7268C38.7562 45.7807 37.2667 46.662 35.6463 47.3211L34.8474 47.6461L34.7264 48.5001L33.6644 55.9929H22.3552C22.3551 55.9927 22.355 55.9924 22.355 55.9922L21.2931 48.5001L21.1721 47.6461L20.3731 47.3211C18.7603 46.6651 17.2963 45.7847 15.8927 44.7179L15.2154 44.2032L14.426 44.5202L7.39946 47.3426L1.73715 37.5515L7.71951 32.8953L8.42469 32.3465L8.27779 31.465C8.14614 30.6751 8.0898 29.7789 8.0898 28.9132C8.0898 28.1073 8.19489 27.2159 8.33733 26.3613L8.48423 25.4799L7.77905 24.931L1.79655 20.2747L7.42929 10.4837L14.4558 13.3061L15.2423 13.622L15.9188 13.1112C17.299 12.0691 18.7936 11.1598 20.4029 10.5052L21.2018 10.1802L21.3229 9.32624L22.3848 1.83344H33.6941L34.7561 9.32624L34.8772 10.1802L35.6761 10.5052C37.2889 11.1613 38.7529 12.0417 40.1565 13.1084L40.8338 13.6232L41.6232 13.3061L48.6497 10.4837L54.3121 20.2748L48.3297 24.931L47.6245 25.4799L47.7714 26.3613C47.9032 27.1522 47.9594 28.019 47.9594 28.9132C47.9594 29.8341 47.9037 30.6906 47.7939 31.5134ZM54.373 20.2274C54.3732 20.2272 54.3733 20.2271 54.3735 20.227L54.3731 20.2273L54.373 20.2274ZM15.8072 28.9132C15.8072 35.6362 21.3016 41.1306 28.0246 41.1306C34.7476 41.1306 40.242 35.6362 40.242 28.9132C40.242 22.1902 34.7476 16.6958 28.0246 16.6958C21.3016 16.6958 15.8072 22.1902 15.8072 28.9132Z" stroke="#F59F23" stroke-width="3"/>
</svg>
