<svg width="46" height="45" viewBox="0 0 46 45" fill="none" xmlns="http://www.w3.org/2000/svg">
<path d="M45.4617 22.7556C45.4617 16.1911 40.1202 10.8511 33.5572 10.8511C26.9927 10.8511 21.6511 16.1908 21.6511 22.7556C21.6511 28.7357 31.6889 39.8457 33.5572 41.8617C35.4241 39.846 45.4617 28.736 45.4617 22.7556ZM27.1925 22.7556C27.1925 19.2465 30.0481 16.3924 33.5572 16.3924C37.0648 16.3924 39.9205 19.2464 39.9205 22.7556C39.9205 26.2647 37.0648 29.1203 33.5572 29.1203C30.0481 29.1206 27.1925 26.2647 27.1925 22.7556Z" fill="#F59F23"/>
<path d="M20.3808 9.91732C20.3808 4.8264 16.2396 0.685425 11.1489 0.685425C6.0582 0.685425 1.91699 4.82664 1.91699 9.91732C1.91699 14.5024 9.53785 23.0009 11.1489 24.7446C12.7586 23.0005 20.3808 14.5019 20.3808 9.91732ZM6.25464 9.91732C6.25464 7.21865 8.45054 5.02299 11.149 5.02299C13.8476 5.02299 16.0417 7.21889 16.0417 9.91732C16.0417 12.616 13.8473 14.8116 11.149 14.8116C8.45062 14.812 6.25464 12.6161 6.25464 9.91732Z" fill="#F59F23"/>
<path d="M2.13568 40.5469C2.08171 40.2358 1.7852 40.0261 1.47412 40.0801C1.16148 40.134 0.951813 40.4305 1.00578 40.7416C1.13357 41.4817 1.43318 42.1941 1.87363 42.8048C1.98497 42.9605 2.16022 43.0439 2.33887 43.0439C2.45517 43.0439 2.57303 43.0079 2.6729 42.936C2.93003 42.7508 2.98896 42.3923 2.80379 42.1351C2.46479 41.6652 2.23403 41.1166 2.13571 40.5468L2.13568 40.5469Z" fill="#F59F23"/>
<path d="M5.75965 43.7364C5.17159 43.7103 4.61326 43.5546 4.09938 43.2761C3.82086 43.1254 3.47225 43.2286 3.32151 43.5068C3.17077 43.7851 3.27405 44.1324 3.55226 44.2829C4.22034 44.6464 4.94582 44.8477 5.70878 44.8805C5.71684 44.8805 5.72521 44.8821 5.73483 44.8821C6.0394 44.8821 6.29311 44.6414 6.30645 44.3334C6.32134 44.018 6.0757 43.7494 5.75964 43.7364L5.75965 43.7364Z" fill="#F59F23"/>
<path d="M6.20687 34.8856H5.93331C5.27671 34.8856 4.63813 35.0118 4.03548 35.259C3.74238 35.3784 3.60312 35.7143 3.72284 36.0074C3.81464 36.2286 4.02741 36.3629 4.25352 36.3629C4.32548 36.3629 4.39929 36.348 4.47125 36.3185C4.93462 36.1287 5.42747 36.0319 5.93333 36.0319H6.20689C6.52449 36.0319 6.78007 35.7748 6.78007 35.4587C6.78007 35.1427 6.52449 34.8856 6.20689 34.8856L6.20687 34.8856Z" fill="#F59F23"/>
<path d="M10.2039 34.8856H8.20623C7.89018 34.8856 7.63306 35.1427 7.63306 35.4588C7.63306 35.7748 7.89018 36.0319 8.20623 36.0319H10.2039C10.52 36.0319 10.7771 35.7748 10.7771 35.4588C10.7771 35.1427 10.52 34.8856 10.2039 34.8856Z" fill="#F59F23"/>
<path d="M2.20934 36.5514C1.70657 37.1116 1.33157 37.7893 1.12536 38.5082C1.03851 38.8128 1.21562 39.1304 1.51833 39.2173C1.5723 39.2318 1.62471 39.2402 1.67713 39.2402C1.92588 39.2402 2.15539 39.0765 2.22735 38.8243C2.38615 38.2691 2.67429 37.7483 3.06265 37.3163C3.27387 37.0806 3.25433 36.7171 3.01829 36.5059C2.78257 36.2943 2.42062 36.3158 2.20936 36.5515L2.20934 36.5514Z" fill="#F59F23"/>
<path d="M9.7308 43.7395H7.73309C7.41549 43.7395 7.15991 43.9967 7.15991 44.3127C7.15991 44.6303 7.41549 44.8859 7.73309 44.8859H9.7308C10.0469 44.8859 10.304 44.6303 10.304 44.3127C10.3037 43.9967 10.0465 43.7395 9.7308 43.7395Z" fill="#F59F23"/>
<path d="M13.7278 43.7395H11.7282C11.4122 43.7395 11.155 43.9967 11.155 44.3127C11.155 44.6303 11.4122 44.8859 11.7282 44.8859H13.7275C14.0436 44.8859 14.3007 44.6303 14.3007 44.3127C14.3007 43.9967 14.0439 43.7395 13.7278 43.7395Z" fill="#F59F23"/>
<path d="M14.2009 34.8856H12.2016C11.8855 34.8856 11.6284 35.1427 11.6284 35.4588C11.6284 35.7748 11.8855 36.0319 12.2016 36.0319H14.2009C14.517 36.0319 14.7741 35.7748 14.7741 35.4588C14.7741 35.1427 14.517 34.8856 14.2009 34.8856Z" fill="#F59F23"/>
<path d="M25.717 43.7395H23.7177C23.4017 43.7395 23.1445 43.9967 23.1445 44.3127C23.1445 44.6303 23.4017 44.8859 23.7177 44.8859H25.717C26.0331 44.8859 26.2902 44.6303 26.2902 44.3127C26.2902 43.9967 26.0331 43.7395 25.717 43.7395Z" fill="#F59F23"/>
<path d="M14.3232 26.8495H13.7026C13.3865 26.8495 13.1294 27.1066 13.1294 27.4226C13.1294 27.7387 13.3865 27.9958 13.7026 27.9958H14.3232C14.6392 27.9958 14.8964 27.7387 14.8964 27.4226C14.8964 27.1066 14.6392 26.8495 14.3232 26.8495Z" fill="#F59F23"/>
<path d="M17.4365 33.8168C17.0401 34.2328 16.5442 34.5438 16.0021 34.7191C15.7009 34.8174 15.5353 35.1399 15.6336 35.4411C15.7105 35.6833 15.9366 35.839 16.1788 35.839C16.2362 35.839 16.2951 35.8291 16.3541 35.8111C17.0777 35.577 17.7392 35.161 18.2668 34.6058C18.4846 34.3782 18.4765 34.0147 18.2473 33.7969C18.0178 33.5776 17.6543 33.5875 17.4365 33.8168L17.4365 33.8168Z" fill="#F59F23"/>
<path d="M19.3755 32.6378C19.4803 32.2498 19.5327 31.8469 19.5327 31.4409C19.5327 31.0824 19.4918 30.7254 19.4099 30.3799C19.3361 30.0719 19.0284 29.8805 18.7204 29.954C18.4124 30.026 18.2211 30.3355 18.2946 30.6435C18.3551 30.9037 18.3864 31.1723 18.3864 31.4409C18.3864 31.7455 18.347 32.0485 18.2685 32.3397C18.1866 32.6459 18.3668 32.9604 18.673 33.0422C18.722 33.0553 18.7728 33.0618 18.8218 33.0618C19.0756 33.0618 19.3066 32.8934 19.3755 32.6378V32.6378Z" fill="#F59F23"/>
<path d="M21.7203 43.7395H19.7226C19.405 43.7395 19.1494 43.9967 19.1494 44.3127C19.1494 44.6303 19.405 44.8859 19.7226 44.8859H21.7203C22.0364 44.8859 22.2935 44.6303 22.2935 44.3127C22.2935 43.9967 22.0364 43.7395 21.7203 43.7395Z" fill="#F59F23"/>
<path d="M17.7223 43.7395H15.7245C15.4085 43.7395 15.1514 43.9967 15.1514 44.3127C15.1514 44.6303 15.4085 44.8859 15.7245 44.8859H17.7223C18.0399 44.8859 18.2954 44.6303 18.2954 44.3127C18.2954 43.9967 18.0402 43.7395 17.7223 43.7395Z" fill="#F59F23"/>
<path d="M16.4867 27.1162C16.1886 27.0099 15.8611 27.1637 15.7547 27.4633C15.6483 27.7614 15.8037 28.0889 16.1018 28.1953C16.639 28.387 17.1253 28.7145 17.5083 29.1419C17.6212 29.2681 17.7769 29.3336 17.9339 29.3336C18.0716 29.3336 18.2074 29.2846 18.3172 29.1863C18.553 28.975 18.5728 28.6131 18.3616 28.3773C17.8523 27.8088 17.2038 27.3715 16.4867 27.1162L16.4867 27.1162Z" fill="#F59F23"/>
<path d="M12.9868 27.422C12.9868 27.1059 12.7312 26.8488 12.4136 26.8488H11.1479C10.8303 26.8488 10.5747 27.1059 10.5747 27.422C10.5747 27.738 10.8303 27.9951 11.1479 27.9951H12.4136C12.7315 27.9951 12.9868 27.738 12.9868 27.422Z" fill="#F59F23"/>
<path d="M33.5573 43.7395H32.29C31.9739 43.7395 31.7168 43.9967 31.7168 44.3127C31.7168 44.6303 31.9739 44.8859 32.29 44.8859H33.5573C33.8733 44.8859 34.1305 44.6303 34.1305 44.3127C34.1305 43.9967 33.8733 43.7395 33.5573 43.7395Z" fill="#F59F23"/>
<path d="M29.7127 43.7395H27.715C27.399 43.7395 27.1418 43.9967 27.1418 44.3127C27.1418 44.6303 27.399 44.8859 27.715 44.8859H29.7127C30.0303 44.8859 30.2859 44.6303 30.2859 44.3127C30.2859 43.9967 30.0303 43.7395 29.7127 43.7395Z" fill="#F59F23"/>
</svg>
