<?xml version="1.0" encoding="UTF-8" standalone="no"?>
<svg
   xmlns:dc="http://purl.org/dc/elements/1.1/"
   xmlns:cc="http://creativecommons.org/ns#"
   xmlns:rdf="http://www.w3.org/1999/02/22-rdf-syntax-ns#"
   xmlns:svg="http://www.w3.org/2000/svg"
   xmlns="http://www.w3.org/2000/svg"
   viewBox="0 0 1333.3333 1333.3333"
   height="1333.3333"
   width="1333.3333"
   xml:space="preserve"
   id="svg2"
   version="1.1"><metadata
     id="metadata8"><rdf:RDF><cc:Work
         rdf:about=""><dc:format>image/svg+xml</dc:format><dc:type
           rdf:resource="http://purl.org/dc/dcmitype/StillImage" /></cc:Work></rdf:RDF></metadata><defs
     id="defs6"><clipPath
       id="clipPath18"
       clipPathUnits="userSpaceOnUse"><path
         id="path16"
         d="M 0,1000 H 1000 V 0 H 0 Z" /></clipPath></defs><g
     transform="matrix(1.3333333,0,0,-1.3333333,0,1333.3333)"
     id="g10"><g
       id="g12"><g
         clip-path="url(#clipPath18)"
         id="g14"><g
           transform="translate(536.9023,773.2524)"
           id="g20"><path
             id="path22"
             style="fill:#000000;fill-opacity:1;fill-rule:nonzero;stroke:none"
             d="m 0,0 c 4.161,-11.839 5.895,-22.844 6.589,-30.876 h -288.563 c 0.949,13.134 3.263,25.123 6.914,35.929 3.567,10.579 8.429,20.027 14.572,28.307 2.993,4.048 6.298,7.82 9.907,11.308 15.335,14.812 31.053,19.08 32.029,19.334 5.917,1.288 10.156,6.157 10.849,12.172 0.021,0.177 2.314,18.251 12.108,35.858 12.505,22.462 31.336,33.848 55.964,33.848 27.408,0 46.925,-10.877 57.993,-32.348 8.917,-17.288 9.271,-35.32 9.271,-35.447 0.042,-5.747 3.546,-10.898 8.881,-13.036 18.443,-7.402 33.417,-18.003 44.81,-31.689 C -11.755,25.052 -6.157,15.611 -1.903,5.053 -1.238,3.397 -0.602,1.712 0,0 m 173.904,-101.884 c 7.821,0 14.154,6.341 14.154,14.154 V 19.207 c 0,7.819 -6.333,14.153 -14.154,14.153 H 15.654 c -11.493,19.744 -30.162,40.281 -60.45,54.427 -1.132,9.044 -3.97,23.332 -11.146,37.655 -11.132,22.243 -34.69,48.745 -83.689,48.745 -35.172,0 -63.076,-16.729 -80.697,-48.391 -7.912,-14.217 -11.945,-28.406 -13.884,-37.28 -8.493,-3.383 -21.663,-10.035 -34.648,-22.171 -8.28,-7.735 -17.239,-18.464 -24.748,-32.985 h -161.534 c -7.813,0 -14.153,-6.334 -14.153,-14.153 v -713.65 c 0,-7.819 6.34,-14.153 14.153,-14.153 h 629.046 c 7.821,0 14.154,6.334 14.154,14.153 v 25.632 c 0,7.82 -6.333,14.154 -14.154,14.154 -7.812,0 -14.153,-6.334 -14.153,-14.154 V -680.29 H -440.988 V 5.053 h 136.461 c -3.871,-14.218 -6.249,-30.798 -6.249,-50.082 0,-7.82 6.341,-14.154 14.153,-14.154 H 21.046 c 7.389,0 13.538,5.683 14.111,13.05 0.078,0.983 1.72,23.664 -7.006,51.186 h 131.6 V -87.73 c 0,-7.813 6.341,-14.154 14.153,-14.154" /></g><g
           transform="translate(412.6401,392.0732)"
           id="g24"><path
             id="path26"
             style="fill:#000000;fill-opacity:1;fill-rule:nonzero;stroke:none"
             d="m 0,0 h -111.42 c -7.817,0 -14.153,6.337 -14.153,14.154 0,7.817 6.336,14.154 14.153,14.154 H 0 c 7.817,0 14.153,-6.337 14.153,-14.154 C 14.153,6.337 7.817,0 0,0" /></g><g
           transform="translate(493.3149,572.5312)"
           id="g28"><path
             id="path30"
             style="fill:#000000;fill-opacity:1;fill-rule:nonzero;stroke:none"
             d="m 0,0 h -192.095 c -7.817,0 -14.153,6.336 -14.153,14.153 0,7.817 6.336,14.154 14.153,14.154 L 0,28.307 c 7.817,0 14.153,-6.337 14.153,-14.154 C 14.153,6.336 7.817,0 0,0" /></g><path
           id="path32"
           style="fill:#000000;fill-opacity:1;fill-rule:nonzero;stroke:none"
           d="m 177.062,552.402 h 62.275 v 69.195 h -62.275 z m 76.429,-28.307 h -90.582 c -7.817,0 -14.154,6.336 -14.154,14.153 v 97.502 c 0,7.817 6.337,14.153 14.154,14.153 h 90.582 c 7.817,0 14.154,-6.336 14.154,-14.153 v -97.502 c 0,-7.817 -6.337,-14.153 -14.154,-14.153" /><path
           id="path34"
           style="fill:#000000;fill-opacity:1;fill-rule:nonzero;stroke:none"
           d="m 177.062,371.63 h 62.275 v 69.194 h -62.275 z m 76.429,-28.307 h -90.582 c -7.817,0 -14.154,6.336 -14.154,14.154 v 97.502 c 0,7.816 6.337,14.153 14.154,14.153 h 90.582 c 7.817,0 14.154,-6.337 14.154,-14.153 v -97.502 c 0,-7.818 -6.337,-14.154 -14.154,-14.154" /><path
           id="path36"
           style="fill:#000000;fill-opacity:1;fill-rule:nonzero;stroke:none"
           d="m 177.062,193.61 h 62.275 v 69.194 h -62.275 z m 76.429,-28.307 h -90.582 c -7.817,0 -14.154,6.337 -14.154,14.153 v 97.502 c 0,7.817 6.337,14.153 14.154,14.153 h 90.582 c 7.817,0 14.154,-6.336 14.154,-14.153 v -97.502 c 0,-7.816 -6.337,-14.153 -14.154,-14.153" /><g
           transform="translate(409.4956,182.0508)"
           id="g38"><path
             id="path40"
             style="fill:#000000;fill-opacity:1;fill-rule:nonzero;stroke:none"
             d="m 0,0 c -0.508,0 -1.019,0.027 -1.529,0.083 -4.013,0.436 -7.648,2.563 -9.992,5.85 l -35.07,49.144 c -4.541,6.363 -3.063,15.202 3.299,19.742 6.364,4.54 15.203,3.063 19.743,-3.299 L 2.296,35.302 84.869,109.893 c 5.799,5.239 14.751,4.785 19.99,-1.016 5.239,-5.8 4.785,-14.75 -1.016,-19.989 L 9.487,3.651 C 6.873,1.29 3.487,0 0,0" /></g><g
           transform="translate(921.8496,281.9336)"
           id="g42"><path
             id="path44"
             style="fill:#000000;fill-opacity:1;fill-rule:nonzero;stroke:none"
             d="M 0,0 -213.718,-113.454 V 86.174 l 71.553,38.321 0.63,-59.558 c 0.056,-4.933 2.668,-9.483 6.907,-12.009 2.23,-1.33 4.734,-1.996 7.246,-1.996 2.265,0 4.529,0.538 6.596,1.628 l 56.182,29.566 c 4.657,2.449 7.566,7.269 7.566,12.526 v 75.431 L 0,200.634 Z m -227.794,110.752 -215.749,118.316 68.036,34.874 c 0.205,-0.12 0.41,-0.24 0.623,-0.353 l 216.917,-115.443 z m -14.231,-222.55 -108.543,66.139 c 0.127,2.357 0.191,4.721 0.191,7.105 0,63.372 -45.391,116.342 -105.366,128.097 V 203.479 L -242.025,86.273 Z m -238.876,-28.973 c -56.367,0 -102.224,45.858 -102.224,102.217 0,56.366 45.857,102.224 102.224,102.224 1.139,0 2.278,-0.022 3.404,-0.064 4.345,-0.134 8.62,-0.551 12.809,-1.224 48.681,-7.791 86.003,-50.089 86.003,-100.936 0,-56.359 -45.857,-102.217 -102.216,-102.217 m 395.555,295.696 v -51.732 l -28.13,-14.797 -0.545,51.172 z m -226.216,141.79 c 0.553,-0.432 1.147,-0.821 1.777,-1.175 l 209.097,-116.724 -27.246,-14.586 -216.902,115.43 z m 85.799,43.975 210.308,-116.222 -55.588,-29.772 -210.414,117.446 z M 28.301,224.673 c 0.007,0.043 0,0.093 0,0.135 -0.015,0.24 -0.03,0.481 -0.05,0.722 0,0.092 -0.015,0.184 -0.028,0.283 -0.015,0.106 -0.022,0.212 -0.036,0.318 -0.021,0.184 -0.049,0.369 -0.084,0.552 -0.029,0.142 -0.057,0.291 -0.085,0.432 -0.093,0.467 -0.213,0.934 -0.355,1.387 -0.07,0.227 -0.148,0.453 -0.233,0.68 -0.12,0.325 -0.255,0.651 -0.404,0.969 -0.12,0.262 -0.248,0.524 -0.381,0.786 -0.008,0.006 -0.008,0.014 -0.015,0.021 -0.077,0.148 -0.162,0.297 -0.247,0.438 -0.043,0.078 -0.085,0.156 -0.135,0.227 -0.092,0.163 -0.191,0.318 -0.297,0.474 -0.064,0.099 -0.135,0.205 -0.206,0.304 -0.134,0.191 -0.268,0.375 -0.41,0.552 -0.022,0.028 -0.042,0.057 -0.064,0.085 -0.183,0.234 -0.368,0.453 -0.559,0.672 -0.028,0.022 -0.049,0.05 -0.064,0.071 -0.198,0.213 -0.396,0.418 -0.601,0.616 -0.212,0.212 -0.432,0.417 -0.665,0.608 -0.042,0.036 -0.078,0.071 -0.12,0.107 -0.17,0.141 -0.347,0.283 -0.524,0.424 -0.071,0.057 -0.149,0.113 -0.226,0.163 -0.015,0.014 -0.029,0.029 -0.05,0.035 -0.205,0.149 -0.418,0.298 -0.63,0.432 -0.269,0.177 -0.545,0.34 -0.828,0.496 -0.064,0.035 -0.127,0.07 -0.184,0.099 L -218.664,369.11 c -4.126,2.286 -9.115,2.357 -13.305,0.213 L -476.351,244.064 c -4.727,-2.42 -7.699,-7.289 -7.699,-12.597 V 91.941 c -70.527,-1.683 -127.382,-59.572 -127.382,-130.495 0,-71.97 58.553,-130.523 130.531,-130.523 59.091,0 109.137,39.467 125.16,93.427 l 120.51,-73.436 c 2.257,-1.373 4.805,-2.066 7.36,-2.066 2.278,0 4.557,0.552 6.638,1.656 L 20.792,-21.018 c 4.628,2.456 7.516,7.268 7.516,12.505 V 224.27 c 0,0.135 0,0.269 -0.007,0.403" /></g><g
           transform="translate(397.2676,865.9414)"
           id="g46"><path
             id="path48"
             style="fill:#000000;fill-opacity:1;fill-rule:nonzero;stroke:none"
             d="m 0,0 c -13.159,0 -23.864,-10.706 -23.864,-23.864 0,-13.159 10.705,-23.865 23.864,-23.865 13.159,0 23.865,10.706 23.865,23.865 C 23.865,-10.706 13.159,0 0,0 m 0,-76.036 c -28.767,0 -52.171,23.404 -52.171,52.172 0,28.767 23.404,52.171 52.171,52.171 28.768,0 52.171,-23.404 52.171,-52.171 0,-28.768 -23.403,-52.172 -52.171,-52.172" /></g></g></g></g></svg>