<svg width="32" height="46" viewBox="0 0 32 46" fill="none" xmlns="http://www.w3.org/2000/svg">
<path d="M4.00788 44.9859H28.311C29.9176 44.9859 31.2249 43.6788 31.2249 42.072V9.73409C31.2249 8.12729 29.9175 6.81989 28.311 6.81989H24.3491C24.2498 5.69427 23.3093 4.80566 22.1567 4.80566H20.3957C20.3884 2.44329 18.46 0.585425 16.1595 0.585425C13.855 0.585425 11.9305 2.44695 11.9236 4.80566H10.1625C9.00989 4.80566 8.06943 5.69427 7.97016 6.81989H4.00821C2.40164 6.81989 1.09434 8.1273 1.09434 9.73409V42.072C1.09434 43.6788 2.40131 44.9858 4.00772 44.9859C4.00777 44.9859 4.00783 44.9859 4.00788 44.9859ZM16.1594 2.16656C17.6032 2.16656 18.8026 3.32855 18.8174 4.80558H13.5016C13.5162 3.32856 14.7156 2.16656 16.1594 2.16656ZM9.53531 7.01423C9.53531 6.66855 9.81704 6.38707 10.1625 6.38707H22.157C22.5025 6.38707 22.7842 6.66855 22.7842 7.01423V8.20335C22.7842 8.54904 22.5025 8.83051 22.157 8.83051L10.1625 8.8302C9.81704 8.8302 9.53531 8.54872 9.53531 8.20303V7.01423ZM2.67547 9.73401C2.67547 8.99912 3.2736 8.40127 4.00788 8.40127H7.97033C8.07138 9.52499 9.01089 10.4114 10.1622 10.4114H22.1567C23.3077 10.4114 24.2476 9.525 24.3486 8.40127H28.311C29.0456 8.40127 29.6434 8.99937 29.6434 9.73401V42.0719C29.6434 42.8065 29.0453 43.4044 28.311 43.4044H4.00772C3.27316 43.4044 2.67531 42.8062 2.67531 42.0719L2.67547 9.73401Z" fill="#F59F23" stroke="#F59F23" stroke-width="0.2"/>
<path d="M5.80526 20.4011H12.3186C12.5094 20.4011 12.6639 20.2466 12.6639 20.0558V13.5422C12.6639 13.3514 12.5094 13.1969 12.3186 13.1969H5.80526C5.61448 13.1969 5.45996 13.3514 5.45996 13.5422V20.0558C5.45996 20.2469 5.61448 20.4011 5.80526 20.4011V20.4011ZM6.15056 13.8877H11.9732V19.7108H6.15056V13.8877Z" fill="#F59F23"/>
<path d="M15.9942 15.8565H26.5147C26.8159 15.8565 27.06 15.6124 27.06 15.3112C27.06 15.0099 26.8159 14.7659 26.5147 14.7659H15.9942C15.693 14.7659 15.4489 15.0099 15.4489 15.3112C15.4489 15.6124 15.693 15.8565 15.9942 15.8565Z" fill="#F59F23" stroke="#F59F23" stroke-width="0.4"/>
<path d="M15.9942 18.8324H21.2878C21.5891 18.8324 21.8331 18.5883 21.8331 18.2871C21.8331 17.9858 21.5891 17.7418 21.2878 17.7418H15.9942C15.693 17.7418 15.4489 17.9858 15.4489 18.2871C15.4489 18.5883 15.693 18.8324 15.9942 18.8324Z" fill="#F59F23" stroke="#F59F23" stroke-width="0.4"/>
<path d="M5.80526 30.5097H12.3186C12.5094 30.5097 12.6639 30.3552 12.6639 30.1644V23.6508C12.6639 23.4601 12.5094 23.3055 12.3186 23.3055H5.80526C5.61448 23.3055 5.45996 23.4601 5.45996 23.6508V30.1644C5.45996 30.3552 5.61448 30.5097 5.80526 30.5097V30.5097ZM6.15056 23.9964H11.9732V29.8194H6.15056V23.9964Z" fill="#F59F23"/>
<path d="M15.9942 25.9651H26.5147C26.8159 25.9651 27.06 25.721 27.06 25.4198C27.06 25.1186 26.8159 24.8745 26.5147 24.8745H15.9942C15.693 24.8745 15.4489 25.1186 15.4489 25.4198C15.4489 25.7215 15.6931 25.9651 15.9942 25.9651Z" fill="#F59F23" stroke="#F59F23" stroke-width="0.4"/>
<path d="M15.9942 28.9409H21.2878C21.5891 28.9409 21.8331 28.6969 21.8331 28.3956C21.8331 28.0944 21.5891 27.8503 21.2878 27.8503H15.9942C15.693 27.8503 15.4489 28.0944 15.4489 28.3956C15.4489 28.6973 15.6931 28.9409 15.9942 28.9409Z" fill="#F59F23" stroke="#F59F23" stroke-width="0.4"/>
<path d="M5.80526 40.6199H12.3186C12.5094 40.6199 12.6639 40.4654 12.6639 40.2746V33.761C12.6639 33.5703 12.5094 33.4157 12.3186 33.4157H5.80526C5.61448 33.4157 5.45996 33.5703 5.45996 33.761V40.2746C5.45996 40.4657 5.61448 40.6199 5.80526 40.6199V40.6199ZM6.15056 34.1066H11.9732V39.9296H6.15056V34.1066Z" fill="#F59F23"/>
<path d="M15.9942 36.0761H26.5147C26.8159 36.0761 27.06 35.832 27.06 35.5308C27.06 35.2296 26.8159 34.9855 26.5147 34.9855H15.9942C15.693 34.9855 15.4489 35.2296 15.4489 35.5308C15.4489 35.832 15.693 36.0761 15.9942 36.0761Z" fill="#F59F23" stroke="#F59F23" stroke-width="0.4"/>
<path d="M15.9942 39.0512H21.2878C21.5891 39.0512 21.8331 38.8071 21.8331 38.5059C21.8331 38.2046 21.5891 37.9606 21.2878 37.9606H15.9942C15.693 37.9606 15.4489 38.2046 15.4489 38.5059C15.4489 38.8075 15.6931 39.0512 15.9942 39.0512Z" fill="#F59F23" stroke="#F59F23" stroke-width="0.4"/>
<path d="M10.2852 35.7849L8.55165 37.5188L7.83753 36.805C7.70272 36.6701 7.48429 36.6701 7.34915 36.805C7.21434 36.9398 7.21434 37.1582 7.34915 37.2933L8.30743 38.2514C8.37484 38.3188 8.46323 38.3525 8.55162 38.3525C8.64001 38.3525 8.72841 38.3188 8.79581 38.2514L10.7732 36.2734C10.908 36.1385 10.908 35.9201 10.7732 35.785C10.6387 35.6502 10.4202 35.6502 10.2851 35.785L10.2852 35.7849Z" fill="#F59F23"/>
<path d="M10.2852 25.6747L8.55165 27.4085L7.83753 26.6944C7.70272 26.5596 7.48429 26.5596 7.34915 26.6944C7.21434 26.8292 7.21434 27.0477 7.34915 27.1828L8.30743 28.1411C8.37229 28.2059 8.45973 28.2422 8.55162 28.2422C8.64319 28.2422 8.73094 28.2059 8.79581 28.1411L10.7732 26.1631C10.908 26.0283 10.908 25.8098 10.7732 25.6747C10.6387 25.5399 10.4202 25.5399 10.2851 25.6747L10.2852 25.6747Z" fill="#F59F23"/>
<path d="M10.4045 15.4554C10.2697 15.3206 10.0513 15.3206 9.91616 15.4554L9.06117 16.3104L8.20618 15.4554C8.07137 15.3206 7.85294 15.3206 7.71781 15.4554C7.583 15.5903 7.583 15.8087 7.71781 15.9438L8.57279 16.7988L7.71781 17.6538C7.583 17.7886 7.583 18.007 7.71781 18.1422C7.78521 18.2096 7.87361 18.2433 7.96199 18.2433C8.05038 18.2433 8.13878 18.2096 8.20618 18.1422L9.06117 17.2872L9.91616 18.1422C9.98356 18.2096 10.072 18.2433 10.1603 18.2433C10.2487 18.2433 10.3371 18.2096 10.4045 18.1422C10.5393 18.0074 10.5393 17.7889 10.4045 17.6538L9.54955 16.7988L10.4045 15.9438C10.5393 15.8087 10.5393 15.5903 10.4045 15.4554Z" fill="#F59F23"/>
</svg>
