<svg width="43" height="58" viewBox="0 0 43 58" fill="none" xmlns="http://www.w3.org/2000/svg">
<path d="M1.19438 0C0.546599 0.0606872 -0.00281384 0.667096 1.08438e-05 1.31807V56.6819C1.08438e-05 57.372 0.628022 58 1.31808 58H40.8637C41.5538 58 42.1818 57.372 42.1818 56.6819V10.5454C42.1845 10.1946 42.0402 9.84473 41.7905 9.59784L32.5634 0.370764C32.3179 0.133537 31.9777 -0.00255392 31.6366 0.000211915H1.19471L1.19438 0ZM2.63615 2.63614H30.3181V10.5451C30.3181 11.2352 30.9461 11.8632 31.6361 11.8632H39.5452V55.3634H2.63591L2.63615 2.63614ZM32.9544 4.48984L37.6917 9.22707H32.9544V4.48984ZM7.12622 7.24968C6.47798 7.31082 5.92856 7.91723 5.93138 8.56775V12.5225C5.93138 13.2126 6.55939 13.8406 7.24945 13.8406H11.2042C11.8943 13.8406 12.5223 13.2126 12.5223 12.5225V8.56775C12.5223 7.87766 11.8943 7.24968 11.2042 7.24968H7.24945C7.20807 7.24784 7.16716 7.24784 7.12578 7.24968H7.12622ZM17.1359 9.22707C16.4076 9.22707 15.8178 9.81739 15.8178 10.5451C15.8178 11.2734 16.4081 11.8632 17.1359 11.8632H27.6816C28.4098 11.8632 28.9997 11.2729 28.9997 10.5451C28.9997 9.8169 28.4093 9.22707 27.6816 9.22707H17.1359ZM8.56752 9.88636H9.88559V11.2044H8.56752V9.88636ZM7.12622 16.4773C6.47798 16.538 5.92856 17.1444 5.93138 17.7954V21.7502C5.93138 22.4402 6.55939 23.0682 7.24945 23.0682H11.2042C11.8943 23.0682 12.5223 22.4402 12.5223 21.7502V17.7954C12.5223 17.1053 11.8943 16.4773 11.2042 16.4773H7.24945C7.20807 16.4755 7.16716 16.4755 7.12578 16.4773H7.12622ZM17.1359 18.4542C16.4076 18.4542 15.8178 19.0445 15.8178 19.7723C15.8178 20.5005 16.4081 21.0904 17.1359 21.0904H34.9314C35.6596 21.0904 36.2494 20.5 36.2494 19.7723C36.2494 19.044 35.6591 18.4542 34.9314 18.4542H17.1359ZM8.56752 19.1135H9.88559V20.4316H8.56752V19.1135ZM7.12622 25.7044C6.47798 25.7656 5.92856 26.3715 5.93138 27.0225V30.9773C5.93138 31.6674 6.55939 32.2954 7.24945 32.2954H11.2042C11.8943 32.2954 12.5223 31.6674 12.5223 30.9773V27.0225C12.5223 26.3324 11.8943 25.7044 11.2042 25.7044H7.24945C7.20807 25.7026 7.16716 25.7026 7.12578 25.7044H7.12622ZM17.1359 27.6818C16.4076 27.6818 15.8178 28.2721 15.8178 28.9999C15.8178 29.7281 16.4081 30.318 17.1359 30.318H34.9314C35.6596 30.318 36.2494 29.7277 36.2494 28.9999C36.2494 28.2717 35.6591 27.6818 34.9314 27.6818H17.1359ZM8.56752 28.3411H9.88559V29.6592H8.56752V28.3411ZM7.12622 34.9316C6.47798 34.9927 5.92856 35.5991 5.93138 36.2501V40.2049C5.93138 40.895 6.55939 41.523 7.24945 41.523H11.2042C11.8943 41.523 12.5223 40.895 12.5223 40.2049V36.2501C12.5223 35.56 11.8943 34.9321 11.2042 34.9321H7.24945C7.20807 34.9302 7.16716 34.9302 7.12578 34.9321L7.12622 34.9316ZM17.1359 36.909C16.4076 36.909 15.8178 37.4993 15.8178 38.227C15.8178 38.9553 16.4081 39.5451 17.1359 39.5451H34.9314C35.6596 39.5451 36.2494 38.9548 36.2494 38.227C36.2494 37.4988 35.6591 36.909 34.9314 36.909H17.1359ZM8.56752 37.5683H9.88559V38.8863H8.56752V37.5683ZM7.12622 44.1592C6.47798 44.2203 5.92856 44.8263 5.93138 45.4773V49.4321C5.93138 50.1221 6.55939 50.7501 7.24945 50.7501H11.2042C11.8943 50.7501 12.5223 50.1221 12.5223 49.4321V45.4773C12.5223 44.7872 11.8943 44.1592 11.2042 44.1592H7.24945C7.20807 44.1574 7.16716 44.1574 7.12578 44.1592H7.12622ZM17.1359 46.1366C16.4076 46.1366 15.8178 46.7269 15.8178 47.4547C15.8178 48.1829 16.4081 48.7727 17.1359 48.7727H34.9314C35.6596 48.7727 36.2494 48.1824 36.2494 47.4547C36.2494 46.7264 35.6591 46.1366 34.9314 46.1366H17.1359ZM8.56752 46.7959H9.88559V48.1139H8.56752V46.7959Z" fill="#F59F23"/>
</svg>
