<svg width="43" height="43" viewBox="0 0 43 43" fill="none" xmlns="http://www.w3.org/2000/svg">
<path d="M29.018 26.9748H25.6854V24.5311C27.0045 24.1777 28.1704 23.3995 29.0027 22.3169C29.835 21.2343 30.2874 19.9075 30.2899 18.5419V9.91618C30.2899 7.55146 29.3505 5.28359 27.6784 3.61148C26.0063 1.93938 23.7385 1 21.3737 1C19.009 1 16.7412 1.93938 15.0691 3.61148C13.397 5.28359 12.4576 7.55146 12.4576 9.91618V18.5444C12.4608 19.9101 12.9134 21.2368 13.7456 22.3197C14.5778 23.4026 15.7433 24.1815 17.0621 24.5361V26.9798H13.732C12.0599 26.9795 10.4042 27.3086 8.8593 27.9483C7.31443 28.5881 5.91073 29.5259 4.72839 30.7082C3.54605 31.8906 2.60822 33.2943 1.9685 34.8391C1.32877 36.384 0.999671 38.0398 1 39.7119V41.75H41.7525V39.7119C41.7525 36.3342 40.4109 33.0949 38.0228 30.7063C35.6347 28.3177 32.3956 26.9755 29.018 26.9748Z" stroke="#F49F24" stroke-width="1.5023" stroke-miterlimit="10"/>
<path d="M34.8092 32.9541H25.9932V37.5286H34.8092V32.9541Z" fill="#F49F24"/>
</svg>
